M48
; DRILL file {KiCad (5.1.12)-1} date 02/19/22 00:28:08
; FORMAT={-:-/ absolute / inch / decimal}
; #@! TF.CreationDate,2022-02-19T00:28:08-08:00
; #@! TF.GenerationSoftware,Kicad,Pcbnew,(5.1.12)-1
FMAT,2
INCH
T1C0.0100
T2C0.0315
T3C0.0394
T4C0.0866
%
G90
G05
T1
X5.8526Y-4.1876
X5.92Y-4.465
X5.92Y-4.495
X5.93Y-4.265
X5.93Y-4.295
X5.93Y-4.325
X5.93Y-4.355
X5.93Y-4.385
X5.95Y-4.465
X5.95Y-4.495
X5.97Y-4.265
X5.97Y-4.295
X5.97Y-4.325
X5.97Y-4.355
X5.97Y-4.385
X5.98Y-4.465
X5.98Y-4.495
X6.0374Y-4.1876
T2
X5.21Y-4.1866
X5.21Y-4.285
T3
X5.03Y-4.465
X5.03Y-4.565
X6.44Y-4.125
X6.54Y-4.125
T4
X4.8Y-3.625
X4.8Y-4.625
X6.75Y-3.625
X6.75Y-4.625
T0
M30
