%TF.GenerationSoftware,KiCad,Pcbnew,(5.1.12)-1*%
%TF.CreationDate,2022-02-19T00:27:12-08:00*%
%TF.ProjectId,powersupply,706f7765-7273-4757-9070-6c792e6b6963,1*%
%TF.SameCoordinates,Original*%
%TF.FileFunction,Soldermask,Top*%
%TF.FilePolarity,Negative*%
%FSLAX46Y46*%
G04 Gerber Fmt 4.6, Leading zero omitted, Abs format (unit mm)*
G04 Created by KiCad (PCBNEW (5.1.12)-1) date 2022-02-19 00:27:12*
%MOMM*%
%LPD*%
G01*
G04 APERTURE LIST*
%ADD10C,4.501599*%
%ADD11C,1.601600*%
%ADD12O,1.801600X1.801600*%
%ADD13C,1.701600*%
G04 APERTURE END LIST*
D10*
%TO.C,REF\u002A\u002A*%
X171450000Y-117475000D03*
%TD*%
%TO.C,REF\u002A\u002A*%
X121920000Y-117475000D03*
%TD*%
%TO.C,REF\u002A\u002A*%
X121920000Y-92075000D03*
%TD*%
%TO.C,REF\u002A\u002A*%
X171450000Y-92075000D03*
%TD*%
D11*
%TO.C,TP5*%
X150876000Y-92837000D03*
%TD*%
%TO.C,TP4*%
X164846000Y-109093000D03*
%TD*%
%TO.C,TP3*%
X159004000Y-107061000D03*
%TD*%
%TO.C,TP2*%
X127762000Y-109601000D03*
%TD*%
%TO.C,TP1*%
X135890000Y-114935000D03*
%TD*%
%TO.C,U1*%
G36*
G01*
X152579200Y-108125400D02*
X152579200Y-107774600D01*
G75*
G02*
X152754600Y-107599200I175400J0D01*
G01*
X154455400Y-107599200D01*
G75*
G02*
X154630800Y-107774600I0J-175400D01*
G01*
X154630800Y-108125400D01*
G75*
G02*
X154455400Y-108300800I-175400J0D01*
G01*
X152754600Y-108300800D01*
G75*
G02*
X152579200Y-108125400I0J175400D01*
G01*
G37*
G36*
G01*
X152579200Y-109395400D02*
X152579200Y-109044600D01*
G75*
G02*
X152754600Y-108869200I175400J0D01*
G01*
X154455400Y-108869200D01*
G75*
G02*
X154630800Y-109044600I0J-175400D01*
G01*
X154630800Y-109395400D01*
G75*
G02*
X154455400Y-109570800I-175400J0D01*
G01*
X152754600Y-109570800D01*
G75*
G02*
X152579200Y-109395400I0J175400D01*
G01*
G37*
G36*
G01*
X152579200Y-110665400D02*
X152579200Y-110314600D01*
G75*
G02*
X152754600Y-110139200I175400J0D01*
G01*
X154455400Y-110139200D01*
G75*
G02*
X154630800Y-110314600I0J-175400D01*
G01*
X154630800Y-110665400D01*
G75*
G02*
X154455400Y-110840800I-175400J0D01*
G01*
X152754600Y-110840800D01*
G75*
G02*
X152579200Y-110665400I0J175400D01*
G01*
G37*
G36*
G01*
X152579200Y-111935400D02*
X152579200Y-111584600D01*
G75*
G02*
X152754600Y-111409200I175400J0D01*
G01*
X154455400Y-111409200D01*
G75*
G02*
X154630800Y-111584600I0J-175400D01*
G01*
X154630800Y-111935400D01*
G75*
G02*
X154455400Y-112110800I-175400J0D01*
G01*
X152754600Y-112110800D01*
G75*
G02*
X152579200Y-111935400I0J175400D01*
G01*
G37*
G36*
G01*
X147629200Y-111935400D02*
X147629200Y-111584600D01*
G75*
G02*
X147804600Y-111409200I175400J0D01*
G01*
X149505400Y-111409200D01*
G75*
G02*
X149680800Y-111584600I0J-175400D01*
G01*
X149680800Y-111935400D01*
G75*
G02*
X149505400Y-112110800I-175400J0D01*
G01*
X147804600Y-112110800D01*
G75*
G02*
X147629200Y-111935400I0J175400D01*
G01*
G37*
G36*
G01*
X147629200Y-110665400D02*
X147629200Y-110314600D01*
G75*
G02*
X147804600Y-110139200I175400J0D01*
G01*
X149505400Y-110139200D01*
G75*
G02*
X149680800Y-110314600I0J-175400D01*
G01*
X149680800Y-110665400D01*
G75*
G02*
X149505400Y-110840800I-175400J0D01*
G01*
X147804600Y-110840800D01*
G75*
G02*
X147629200Y-110665400I0J175400D01*
G01*
G37*
G36*
G01*
X147629200Y-109395400D02*
X147629200Y-109044600D01*
G75*
G02*
X147804600Y-108869200I175400J0D01*
G01*
X149505400Y-108869200D01*
G75*
G02*
X149680800Y-109044600I0J-175400D01*
G01*
X149680800Y-109395400D01*
G75*
G02*
X149505400Y-109570800I-175400J0D01*
G01*
X147804600Y-109570800D01*
G75*
G02*
X147629200Y-109395400I0J175400D01*
G01*
G37*
G36*
G01*
X147629200Y-108125400D02*
X147629200Y-107774600D01*
G75*
G02*
X147804600Y-107599200I175400J0D01*
G01*
X149505400Y-107599200D01*
G75*
G02*
X149680800Y-107774600I0J-175400D01*
G01*
X149680800Y-108125400D01*
G75*
G02*
X149505400Y-108300800I-175400J0D01*
G01*
X147804600Y-108300800D01*
G75*
G02*
X147629200Y-108125400I0J175400D01*
G01*
G37*
%TD*%
%TO.C,R6*%
G36*
G01*
X146970800Y-92357365D02*
X146970800Y-93316635D01*
G75*
G02*
X146699635Y-93587800I-271165J0D01*
G01*
X145940365Y-93587800D01*
G75*
G02*
X145669200Y-93316635I0J271165D01*
G01*
X145669200Y-92357365D01*
G75*
G02*
X145940365Y-92086200I271165J0D01*
G01*
X146699635Y-92086200D01*
G75*
G02*
X146970800Y-92357365I0J-271165D01*
G01*
G37*
G36*
G01*
X148970800Y-92357365D02*
X148970800Y-93316635D01*
G75*
G02*
X148699635Y-93587800I-271165J0D01*
G01*
X147940365Y-93587800D01*
G75*
G02*
X147669200Y-93316635I0J271165D01*
G01*
X147669200Y-92357365D01*
G75*
G02*
X147940365Y-92086200I271165J0D01*
G01*
X148699635Y-92086200D01*
G75*
G02*
X148970800Y-92357365I0J-271165D01*
G01*
G37*
%TD*%
%TO.C,R5*%
G36*
G01*
X164112365Y-112998200D02*
X165071635Y-112998200D01*
G75*
G02*
X165342800Y-113269365I0J-271165D01*
G01*
X165342800Y-114028635D01*
G75*
G02*
X165071635Y-114299800I-271165J0D01*
G01*
X164112365Y-114299800D01*
G75*
G02*
X163841200Y-114028635I0J271165D01*
G01*
X163841200Y-113269365D01*
G75*
G02*
X164112365Y-112998200I271165J0D01*
G01*
G37*
G36*
G01*
X164112365Y-110998200D02*
X165071635Y-110998200D01*
G75*
G02*
X165342800Y-111269365I0J-271165D01*
G01*
X165342800Y-112028635D01*
G75*
G02*
X165071635Y-112299800I-271165J0D01*
G01*
X164112365Y-112299800D01*
G75*
G02*
X163841200Y-112028635I0J271165D01*
G01*
X163841200Y-111269365D01*
G75*
G02*
X164112365Y-110998200I271165J0D01*
G01*
G37*
%TD*%
%TO.C,R4*%
G36*
G01*
X167160365Y-110982200D02*
X168119635Y-110982200D01*
G75*
G02*
X168390800Y-111253365I0J-271165D01*
G01*
X168390800Y-112012635D01*
G75*
G02*
X168119635Y-112283800I-271165J0D01*
G01*
X167160365Y-112283800D01*
G75*
G02*
X166889200Y-112012635I0J271165D01*
G01*
X166889200Y-111253365D01*
G75*
G02*
X167160365Y-110982200I271165J0D01*
G01*
G37*
G36*
G01*
X167160365Y-108982200D02*
X168119635Y-108982200D01*
G75*
G02*
X168390800Y-109253365I0J-271165D01*
G01*
X168390800Y-110012635D01*
G75*
G02*
X168119635Y-110283800I-271165J0D01*
G01*
X167160365Y-110283800D01*
G75*
G02*
X166889200Y-110012635I0J271165D01*
G01*
X166889200Y-109253365D01*
G75*
G02*
X167160365Y-108982200I271165J0D01*
G01*
G37*
%TD*%
%TO.C,R3*%
G36*
G01*
X159607200Y-111604635D02*
X159607200Y-110645365D01*
G75*
G02*
X159878365Y-110374200I271165J0D01*
G01*
X160637635Y-110374200D01*
G75*
G02*
X160908800Y-110645365I0J-271165D01*
G01*
X160908800Y-111604635D01*
G75*
G02*
X160637635Y-111875800I-271165J0D01*
G01*
X159878365Y-111875800D01*
G75*
G02*
X159607200Y-111604635I0J271165D01*
G01*
G37*
G36*
G01*
X157607200Y-111604635D02*
X157607200Y-110645365D01*
G75*
G02*
X157878365Y-110374200I271165J0D01*
G01*
X158637635Y-110374200D01*
G75*
G02*
X158908800Y-110645365I0J-271165D01*
G01*
X158908800Y-111604635D01*
G75*
G02*
X158637635Y-111875800I-271165J0D01*
G01*
X157878365Y-111875800D01*
G75*
G02*
X157607200Y-111604635I0J271165D01*
G01*
G37*
%TD*%
%TO.C,R2*%
G36*
G01*
X139982365Y-112744200D02*
X140941635Y-112744200D01*
G75*
G02*
X141212800Y-113015365I0J-271165D01*
G01*
X141212800Y-113774635D01*
G75*
G02*
X140941635Y-114045800I-271165J0D01*
G01*
X139982365Y-114045800D01*
G75*
G02*
X139711200Y-113774635I0J271165D01*
G01*
X139711200Y-113015365D01*
G75*
G02*
X139982365Y-112744200I271165J0D01*
G01*
G37*
G36*
G01*
X139982365Y-110744200D02*
X140941635Y-110744200D01*
G75*
G02*
X141212800Y-111015365I0J-271165D01*
G01*
X141212800Y-111774635D01*
G75*
G02*
X140941635Y-112045800I-271165J0D01*
G01*
X139982365Y-112045800D01*
G75*
G02*
X139711200Y-111774635I0J271165D01*
G01*
X139711200Y-111015365D01*
G75*
G02*
X139982365Y-110744200I271165J0D01*
G01*
G37*
%TD*%
%TO.C,R1*%
G36*
G01*
X137188365Y-110712200D02*
X138147635Y-110712200D01*
G75*
G02*
X138418800Y-110983365I0J-271165D01*
G01*
X138418800Y-111742635D01*
G75*
G02*
X138147635Y-112013800I-271165J0D01*
G01*
X137188365Y-112013800D01*
G75*
G02*
X136917200Y-111742635I0J271165D01*
G01*
X136917200Y-110983365D01*
G75*
G02*
X137188365Y-110712200I271165J0D01*
G01*
G37*
G36*
G01*
X137188365Y-108712200D02*
X138147635Y-108712200D01*
G75*
G02*
X138418800Y-108983365I0J-271165D01*
G01*
X138418800Y-109742635D01*
G75*
G02*
X138147635Y-110013800I-271165J0D01*
G01*
X137188365Y-110013800D01*
G75*
G02*
X136917200Y-109742635I0J271165D01*
G01*
X136917200Y-108983365D01*
G75*
G02*
X137188365Y-108712200I271165J0D01*
G01*
G37*
%TD*%
%TO.C,L1*%
G36*
G01*
X159088000Y-92723800D02*
X156888000Y-92723800D01*
G75*
G02*
X156837200Y-92673000I0J50800D01*
G01*
X156837200Y-91173000D01*
G75*
G02*
X156888000Y-91122200I50800J0D01*
G01*
X159088000Y-91122200D01*
G75*
G02*
X159138800Y-91173000I0J-50800D01*
G01*
X159138800Y-92673000D01*
G75*
G02*
X159088000Y-92723800I-50800J0D01*
G01*
G37*
G36*
G01*
X159088000Y-99123800D02*
X156888000Y-99123800D01*
G75*
G02*
X156837200Y-99073000I0J50800D01*
G01*
X156837200Y-97573000D01*
G75*
G02*
X156888000Y-97522200I50800J0D01*
G01*
X159088000Y-97522200D01*
G75*
G02*
X159138800Y-97573000I0J-50800D01*
G01*
X159138800Y-99073000D01*
G75*
G02*
X159088000Y-99123800I-50800J0D01*
G01*
G37*
%TD*%
D12*
%TO.C,J2*%
X163576000Y-104775000D03*
G36*
G01*
X165266000Y-103874200D02*
X166966000Y-103874200D01*
G75*
G02*
X167016800Y-103925000I0J-50800D01*
G01*
X167016800Y-105625000D01*
G75*
G02*
X166966000Y-105675800I-50800J0D01*
G01*
X165266000Y-105675800D01*
G75*
G02*
X165215200Y-105625000I0J50800D01*
G01*
X165215200Y-103925000D01*
G75*
G02*
X165266000Y-103874200I50800J0D01*
G01*
G37*
%TD*%
%TO.C,J1*%
X127762000Y-115951000D03*
G36*
G01*
X126861200Y-114261000D02*
X126861200Y-112561000D01*
G75*
G02*
X126912000Y-112510200I50800J0D01*
G01*
X128612000Y-112510200D01*
G75*
G02*
X128662800Y-112561000I0J-50800D01*
G01*
X128662800Y-114261000D01*
G75*
G02*
X128612000Y-114311800I-50800J0D01*
G01*
X126912000Y-114311800D01*
G75*
G02*
X126861200Y-114261000I0J50800D01*
G01*
G37*
%TD*%
%TO.C,D2*%
G36*
G01*
X146566900Y-96460800D02*
X146041100Y-96460800D01*
G75*
G02*
X145778200Y-96197900I0J262900D01*
G01*
X145778200Y-95572100D01*
G75*
G02*
X146041100Y-95309200I262900J0D01*
G01*
X146566900Y-95309200D01*
G75*
G02*
X146829800Y-95572100I0J-262900D01*
G01*
X146829800Y-96197900D01*
G75*
G02*
X146566900Y-96460800I-262900J0D01*
G01*
G37*
G36*
G01*
X146566900Y-98210800D02*
X146041100Y-98210800D01*
G75*
G02*
X145778200Y-97947900I0J262900D01*
G01*
X145778200Y-97322100D01*
G75*
G02*
X146041100Y-97059200I262900J0D01*
G01*
X146566900Y-97059200D01*
G75*
G02*
X146829800Y-97322100I0J-262900D01*
G01*
X146829800Y-97947900D01*
G75*
G02*
X146566900Y-98210800I-262900J0D01*
G01*
G37*
%TD*%
%TO.C,D1*%
G36*
G01*
X154134800Y-101339000D02*
X154134800Y-103639000D01*
G75*
G02*
X154084000Y-103689800I-50800J0D01*
G01*
X150584000Y-103689800D01*
G75*
G02*
X150533200Y-103639000I0J50800D01*
G01*
X150533200Y-101339000D01*
G75*
G02*
X150584000Y-101288200I50800J0D01*
G01*
X154084000Y-101288200D01*
G75*
G02*
X154134800Y-101339000I0J-50800D01*
G01*
G37*
G36*
G01*
X159534800Y-101339000D02*
X159534800Y-103639000D01*
G75*
G02*
X159484000Y-103689800I-50800J0D01*
G01*
X155984000Y-103689800D01*
G75*
G02*
X155933200Y-103639000I0J50800D01*
G01*
X155933200Y-101339000D01*
G75*
G02*
X155984000Y-101288200I50800J0D01*
G01*
X159484000Y-101288200D01*
G75*
G02*
X159534800Y-101339000I0J-50800D01*
G01*
G37*
%TD*%
%TO.C,C9*%
G36*
G01*
X148593817Y-97046200D02*
X149602183Y-97046200D01*
G75*
G02*
X149873800Y-97317817I0J-271617D01*
G01*
X149873800Y-98051183D01*
G75*
G02*
X149602183Y-98322800I-271617J0D01*
G01*
X148593817Y-98322800D01*
G75*
G02*
X148322200Y-98051183I0J271617D01*
G01*
X148322200Y-97317817D01*
G75*
G02*
X148593817Y-97046200I271617J0D01*
G01*
G37*
G36*
G01*
X148593817Y-94971200D02*
X149602183Y-94971200D01*
G75*
G02*
X149873800Y-95242817I0J-271617D01*
G01*
X149873800Y-95976183D01*
G75*
G02*
X149602183Y-96247800I-271617J0D01*
G01*
X148593817Y-96247800D01*
G75*
G02*
X148322200Y-95976183I0J271617D01*
G01*
X148322200Y-95242817D01*
G75*
G02*
X148593817Y-94971200I271617J0D01*
G01*
G37*
%TD*%
%TO.C,C8*%
G36*
G01*
X156472900Y-109935300D02*
X155947100Y-109935300D01*
G75*
G02*
X155684200Y-109672400I0J262900D01*
G01*
X155684200Y-109021600D01*
G75*
G02*
X155947100Y-108758700I262900J0D01*
G01*
X156472900Y-108758700D01*
G75*
G02*
X156735800Y-109021600I0J-262900D01*
G01*
X156735800Y-109672400D01*
G75*
G02*
X156472900Y-109935300I-262900J0D01*
G01*
G37*
G36*
G01*
X156472900Y-111660300D02*
X155947100Y-111660300D01*
G75*
G02*
X155684200Y-111397400I0J262900D01*
G01*
X155684200Y-110746600D01*
G75*
G02*
X155947100Y-110483700I262900J0D01*
G01*
X156472900Y-110483700D01*
G75*
G02*
X156735800Y-110746600I0J-262900D01*
G01*
X156735800Y-111397400D01*
G75*
G02*
X156472900Y-111660300I-262900J0D01*
G01*
G37*
%TD*%
%TO.C,C7*%
G36*
G01*
X151387817Y-97067700D02*
X152396183Y-97067700D01*
G75*
G02*
X152667800Y-97339317I0J-271617D01*
G01*
X152667800Y-98072683D01*
G75*
G02*
X152396183Y-98344300I-271617J0D01*
G01*
X151387817Y-98344300D01*
G75*
G02*
X151116200Y-98072683I0J271617D01*
G01*
X151116200Y-97339317D01*
G75*
G02*
X151387817Y-97067700I271617J0D01*
G01*
G37*
G36*
G01*
X151387817Y-94992700D02*
X152396183Y-94992700D01*
G75*
G02*
X152667800Y-95264317I0J-271617D01*
G01*
X152667800Y-95997683D01*
G75*
G02*
X152396183Y-96269300I-271617J0D01*
G01*
X151387817Y-96269300D01*
G75*
G02*
X151116200Y-95997683I0J271617D01*
G01*
X151116200Y-95264317D01*
G75*
G02*
X151387817Y-94992700I271617J0D01*
G01*
G37*
%TD*%
%TO.C,C6*%
G36*
G01*
X162568900Y-109834800D02*
X162043100Y-109834800D01*
G75*
G02*
X161780200Y-109571900I0J262900D01*
G01*
X161780200Y-108921100D01*
G75*
G02*
X162043100Y-108658200I262900J0D01*
G01*
X162568900Y-108658200D01*
G75*
G02*
X162831800Y-108921100I0J-262900D01*
G01*
X162831800Y-109571900D01*
G75*
G02*
X162568900Y-109834800I-262900J0D01*
G01*
G37*
G36*
G01*
X162568900Y-111559800D02*
X162043100Y-111559800D01*
G75*
G02*
X161780200Y-111296900I0J262900D01*
G01*
X161780200Y-110646100D01*
G75*
G02*
X162043100Y-110383200I262900J0D01*
G01*
X162568900Y-110383200D01*
G75*
G02*
X162831800Y-110646100I0J-262900D01*
G01*
X162831800Y-111296900D01*
G75*
G02*
X162568900Y-111559800I-262900J0D01*
G01*
G37*
%TD*%
%TO.C,C5*%
G36*
G01*
X145037817Y-113069700D02*
X146046183Y-113069700D01*
G75*
G02*
X146317800Y-113341317I0J-271617D01*
G01*
X146317800Y-114074683D01*
G75*
G02*
X146046183Y-114346300I-271617J0D01*
G01*
X145037817Y-114346300D01*
G75*
G02*
X144766200Y-114074683I0J271617D01*
G01*
X144766200Y-113341317D01*
G75*
G02*
X145037817Y-113069700I271617J0D01*
G01*
G37*
G36*
G01*
X145037817Y-110994700D02*
X146046183Y-110994700D01*
G75*
G02*
X146317800Y-111266317I0J-271617D01*
G01*
X146317800Y-111999683D01*
G75*
G02*
X146046183Y-112271300I-271617J0D01*
G01*
X145037817Y-112271300D01*
G75*
G02*
X144766200Y-111999683I0J271617D01*
G01*
X144766200Y-111266317D01*
G75*
G02*
X145037817Y-110994700I271617J0D01*
G01*
G37*
%TD*%
%TO.C,C4*%
G36*
G01*
X155327300Y-105782100D02*
X155327300Y-106307900D01*
G75*
G02*
X155064400Y-106570800I-262900J0D01*
G01*
X154413600Y-106570800D01*
G75*
G02*
X154150700Y-106307900I0J262900D01*
G01*
X154150700Y-105782100D01*
G75*
G02*
X154413600Y-105519200I262900J0D01*
G01*
X155064400Y-105519200D01*
G75*
G02*
X155327300Y-105782100I0J-262900D01*
G01*
G37*
G36*
G01*
X157052300Y-105782100D02*
X157052300Y-106307900D01*
G75*
G02*
X156789400Y-106570800I-262900J0D01*
G01*
X156138600Y-106570800D01*
G75*
G02*
X155875700Y-106307900I0J262900D01*
G01*
X155875700Y-105782100D01*
G75*
G02*
X156138600Y-105519200I262900J0D01*
G01*
X156789400Y-105519200D01*
G75*
G02*
X157052300Y-105782100I0J-262900D01*
G01*
G37*
%TD*%
%TO.C,C3*%
G36*
G01*
X145911632Y-106758300D02*
X143648368Y-106758300D01*
G75*
G02*
X143379200Y-106489132I0J269168D01*
G01*
X143379200Y-105600868D01*
G75*
G02*
X143648368Y-105331700I269168J0D01*
G01*
X145911632Y-105331700D01*
G75*
G02*
X146180800Y-105600868I0J-269168D01*
G01*
X146180800Y-106489132D01*
G75*
G02*
X145911632Y-106758300I-269168J0D01*
G01*
G37*
G36*
G01*
X145911632Y-109883300D02*
X143648368Y-109883300D01*
G75*
G02*
X143379200Y-109614132I0J269168D01*
G01*
X143379200Y-108725868D01*
G75*
G02*
X143648368Y-108456700I269168J0D01*
G01*
X145911632Y-108456700D01*
G75*
G02*
X146180800Y-108725868I0J-269168D01*
G01*
X146180800Y-109614132D01*
G75*
G02*
X145911632Y-109883300I-269168J0D01*
G01*
G37*
%TD*%
%TO.C,C2*%
G36*
G01*
X142101632Y-106758300D02*
X139838368Y-106758300D01*
G75*
G02*
X139569200Y-106489132I0J269168D01*
G01*
X139569200Y-105600868D01*
G75*
G02*
X139838368Y-105331700I269168J0D01*
G01*
X142101632Y-105331700D01*
G75*
G02*
X142370800Y-105600868I0J-269168D01*
G01*
X142370800Y-106489132D01*
G75*
G02*
X142101632Y-106758300I-269168J0D01*
G01*
G37*
G36*
G01*
X142101632Y-109883300D02*
X139838368Y-109883300D01*
G75*
G02*
X139569200Y-109614132I0J269168D01*
G01*
X139569200Y-108725868D01*
G75*
G02*
X139838368Y-108456700I269168J0D01*
G01*
X142101632Y-108456700D01*
G75*
G02*
X142370800Y-108725868I0J-269168D01*
G01*
X142370800Y-109614132D01*
G75*
G02*
X142101632Y-109883300I-269168J0D01*
G01*
G37*
%TD*%
D13*
%TO.C,C1*%
X132334000Y-106339000D03*
G36*
G01*
X133134000Y-109689800D02*
X131534000Y-109689800D01*
G75*
G02*
X131483200Y-109639000I0J50800D01*
G01*
X131483200Y-108039000D01*
G75*
G02*
X131534000Y-107988200I50800J0D01*
G01*
X133134000Y-107988200D01*
G75*
G02*
X133184800Y-108039000I0J-50800D01*
G01*
X133184800Y-109639000D01*
G75*
G02*
X133134000Y-109689800I-50800J0D01*
G01*
G37*
%TD*%
M02*
