%TF.GenerationSoftware,KiCad,Pcbnew,(5.1.12)-1*%
%TF.CreationDate,2022-02-19T00:27:12-08:00*%
%TF.ProjectId,powersupply,706f7765-7273-4757-9070-6c792e6b6963,1*%
%TF.SameCoordinates,Original*%
%TF.FileFunction,Copper,L1,Top*%
%TF.FilePolarity,Positive*%
%FSLAX46Y46*%
G04 Gerber Fmt 4.6, Leading zero omitted, Abs format (unit mm)*
G04 Created by KiCad (PCBNEW (5.1.12)-1) date 2022-02-19 00:27:12*
%MOMM*%
%LPD*%
G01*
G04 APERTURE LIST*
%TA.AperFunction,ComponentPad*%
%ADD10C,4.399999*%
%TD*%
%TA.AperFunction,SMDPad,CuDef*%
%ADD11C,1.500000*%
%TD*%
%TA.AperFunction,SMDPad,CuDef*%
%ADD12R,2.200000X1.500000*%
%TD*%
%TA.AperFunction,ComponentPad*%
%ADD13O,1.700000X1.700000*%
%TD*%
%TA.AperFunction,ComponentPad*%
%ADD14R,1.700000X1.700000*%
%TD*%
%TA.AperFunction,SMDPad,CuDef*%
%ADD15R,3.500000X2.300000*%
%TD*%
%TA.AperFunction,ComponentPad*%
%ADD16C,1.600000*%
%TD*%
%TA.AperFunction,ComponentPad*%
%ADD17R,1.600000X1.600000*%
%TD*%
%TA.AperFunction,ViaPad*%
%ADD18C,0.508000*%
%TD*%
%TA.AperFunction,Conductor*%
%ADD19C,0.152400*%
%TD*%
%TA.AperFunction,Conductor*%
%ADD20C,0.254000*%
%TD*%
%TA.AperFunction,Conductor*%
%ADD21C,0.100000*%
%TD*%
G04 APERTURE END LIST*
D10*
%TO.P,REF\u002A\u002A,1*%
%TO.N,GND*%
X171450000Y-117475000D03*
%TD*%
%TO.P,REF\u002A\u002A,1*%
%TO.N,GND*%
X121920000Y-117475000D03*
%TD*%
%TO.P,REF\u002A\u002A,1*%
%TO.N,GND*%
X121920000Y-92075000D03*
%TD*%
%TO.P,REF\u002A\u002A,1*%
%TO.N,GND*%
X171450000Y-92075000D03*
%TD*%
D11*
%TO.P,TP5,1*%
%TO.N,Net-(C7-Pad1)*%
X150876000Y-92837000D03*
%TD*%
%TO.P,TP4,1*%
%TO.N,Net-(R4-Pad2)*%
X164846000Y-109093000D03*
%TD*%
%TO.P,TP3,1*%
%TO.N,Net-(C4-Pad1)*%
X159004000Y-107061000D03*
%TD*%
%TO.P,TP2,1*%
%TO.N,Net-(C1-Pad1)*%
X127762000Y-109601000D03*
%TD*%
%TO.P,TP1,1*%
%TO.N,GND*%
X135890000Y-114935000D03*
%TD*%
%TO.P,U1,8*%
%TO.N,Net-(C4-Pad1)*%
%TA.AperFunction,SMDPad,CuDef*%
G36*
G01*
X152630000Y-108100000D02*
X152630000Y-107800000D01*
G75*
G02*
X152780000Y-107650000I150000J0D01*
G01*
X154430000Y-107650000D01*
G75*
G02*
X154580000Y-107800000I0J-150000D01*
G01*
X154580000Y-108100000D01*
G75*
G02*
X154430000Y-108250000I-150000J0D01*
G01*
X152780000Y-108250000D01*
G75*
G02*
X152630000Y-108100000I0J150000D01*
G01*
G37*
%TD.AperFunction*%
%TO.P,U1,7*%
%TO.N,GND*%
%TA.AperFunction,SMDPad,CuDef*%
G36*
G01*
X152630000Y-109370000D02*
X152630000Y-109070000D01*
G75*
G02*
X152780000Y-108920000I150000J0D01*
G01*
X154430000Y-108920000D01*
G75*
G02*
X154580000Y-109070000I0J-150000D01*
G01*
X154580000Y-109370000D01*
G75*
G02*
X154430000Y-109520000I-150000J0D01*
G01*
X152780000Y-109520000D01*
G75*
G02*
X152630000Y-109370000I0J150000D01*
G01*
G37*
%TD.AperFunction*%
%TO.P,U1,6*%
%TO.N,Net-(C8-Pad1)*%
%TA.AperFunction,SMDPad,CuDef*%
G36*
G01*
X152630000Y-110640000D02*
X152630000Y-110340000D01*
G75*
G02*
X152780000Y-110190000I150000J0D01*
G01*
X154430000Y-110190000D01*
G75*
G02*
X154580000Y-110340000I0J-150000D01*
G01*
X154580000Y-110640000D01*
G75*
G02*
X154430000Y-110790000I-150000J0D01*
G01*
X152780000Y-110790000D01*
G75*
G02*
X152630000Y-110640000I0J150000D01*
G01*
G37*
%TD.AperFunction*%
%TO.P,U1,5*%
%TO.N,Net-(R4-Pad2)*%
%TA.AperFunction,SMDPad,CuDef*%
G36*
G01*
X152630000Y-111910000D02*
X152630000Y-111610000D01*
G75*
G02*
X152780000Y-111460000I150000J0D01*
G01*
X154430000Y-111460000D01*
G75*
G02*
X154580000Y-111610000I0J-150000D01*
G01*
X154580000Y-111910000D01*
G75*
G02*
X154430000Y-112060000I-150000J0D01*
G01*
X152780000Y-112060000D01*
G75*
G02*
X152630000Y-111910000I0J150000D01*
G01*
G37*
%TD.AperFunction*%
%TO.P,U1,4*%
%TO.N,Net-(C5-Pad1)*%
%TA.AperFunction,SMDPad,CuDef*%
G36*
G01*
X147680000Y-111910000D02*
X147680000Y-111610000D01*
G75*
G02*
X147830000Y-111460000I150000J0D01*
G01*
X149480000Y-111460000D01*
G75*
G02*
X149630000Y-111610000I0J-150000D01*
G01*
X149630000Y-111910000D01*
G75*
G02*
X149480000Y-112060000I-150000J0D01*
G01*
X147830000Y-112060000D01*
G75*
G02*
X147680000Y-111910000I0J150000D01*
G01*
G37*
%TD.AperFunction*%
%TO.P,U1,3*%
%TO.N,Net-(R1-Pad2)*%
%TA.AperFunction,SMDPad,CuDef*%
G36*
G01*
X147680000Y-110640000D02*
X147680000Y-110340000D01*
G75*
G02*
X147830000Y-110190000I150000J0D01*
G01*
X149480000Y-110190000D01*
G75*
G02*
X149630000Y-110340000I0J-150000D01*
G01*
X149630000Y-110640000D01*
G75*
G02*
X149480000Y-110790000I-150000J0D01*
G01*
X147830000Y-110790000D01*
G75*
G02*
X147680000Y-110640000I0J150000D01*
G01*
G37*
%TD.AperFunction*%
%TO.P,U1,2*%
%TO.N,Net-(C1-Pad1)*%
%TA.AperFunction,SMDPad,CuDef*%
G36*
G01*
X147680000Y-109370000D02*
X147680000Y-109070000D01*
G75*
G02*
X147830000Y-108920000I150000J0D01*
G01*
X149480000Y-108920000D01*
G75*
G02*
X149630000Y-109070000I0J-150000D01*
G01*
X149630000Y-109370000D01*
G75*
G02*
X149480000Y-109520000I-150000J0D01*
G01*
X147830000Y-109520000D01*
G75*
G02*
X147680000Y-109370000I0J150000D01*
G01*
G37*
%TD.AperFunction*%
%TO.P,U1,1*%
%TO.N,Net-(C4-Pad2)*%
%TA.AperFunction,SMDPad,CuDef*%
G36*
G01*
X147680000Y-108100000D02*
X147680000Y-107800000D01*
G75*
G02*
X147830000Y-107650000I150000J0D01*
G01*
X149480000Y-107650000D01*
G75*
G02*
X149630000Y-107800000I0J-150000D01*
G01*
X149630000Y-108100000D01*
G75*
G02*
X149480000Y-108250000I-150000J0D01*
G01*
X147830000Y-108250000D01*
G75*
G02*
X147680000Y-108100000I0J150000D01*
G01*
G37*
%TD.AperFunction*%
%TD*%
%TO.P,R6,2*%
%TO.N,Net-(D2-Pad2)*%
%TA.AperFunction,SMDPad,CuDef*%
G36*
G01*
X146920000Y-92386999D02*
X146920000Y-93287001D01*
G75*
G02*
X146670001Y-93537000I-249999J0D01*
G01*
X145969999Y-93537000D01*
G75*
G02*
X145720000Y-93287001I0J249999D01*
G01*
X145720000Y-92386999D01*
G75*
G02*
X145969999Y-92137000I249999J0D01*
G01*
X146670001Y-92137000D01*
G75*
G02*
X146920000Y-92386999I0J-249999D01*
G01*
G37*
%TD.AperFunction*%
%TO.P,R6,1*%
%TO.N,Net-(C7-Pad1)*%
%TA.AperFunction,SMDPad,CuDef*%
G36*
G01*
X148920000Y-92386999D02*
X148920000Y-93287001D01*
G75*
G02*
X148670001Y-93537000I-249999J0D01*
G01*
X147969999Y-93537000D01*
G75*
G02*
X147720000Y-93287001I0J249999D01*
G01*
X147720000Y-92386999D01*
G75*
G02*
X147969999Y-92137000I249999J0D01*
G01*
X148670001Y-92137000D01*
G75*
G02*
X148920000Y-92386999I0J-249999D01*
G01*
G37*
%TD.AperFunction*%
%TD*%
%TO.P,R5,2*%
%TO.N,GND*%
%TA.AperFunction,SMDPad,CuDef*%
G36*
G01*
X164141999Y-113049000D02*
X165042001Y-113049000D01*
G75*
G02*
X165292000Y-113298999I0J-249999D01*
G01*
X165292000Y-113999001D01*
G75*
G02*
X165042001Y-114249000I-249999J0D01*
G01*
X164141999Y-114249000D01*
G75*
G02*
X163892000Y-113999001I0J249999D01*
G01*
X163892000Y-113298999D01*
G75*
G02*
X164141999Y-113049000I249999J0D01*
G01*
G37*
%TD.AperFunction*%
%TO.P,R5,1*%
%TO.N,Net-(R4-Pad2)*%
%TA.AperFunction,SMDPad,CuDef*%
G36*
G01*
X164141999Y-111049000D02*
X165042001Y-111049000D01*
G75*
G02*
X165292000Y-111298999I0J-249999D01*
G01*
X165292000Y-111999001D01*
G75*
G02*
X165042001Y-112249000I-249999J0D01*
G01*
X164141999Y-112249000D01*
G75*
G02*
X163892000Y-111999001I0J249999D01*
G01*
X163892000Y-111298999D01*
G75*
G02*
X164141999Y-111049000I249999J0D01*
G01*
G37*
%TD.AperFunction*%
%TD*%
%TO.P,R4,2*%
%TO.N,Net-(R4-Pad2)*%
%TA.AperFunction,SMDPad,CuDef*%
G36*
G01*
X167189999Y-111033000D02*
X168090001Y-111033000D01*
G75*
G02*
X168340000Y-111282999I0J-249999D01*
G01*
X168340000Y-111983001D01*
G75*
G02*
X168090001Y-112233000I-249999J0D01*
G01*
X167189999Y-112233000D01*
G75*
G02*
X166940000Y-111983001I0J249999D01*
G01*
X166940000Y-111282999D01*
G75*
G02*
X167189999Y-111033000I249999J0D01*
G01*
G37*
%TD.AperFunction*%
%TO.P,R4,1*%
%TO.N,Net-(C7-Pad1)*%
%TA.AperFunction,SMDPad,CuDef*%
G36*
G01*
X167189999Y-109033000D02*
X168090001Y-109033000D01*
G75*
G02*
X168340000Y-109282999I0J-249999D01*
G01*
X168340000Y-109983001D01*
G75*
G02*
X168090001Y-110233000I-249999J0D01*
G01*
X167189999Y-110233000D01*
G75*
G02*
X166940000Y-109983001I0J249999D01*
G01*
X166940000Y-109282999D01*
G75*
G02*
X167189999Y-109033000I249999J0D01*
G01*
G37*
%TD.AperFunction*%
%TD*%
%TO.P,R3,2*%
%TO.N,Net-(C6-Pad1)*%
%TA.AperFunction,SMDPad,CuDef*%
G36*
G01*
X159658000Y-111575001D02*
X159658000Y-110674999D01*
G75*
G02*
X159907999Y-110425000I249999J0D01*
G01*
X160608001Y-110425000D01*
G75*
G02*
X160858000Y-110674999I0J-249999D01*
G01*
X160858000Y-111575001D01*
G75*
G02*
X160608001Y-111825000I-249999J0D01*
G01*
X159907999Y-111825000D01*
G75*
G02*
X159658000Y-111575001I0J249999D01*
G01*
G37*
%TD.AperFunction*%
%TO.P,R3,1*%
%TO.N,Net-(C8-Pad1)*%
%TA.AperFunction,SMDPad,CuDef*%
G36*
G01*
X157658000Y-111575001D02*
X157658000Y-110674999D01*
G75*
G02*
X157907999Y-110425000I249999J0D01*
G01*
X158608001Y-110425000D01*
G75*
G02*
X158858000Y-110674999I0J-249999D01*
G01*
X158858000Y-111575001D01*
G75*
G02*
X158608001Y-111825000I-249999J0D01*
G01*
X157907999Y-111825000D01*
G75*
G02*
X157658000Y-111575001I0J249999D01*
G01*
G37*
%TD.AperFunction*%
%TD*%
%TO.P,R2,2*%
%TO.N,GND*%
%TA.AperFunction,SMDPad,CuDef*%
G36*
G01*
X140011999Y-112795000D02*
X140912001Y-112795000D01*
G75*
G02*
X141162000Y-113044999I0J-249999D01*
G01*
X141162000Y-113745001D01*
G75*
G02*
X140912001Y-113995000I-249999J0D01*
G01*
X140011999Y-113995000D01*
G75*
G02*
X139762000Y-113745001I0J249999D01*
G01*
X139762000Y-113044999D01*
G75*
G02*
X140011999Y-112795000I249999J0D01*
G01*
G37*
%TD.AperFunction*%
%TO.P,R2,1*%
%TO.N,Net-(R1-Pad2)*%
%TA.AperFunction,SMDPad,CuDef*%
G36*
G01*
X140011999Y-110795000D02*
X140912001Y-110795000D01*
G75*
G02*
X141162000Y-111044999I0J-249999D01*
G01*
X141162000Y-111745001D01*
G75*
G02*
X140912001Y-111995000I-249999J0D01*
G01*
X140011999Y-111995000D01*
G75*
G02*
X139762000Y-111745001I0J249999D01*
G01*
X139762000Y-111044999D01*
G75*
G02*
X140011999Y-110795000I249999J0D01*
G01*
G37*
%TD.AperFunction*%
%TD*%
%TO.P,R1,2*%
%TO.N,Net-(R1-Pad2)*%
%TA.AperFunction,SMDPad,CuDef*%
G36*
G01*
X137217999Y-110763000D02*
X138118001Y-110763000D01*
G75*
G02*
X138368000Y-111012999I0J-249999D01*
G01*
X138368000Y-111713001D01*
G75*
G02*
X138118001Y-111963000I-249999J0D01*
G01*
X137217999Y-111963000D01*
G75*
G02*
X136968000Y-111713001I0J249999D01*
G01*
X136968000Y-111012999D01*
G75*
G02*
X137217999Y-110763000I249999J0D01*
G01*
G37*
%TD.AperFunction*%
%TO.P,R1,1*%
%TO.N,Net-(C1-Pad1)*%
%TA.AperFunction,SMDPad,CuDef*%
G36*
G01*
X137217999Y-108763000D02*
X138118001Y-108763000D01*
G75*
G02*
X138368000Y-109012999I0J-249999D01*
G01*
X138368000Y-109713001D01*
G75*
G02*
X138118001Y-109963000I-249999J0D01*
G01*
X137217999Y-109963000D01*
G75*
G02*
X136968000Y-109713001I0J249999D01*
G01*
X136968000Y-109012999D01*
G75*
G02*
X137217999Y-108763000I249999J0D01*
G01*
G37*
%TD.AperFunction*%
%TD*%
D12*
%TO.P,L1,2*%
%TO.N,Net-(C7-Pad1)*%
X157988000Y-91923000D03*
%TO.P,L1,1*%
%TO.N,Net-(C4-Pad1)*%
X157988000Y-98323000D03*
%TD*%
D13*
%TO.P,J2,2*%
%TO.N,GND*%
X163576000Y-104775000D03*
D14*
%TO.P,J2,1*%
%TO.N,Net-(C7-Pad1)*%
X166116000Y-104775000D03*
%TD*%
D13*
%TO.P,J1,2*%
%TO.N,GND*%
X127762000Y-115951000D03*
D14*
%TO.P,J1,1*%
%TO.N,Net-(C1-Pad1)*%
X127762000Y-113411000D03*
%TD*%
%TO.P,D2,2*%
%TO.N,Net-(D2-Pad2)*%
%TA.AperFunction,SMDPad,CuDef*%
G36*
G01*
X146541500Y-96410000D02*
X146066500Y-96410000D01*
G75*
G02*
X145829000Y-96172500I0J237500D01*
G01*
X145829000Y-95597500D01*
G75*
G02*
X146066500Y-95360000I237500J0D01*
G01*
X146541500Y-95360000D01*
G75*
G02*
X146779000Y-95597500I0J-237500D01*
G01*
X146779000Y-96172500D01*
G75*
G02*
X146541500Y-96410000I-237500J0D01*
G01*
G37*
%TD.AperFunction*%
%TO.P,D2,1*%
%TO.N,GND*%
%TA.AperFunction,SMDPad,CuDef*%
G36*
G01*
X146541500Y-98160000D02*
X146066500Y-98160000D01*
G75*
G02*
X145829000Y-97922500I0J237500D01*
G01*
X145829000Y-97347500D01*
G75*
G02*
X146066500Y-97110000I237500J0D01*
G01*
X146541500Y-97110000D01*
G75*
G02*
X146779000Y-97347500I0J-237500D01*
G01*
X146779000Y-97922500D01*
G75*
G02*
X146541500Y-98160000I-237500J0D01*
G01*
G37*
%TD.AperFunction*%
%TD*%
D15*
%TO.P,D1,2*%
%TO.N,GND*%
X152334000Y-102489000D03*
%TO.P,D1,1*%
%TO.N,Net-(C4-Pad1)*%
X157734000Y-102489000D03*
%TD*%
%TO.P,C9,2*%
%TO.N,GND*%
%TA.AperFunction,SMDPad,CuDef*%
G36*
G01*
X148623000Y-97097000D02*
X149573000Y-97097000D01*
G75*
G02*
X149823000Y-97347000I0J-250000D01*
G01*
X149823000Y-98022000D01*
G75*
G02*
X149573000Y-98272000I-250000J0D01*
G01*
X148623000Y-98272000D01*
G75*
G02*
X148373000Y-98022000I0J250000D01*
G01*
X148373000Y-97347000D01*
G75*
G02*
X148623000Y-97097000I250000J0D01*
G01*
G37*
%TD.AperFunction*%
%TO.P,C9,1*%
%TO.N,Net-(C7-Pad1)*%
%TA.AperFunction,SMDPad,CuDef*%
G36*
G01*
X148623000Y-95022000D02*
X149573000Y-95022000D01*
G75*
G02*
X149823000Y-95272000I0J-250000D01*
G01*
X149823000Y-95947000D01*
G75*
G02*
X149573000Y-96197000I-250000J0D01*
G01*
X148623000Y-96197000D01*
G75*
G02*
X148373000Y-95947000I0J250000D01*
G01*
X148373000Y-95272000D01*
G75*
G02*
X148623000Y-95022000I250000J0D01*
G01*
G37*
%TD.AperFunction*%
%TD*%
%TO.P,C8,2*%
%TO.N,GND*%
%TA.AperFunction,SMDPad,CuDef*%
G36*
G01*
X156447500Y-109884500D02*
X155972500Y-109884500D01*
G75*
G02*
X155735000Y-109647000I0J237500D01*
G01*
X155735000Y-109047000D01*
G75*
G02*
X155972500Y-108809500I237500J0D01*
G01*
X156447500Y-108809500D01*
G75*
G02*
X156685000Y-109047000I0J-237500D01*
G01*
X156685000Y-109647000D01*
G75*
G02*
X156447500Y-109884500I-237500J0D01*
G01*
G37*
%TD.AperFunction*%
%TO.P,C8,1*%
%TO.N,Net-(C8-Pad1)*%
%TA.AperFunction,SMDPad,CuDef*%
G36*
G01*
X156447500Y-111609500D02*
X155972500Y-111609500D01*
G75*
G02*
X155735000Y-111372000I0J237500D01*
G01*
X155735000Y-110772000D01*
G75*
G02*
X155972500Y-110534500I237500J0D01*
G01*
X156447500Y-110534500D01*
G75*
G02*
X156685000Y-110772000I0J-237500D01*
G01*
X156685000Y-111372000D01*
G75*
G02*
X156447500Y-111609500I-237500J0D01*
G01*
G37*
%TD.AperFunction*%
%TD*%
%TO.P,C7,2*%
%TO.N,GND*%
%TA.AperFunction,SMDPad,CuDef*%
G36*
G01*
X151417000Y-97118500D02*
X152367000Y-97118500D01*
G75*
G02*
X152617000Y-97368500I0J-250000D01*
G01*
X152617000Y-98043500D01*
G75*
G02*
X152367000Y-98293500I-250000J0D01*
G01*
X151417000Y-98293500D01*
G75*
G02*
X151167000Y-98043500I0J250000D01*
G01*
X151167000Y-97368500D01*
G75*
G02*
X151417000Y-97118500I250000J0D01*
G01*
G37*
%TD.AperFunction*%
%TO.P,C7,1*%
%TO.N,Net-(C7-Pad1)*%
%TA.AperFunction,SMDPad,CuDef*%
G36*
G01*
X151417000Y-95043500D02*
X152367000Y-95043500D01*
G75*
G02*
X152617000Y-95293500I0J-250000D01*
G01*
X152617000Y-95968500D01*
G75*
G02*
X152367000Y-96218500I-250000J0D01*
G01*
X151417000Y-96218500D01*
G75*
G02*
X151167000Y-95968500I0J250000D01*
G01*
X151167000Y-95293500D01*
G75*
G02*
X151417000Y-95043500I250000J0D01*
G01*
G37*
%TD.AperFunction*%
%TD*%
%TO.P,C6,2*%
%TO.N,GND*%
%TA.AperFunction,SMDPad,CuDef*%
G36*
G01*
X162543500Y-109784000D02*
X162068500Y-109784000D01*
G75*
G02*
X161831000Y-109546500I0J237500D01*
G01*
X161831000Y-108946500D01*
G75*
G02*
X162068500Y-108709000I237500J0D01*
G01*
X162543500Y-108709000D01*
G75*
G02*
X162781000Y-108946500I0J-237500D01*
G01*
X162781000Y-109546500D01*
G75*
G02*
X162543500Y-109784000I-237500J0D01*
G01*
G37*
%TD.AperFunction*%
%TO.P,C6,1*%
%TO.N,Net-(C6-Pad1)*%
%TA.AperFunction,SMDPad,CuDef*%
G36*
G01*
X162543500Y-111509000D02*
X162068500Y-111509000D01*
G75*
G02*
X161831000Y-111271500I0J237500D01*
G01*
X161831000Y-110671500D01*
G75*
G02*
X162068500Y-110434000I237500J0D01*
G01*
X162543500Y-110434000D01*
G75*
G02*
X162781000Y-110671500I0J-237500D01*
G01*
X162781000Y-111271500D01*
G75*
G02*
X162543500Y-111509000I-237500J0D01*
G01*
G37*
%TD.AperFunction*%
%TD*%
%TO.P,C5,2*%
%TO.N,GND*%
%TA.AperFunction,SMDPad,CuDef*%
G36*
G01*
X145067000Y-113120500D02*
X146017000Y-113120500D01*
G75*
G02*
X146267000Y-113370500I0J-250000D01*
G01*
X146267000Y-114045500D01*
G75*
G02*
X146017000Y-114295500I-250000J0D01*
G01*
X145067000Y-114295500D01*
G75*
G02*
X144817000Y-114045500I0J250000D01*
G01*
X144817000Y-113370500D01*
G75*
G02*
X145067000Y-113120500I250000J0D01*
G01*
G37*
%TD.AperFunction*%
%TO.P,C5,1*%
%TO.N,Net-(C5-Pad1)*%
%TA.AperFunction,SMDPad,CuDef*%
G36*
G01*
X145067000Y-111045500D02*
X146017000Y-111045500D01*
G75*
G02*
X146267000Y-111295500I0J-250000D01*
G01*
X146267000Y-111970500D01*
G75*
G02*
X146017000Y-112220500I-250000J0D01*
G01*
X145067000Y-112220500D01*
G75*
G02*
X144817000Y-111970500I0J250000D01*
G01*
X144817000Y-111295500D01*
G75*
G02*
X145067000Y-111045500I250000J0D01*
G01*
G37*
%TD.AperFunction*%
%TD*%
%TO.P,C4,2*%
%TO.N,Net-(C4-Pad2)*%
%TA.AperFunction,SMDPad,CuDef*%
G36*
G01*
X155276500Y-105807500D02*
X155276500Y-106282500D01*
G75*
G02*
X155039000Y-106520000I-237500J0D01*
G01*
X154439000Y-106520000D01*
G75*
G02*
X154201500Y-106282500I0J237500D01*
G01*
X154201500Y-105807500D01*
G75*
G02*
X154439000Y-105570000I237500J0D01*
G01*
X155039000Y-105570000D01*
G75*
G02*
X155276500Y-105807500I0J-237500D01*
G01*
G37*
%TD.AperFunction*%
%TO.P,C4,1*%
%TO.N,Net-(C4-Pad1)*%
%TA.AperFunction,SMDPad,CuDef*%
G36*
G01*
X157001500Y-105807500D02*
X157001500Y-106282500D01*
G75*
G02*
X156764000Y-106520000I-237500J0D01*
G01*
X156164000Y-106520000D01*
G75*
G02*
X155926500Y-106282500I0J237500D01*
G01*
X155926500Y-105807500D01*
G75*
G02*
X156164000Y-105570000I237500J0D01*
G01*
X156764000Y-105570000D01*
G75*
G02*
X157001500Y-105807500I0J-237500D01*
G01*
G37*
%TD.AperFunction*%
%TD*%
%TO.P,C3,2*%
%TO.N,GND*%
%TA.AperFunction,SMDPad,CuDef*%
G36*
G01*
X145880001Y-106707500D02*
X143679999Y-106707500D01*
G75*
G02*
X143430000Y-106457501I0J249999D01*
G01*
X143430000Y-105632499D01*
G75*
G02*
X143679999Y-105382500I249999J0D01*
G01*
X145880001Y-105382500D01*
G75*
G02*
X146130000Y-105632499I0J-249999D01*
G01*
X146130000Y-106457501D01*
G75*
G02*
X145880001Y-106707500I-249999J0D01*
G01*
G37*
%TD.AperFunction*%
%TO.P,C3,1*%
%TO.N,Net-(C1-Pad1)*%
%TA.AperFunction,SMDPad,CuDef*%
G36*
G01*
X145880001Y-109832500D02*
X143679999Y-109832500D01*
G75*
G02*
X143430000Y-109582501I0J249999D01*
G01*
X143430000Y-108757499D01*
G75*
G02*
X143679999Y-108507500I249999J0D01*
G01*
X145880001Y-108507500D01*
G75*
G02*
X146130000Y-108757499I0J-249999D01*
G01*
X146130000Y-109582501D01*
G75*
G02*
X145880001Y-109832500I-249999J0D01*
G01*
G37*
%TD.AperFunction*%
%TD*%
%TO.P,C2,2*%
%TO.N,GND*%
%TA.AperFunction,SMDPad,CuDef*%
G36*
G01*
X142070001Y-106707500D02*
X139869999Y-106707500D01*
G75*
G02*
X139620000Y-106457501I0J249999D01*
G01*
X139620000Y-105632499D01*
G75*
G02*
X139869999Y-105382500I249999J0D01*
G01*
X142070001Y-105382500D01*
G75*
G02*
X142320000Y-105632499I0J-249999D01*
G01*
X142320000Y-106457501D01*
G75*
G02*
X142070001Y-106707500I-249999J0D01*
G01*
G37*
%TD.AperFunction*%
%TO.P,C2,1*%
%TO.N,Net-(C1-Pad1)*%
%TA.AperFunction,SMDPad,CuDef*%
G36*
G01*
X142070001Y-109832500D02*
X139869999Y-109832500D01*
G75*
G02*
X139620000Y-109582501I0J249999D01*
G01*
X139620000Y-108757499D01*
G75*
G02*
X139869999Y-108507500I249999J0D01*
G01*
X142070001Y-108507500D01*
G75*
G02*
X142320000Y-108757499I0J-249999D01*
G01*
X142320000Y-109582501D01*
G75*
G02*
X142070001Y-109832500I-249999J0D01*
G01*
G37*
%TD.AperFunction*%
%TD*%
D16*
%TO.P,C1,2*%
%TO.N,GND*%
X132334000Y-106339000D03*
D17*
%TO.P,C1,1*%
%TO.N,Net-(C1-Pad1)*%
X132334000Y-108839000D03*
%TD*%
D18*
%TO.N,GND*%
X151130000Y-113411000D03*
X150368000Y-113411000D03*
X151892000Y-113411000D03*
X151892000Y-114173000D03*
X151130000Y-114173000D03*
X150368000Y-114173000D03*
X150622000Y-108331000D03*
X151638000Y-108331000D03*
X150622000Y-109093000D03*
X151638000Y-109093000D03*
X150622000Y-109855000D03*
X151638000Y-109855000D03*
X150622000Y-110617000D03*
X151638000Y-110617000D03*
X150622000Y-111379000D03*
X151638000Y-111379000D03*
%TO.N,Net-(C4-Pad2)*%
X148655000Y-106364000D03*
X153351000Y-106364000D03*
%TD*%
D19*
%TO.N,GND*%
X123444000Y-115951000D02*
X121920000Y-117475000D01*
X127762000Y-115951000D02*
X123444000Y-115951000D01*
D20*
%TO.N,Net-(C1-Pad1)*%
X127762000Y-109601000D02*
X127762000Y-113411000D01*
D19*
%TO.N,Net-(C4-Pad2)*%
X148655000Y-106364000D02*
X148655000Y-106364000D01*
X154674000Y-106364000D02*
X154739000Y-106299000D01*
X153351000Y-106364000D02*
X154674000Y-106364000D01*
D20*
X148655000Y-107950000D02*
X148655000Y-106364000D01*
X154420000Y-106364000D02*
X154739000Y-106045000D01*
X153351000Y-106364000D02*
X154420000Y-106364000D01*
D19*
%TO.N,Net-(C4-Pad1)*%
X153605000Y-107950000D02*
X153986000Y-107569000D01*
X153986000Y-107569000D02*
X156210000Y-107569000D01*
X156464000Y-107315000D02*
X156464000Y-106045000D01*
X156210000Y-107569000D02*
X156464000Y-107315000D01*
D20*
%TO.N,Net-(C5-Pad1)*%
X145669000Y-111760000D02*
X145542000Y-111633000D01*
X148655000Y-111760000D02*
X145669000Y-111760000D01*
%TO.N,Net-(C6-Pad1)*%
X162152500Y-111125000D02*
X162306000Y-110971500D01*
X160258000Y-111125000D02*
X162152500Y-111125000D01*
D19*
%TO.N,Net-(C7-Pad1)*%
X166116000Y-104775000D02*
X166116000Y-106299000D01*
X157988000Y-91923000D02*
X157988000Y-92837000D01*
X157988000Y-92837000D02*
X158750000Y-93599000D01*
X158750000Y-93599000D02*
X165100000Y-93599000D01*
X166116000Y-94615000D02*
X166116000Y-104775000D01*
X165100000Y-93599000D02*
X166116000Y-94615000D01*
D20*
X167640000Y-107823000D02*
X166116000Y-106299000D01*
X167640000Y-109633000D02*
X167640000Y-107823000D01*
%TO.N,Net-(C8-Pad1)*%
X155628000Y-110490000D02*
X156210000Y-111072000D01*
X153605000Y-110490000D02*
X155628000Y-110490000D01*
X158205000Y-111072000D02*
X158258000Y-111125000D01*
X156210000Y-111072000D02*
X158205000Y-111072000D01*
%TO.N,Net-(D2-Pad2)*%
X146304000Y-92853000D02*
X146320000Y-92837000D01*
X146304000Y-95885000D02*
X146304000Y-92853000D01*
%TO.N,Net-(R1-Pad2)*%
X140430000Y-111363000D02*
X140462000Y-111395000D01*
X137668000Y-111363000D02*
X140430000Y-111363000D01*
X148655000Y-110490000D02*
X142875000Y-110490000D01*
X141970000Y-111395000D02*
X140462000Y-111395000D01*
X142875000Y-110490000D02*
X141970000Y-111395000D01*
%TO.N,Net-(R4-Pad2)*%
X163846000Y-112395000D02*
X164592000Y-111649000D01*
X154240000Y-112395000D02*
X163846000Y-112395000D01*
X167624000Y-111649000D02*
X167640000Y-111633000D01*
X164592000Y-111649000D02*
X167624000Y-111649000D01*
X164592000Y-109347000D02*
X164846000Y-109093000D01*
X164592000Y-111649000D02*
X164592000Y-109347000D01*
X154240000Y-112395000D02*
X153605000Y-111760000D01*
%TD*%
%TO.N,Net-(C4-Pad1)*%
X159893000Y-107950000D02*
X152781000Y-107950000D01*
X152781000Y-107188000D01*
X153017244Y-107188000D01*
X153091688Y-107218836D01*
X153263441Y-107253000D01*
X153438559Y-107253000D01*
X153610312Y-107218836D01*
X153684756Y-107188000D01*
X155956000Y-107188000D01*
X155980776Y-107185560D01*
X156004601Y-107178333D01*
X156026557Y-107166597D01*
X156045803Y-107150803D01*
X156061597Y-107131557D01*
X156073333Y-107109601D01*
X156080560Y-107085776D01*
X156083000Y-107061000D01*
X156083000Y-97282000D01*
X159893000Y-97282000D01*
X159893000Y-107950000D01*
%TA.AperFunction,Conductor*%
D21*
G36*
X159893000Y-107950000D02*
G01*
X152781000Y-107950000D01*
X152781000Y-107188000D01*
X153017244Y-107188000D01*
X153091688Y-107218836D01*
X153263441Y-107253000D01*
X153438559Y-107253000D01*
X153610312Y-107218836D01*
X153684756Y-107188000D01*
X155956000Y-107188000D01*
X155980776Y-107185560D01*
X156004601Y-107178333D01*
X156026557Y-107166597D01*
X156045803Y-107150803D01*
X156061597Y-107131557D01*
X156073333Y-107109601D01*
X156080560Y-107085776D01*
X156083000Y-107061000D01*
X156083000Y-97282000D01*
X159893000Y-97282000D01*
X159893000Y-107950000D01*
G37*
%TD.AperFunction*%
%TD*%
D20*
%TO.N,Net-(C7-Pad1)*%
X167259000Y-106172000D02*
X165227000Y-106172000D01*
X165227000Y-96393000D01*
X165224560Y-96368224D01*
X165217333Y-96344399D01*
X165205597Y-96322443D01*
X165189803Y-96303197D01*
X165170557Y-96287403D01*
X165148601Y-96275667D01*
X165124776Y-96268440D01*
X165100000Y-96266000D01*
X147955000Y-96266000D01*
X147955000Y-91186000D01*
X167259000Y-91186000D01*
X167259000Y-106172000D01*
%TA.AperFunction,Conductor*%
D21*
G36*
X167259000Y-106172000D02*
G01*
X165227000Y-106172000D01*
X165227000Y-96393000D01*
X165224560Y-96368224D01*
X165217333Y-96344399D01*
X165205597Y-96322443D01*
X165189803Y-96303197D01*
X165170557Y-96287403D01*
X165148601Y-96275667D01*
X165124776Y-96268440D01*
X165100000Y-96266000D01*
X147955000Y-96266000D01*
X147955000Y-91186000D01*
X167259000Y-91186000D01*
X167259000Y-106172000D01*
G37*
%TD.AperFunction*%
%TD*%
D20*
%TO.N,GND*%
X154051000Y-103886000D02*
X152146000Y-103886000D01*
X152121224Y-103888440D01*
X152097399Y-103895667D01*
X152075443Y-103907403D01*
X152056197Y-103923197D01*
X152040403Y-103942443D01*
X152028667Y-103964399D01*
X152021440Y-103988224D01*
X152019000Y-104013000D01*
X152019000Y-107606930D01*
X152007071Y-107646255D01*
X151991928Y-107800000D01*
X151991928Y-108100000D01*
X152007071Y-108253745D01*
X152019000Y-108293070D01*
X152019000Y-108585000D01*
X152021440Y-108609776D01*
X152028667Y-108633601D01*
X152040403Y-108655557D01*
X152056197Y-108674803D01*
X152075443Y-108690597D01*
X152097399Y-108702333D01*
X152121224Y-108709560D01*
X152146000Y-108712000D01*
X152289461Y-108712000D01*
X152342171Y-108755258D01*
X152478418Y-108828084D01*
X152626255Y-108872929D01*
X152780000Y-108888072D01*
X154430000Y-108888072D01*
X154583745Y-108872929D01*
X154731582Y-108828084D01*
X154867829Y-108755258D01*
X154920539Y-108712000D01*
X161290000Y-108712000D01*
X161314776Y-108709560D01*
X161338601Y-108702333D01*
X161360557Y-108690597D01*
X161379803Y-108674803D01*
X161395597Y-108655557D01*
X161407333Y-108633601D01*
X161414560Y-108609776D01*
X161417000Y-108585000D01*
X161417000Y-103632000D01*
X164465000Y-103632000D01*
X164465000Y-106172000D01*
X163322000Y-106172000D01*
X163297224Y-106174440D01*
X163273399Y-106181667D01*
X163251443Y-106193403D01*
X163232197Y-106209197D01*
X163216403Y-106228443D01*
X163204667Y-106250399D01*
X163197440Y-106274224D01*
X163195000Y-106299000D01*
X163195000Y-109728000D01*
X155665423Y-109728000D01*
X155628000Y-109724314D01*
X155590577Y-109728000D01*
X154920539Y-109728000D01*
X154867829Y-109684742D01*
X154731582Y-109611916D01*
X154583745Y-109567071D01*
X154430000Y-109551928D01*
X152780000Y-109551928D01*
X152626255Y-109567071D01*
X152478418Y-109611916D01*
X152342171Y-109684742D01*
X152289461Y-109728000D01*
X152146000Y-109728000D01*
X152121224Y-109730440D01*
X152097399Y-109737667D01*
X152075443Y-109749403D01*
X152056197Y-109765197D01*
X152040403Y-109784443D01*
X152028667Y-109806399D01*
X152021440Y-109830224D01*
X152019000Y-109855000D01*
X152019000Y-110146930D01*
X152007071Y-110186255D01*
X151991928Y-110340000D01*
X151991928Y-110640000D01*
X152007071Y-110793745D01*
X152019000Y-110833070D01*
X152019000Y-111416930D01*
X152007071Y-111456255D01*
X151991928Y-111610000D01*
X151991928Y-111910000D01*
X152007071Y-112063745D01*
X152019000Y-112103070D01*
X152019000Y-112903000D01*
X152021440Y-112927776D01*
X152028667Y-112951601D01*
X152040403Y-112973557D01*
X152056197Y-112992803D01*
X152075443Y-113008597D01*
X152097399Y-113020333D01*
X152121224Y-113027560D01*
X152146000Y-113030000D01*
X153812603Y-113030000D01*
X153814607Y-113031645D01*
X153885364Y-113069465D01*
X153946985Y-113102402D01*
X154090622Y-113145974D01*
X154202574Y-113157000D01*
X154202577Y-113157000D01*
X154240000Y-113160686D01*
X154277423Y-113157000D01*
X163808577Y-113157000D01*
X163846000Y-113160686D01*
X163883423Y-113157000D01*
X163883426Y-113157000D01*
X163995378Y-113145974D01*
X164139015Y-113102402D01*
X164271392Y-113031645D01*
X164273396Y-113030000D01*
X165735000Y-113030000D01*
X165735000Y-117348000D01*
X126619000Y-117348000D01*
X126619000Y-115062000D01*
X133350000Y-115062000D01*
X133374776Y-115059560D01*
X133398601Y-115052333D01*
X133420557Y-115040597D01*
X133439803Y-115024803D01*
X133455597Y-115005557D01*
X133467333Y-114983601D01*
X133474560Y-114959776D01*
X133477000Y-114935000D01*
X133477000Y-113030000D01*
X150114000Y-113030000D01*
X150138776Y-113027560D01*
X150162601Y-113020333D01*
X150184557Y-113008597D01*
X150203803Y-112992803D01*
X150219597Y-112973557D01*
X150231333Y-112951601D01*
X150238560Y-112927776D01*
X150241000Y-112903000D01*
X150241000Y-112103070D01*
X150252929Y-112063745D01*
X150268072Y-111910000D01*
X150268072Y-111610000D01*
X150252929Y-111456255D01*
X150241000Y-111416930D01*
X150241000Y-110833070D01*
X150252929Y-110793745D01*
X150268072Y-110640000D01*
X150268072Y-110340000D01*
X150252929Y-110186255D01*
X150241000Y-110146930D01*
X150241000Y-109563070D01*
X150252929Y-109523745D01*
X150268072Y-109370000D01*
X150268072Y-109070000D01*
X150252929Y-108916255D01*
X150241000Y-108876930D01*
X150241000Y-108293070D01*
X150252929Y-108253745D01*
X150268072Y-108100000D01*
X150268072Y-107800000D01*
X150252929Y-107646255D01*
X150241000Y-107606930D01*
X150241000Y-105791000D01*
X150238560Y-105766224D01*
X150231333Y-105742399D01*
X150219597Y-105720443D01*
X150203803Y-105701197D01*
X150184557Y-105685403D01*
X150162601Y-105673667D01*
X150138776Y-105666440D01*
X150114000Y-105664000D01*
X149207533Y-105664000D01*
X149076099Y-105576179D01*
X148914312Y-105509164D01*
X148742559Y-105475000D01*
X148567441Y-105475000D01*
X148395688Y-105509164D01*
X148233901Y-105576179D01*
X148102467Y-105664000D01*
X147320000Y-105664000D01*
X147295224Y-105666440D01*
X147271399Y-105673667D01*
X147249443Y-105685403D01*
X147230197Y-105701197D01*
X147214403Y-105720443D01*
X147202667Y-105742399D01*
X147195440Y-105766224D01*
X147193000Y-105791000D01*
X147193000Y-106680000D01*
X131191000Y-106680000D01*
X131191000Y-105156000D01*
X133350000Y-105156000D01*
X133374776Y-105153560D01*
X133398601Y-105146333D01*
X133420557Y-105134597D01*
X133439803Y-105118803D01*
X133455597Y-105099557D01*
X133467333Y-105077601D01*
X133474560Y-105053776D01*
X133477000Y-105029000D01*
X133477000Y-97282000D01*
X154051000Y-97282000D01*
X154051000Y-103886000D01*
%TA.AperFunction,Conductor*%
D21*
G36*
X154051000Y-103886000D02*
G01*
X152146000Y-103886000D01*
X152121224Y-103888440D01*
X152097399Y-103895667D01*
X152075443Y-103907403D01*
X152056197Y-103923197D01*
X152040403Y-103942443D01*
X152028667Y-103964399D01*
X152021440Y-103988224D01*
X152019000Y-104013000D01*
X152019000Y-107606930D01*
X152007071Y-107646255D01*
X151991928Y-107800000D01*
X151991928Y-108100000D01*
X152007071Y-108253745D01*
X152019000Y-108293070D01*
X152019000Y-108585000D01*
X152021440Y-108609776D01*
X152028667Y-108633601D01*
X152040403Y-108655557D01*
X152056197Y-108674803D01*
X152075443Y-108690597D01*
X152097399Y-108702333D01*
X152121224Y-108709560D01*
X152146000Y-108712000D01*
X152289461Y-108712000D01*
X152342171Y-108755258D01*
X152478418Y-108828084D01*
X152626255Y-108872929D01*
X152780000Y-108888072D01*
X154430000Y-108888072D01*
X154583745Y-108872929D01*
X154731582Y-108828084D01*
X154867829Y-108755258D01*
X154920539Y-108712000D01*
X161290000Y-108712000D01*
X161314776Y-108709560D01*
X161338601Y-108702333D01*
X161360557Y-108690597D01*
X161379803Y-108674803D01*
X161395597Y-108655557D01*
X161407333Y-108633601D01*
X161414560Y-108609776D01*
X161417000Y-108585000D01*
X161417000Y-103632000D01*
X164465000Y-103632000D01*
X164465000Y-106172000D01*
X163322000Y-106172000D01*
X163297224Y-106174440D01*
X163273399Y-106181667D01*
X163251443Y-106193403D01*
X163232197Y-106209197D01*
X163216403Y-106228443D01*
X163204667Y-106250399D01*
X163197440Y-106274224D01*
X163195000Y-106299000D01*
X163195000Y-109728000D01*
X155665423Y-109728000D01*
X155628000Y-109724314D01*
X155590577Y-109728000D01*
X154920539Y-109728000D01*
X154867829Y-109684742D01*
X154731582Y-109611916D01*
X154583745Y-109567071D01*
X154430000Y-109551928D01*
X152780000Y-109551928D01*
X152626255Y-109567071D01*
X152478418Y-109611916D01*
X152342171Y-109684742D01*
X152289461Y-109728000D01*
X152146000Y-109728000D01*
X152121224Y-109730440D01*
X152097399Y-109737667D01*
X152075443Y-109749403D01*
X152056197Y-109765197D01*
X152040403Y-109784443D01*
X152028667Y-109806399D01*
X152021440Y-109830224D01*
X152019000Y-109855000D01*
X152019000Y-110146930D01*
X152007071Y-110186255D01*
X151991928Y-110340000D01*
X151991928Y-110640000D01*
X152007071Y-110793745D01*
X152019000Y-110833070D01*
X152019000Y-111416930D01*
X152007071Y-111456255D01*
X151991928Y-111610000D01*
X151991928Y-111910000D01*
X152007071Y-112063745D01*
X152019000Y-112103070D01*
X152019000Y-112903000D01*
X152021440Y-112927776D01*
X152028667Y-112951601D01*
X152040403Y-112973557D01*
X152056197Y-112992803D01*
X152075443Y-113008597D01*
X152097399Y-113020333D01*
X152121224Y-113027560D01*
X152146000Y-113030000D01*
X153812603Y-113030000D01*
X153814607Y-113031645D01*
X153885364Y-113069465D01*
X153946985Y-113102402D01*
X154090622Y-113145974D01*
X154202574Y-113157000D01*
X154202577Y-113157000D01*
X154240000Y-113160686D01*
X154277423Y-113157000D01*
X163808577Y-113157000D01*
X163846000Y-113160686D01*
X163883423Y-113157000D01*
X163883426Y-113157000D01*
X163995378Y-113145974D01*
X164139015Y-113102402D01*
X164271392Y-113031645D01*
X164273396Y-113030000D01*
X165735000Y-113030000D01*
X165735000Y-117348000D01*
X126619000Y-117348000D01*
X126619000Y-115062000D01*
X133350000Y-115062000D01*
X133374776Y-115059560D01*
X133398601Y-115052333D01*
X133420557Y-115040597D01*
X133439803Y-115024803D01*
X133455597Y-115005557D01*
X133467333Y-114983601D01*
X133474560Y-114959776D01*
X133477000Y-114935000D01*
X133477000Y-113030000D01*
X150114000Y-113030000D01*
X150138776Y-113027560D01*
X150162601Y-113020333D01*
X150184557Y-113008597D01*
X150203803Y-112992803D01*
X150219597Y-112973557D01*
X150231333Y-112951601D01*
X150238560Y-112927776D01*
X150241000Y-112903000D01*
X150241000Y-112103070D01*
X150252929Y-112063745D01*
X150268072Y-111910000D01*
X150268072Y-111610000D01*
X150252929Y-111456255D01*
X150241000Y-111416930D01*
X150241000Y-110833070D01*
X150252929Y-110793745D01*
X150268072Y-110640000D01*
X150268072Y-110340000D01*
X150252929Y-110186255D01*
X150241000Y-110146930D01*
X150241000Y-109563070D01*
X150252929Y-109523745D01*
X150268072Y-109370000D01*
X150268072Y-109070000D01*
X150252929Y-108916255D01*
X150241000Y-108876930D01*
X150241000Y-108293070D01*
X150252929Y-108253745D01*
X150268072Y-108100000D01*
X150268072Y-107800000D01*
X150252929Y-107646255D01*
X150241000Y-107606930D01*
X150241000Y-105791000D01*
X150238560Y-105766224D01*
X150231333Y-105742399D01*
X150219597Y-105720443D01*
X150203803Y-105701197D01*
X150184557Y-105685403D01*
X150162601Y-105673667D01*
X150138776Y-105666440D01*
X150114000Y-105664000D01*
X149207533Y-105664000D01*
X149076099Y-105576179D01*
X148914312Y-105509164D01*
X148742559Y-105475000D01*
X148567441Y-105475000D01*
X148395688Y-105509164D01*
X148233901Y-105576179D01*
X148102467Y-105664000D01*
X147320000Y-105664000D01*
X147295224Y-105666440D01*
X147271399Y-105673667D01*
X147249443Y-105685403D01*
X147230197Y-105701197D01*
X147214403Y-105720443D01*
X147202667Y-105742399D01*
X147195440Y-105766224D01*
X147193000Y-105791000D01*
X147193000Y-106680000D01*
X131191000Y-106680000D01*
X131191000Y-105156000D01*
X133350000Y-105156000D01*
X133374776Y-105153560D01*
X133398601Y-105146333D01*
X133420557Y-105134597D01*
X133439803Y-105118803D01*
X133455597Y-105099557D01*
X133467333Y-105077601D01*
X133474560Y-105053776D01*
X133477000Y-105029000D01*
X133477000Y-97282000D01*
X154051000Y-97282000D01*
X154051000Y-103886000D01*
G37*
%TD.AperFunction*%
%TD*%
D20*
%TO.N,Net-(C1-Pad1)*%
X147392171Y-108755258D02*
X147528418Y-108828084D01*
X147676255Y-108872929D01*
X147830000Y-108888072D01*
X149479000Y-108888072D01*
X149479000Y-109551928D01*
X147830000Y-109551928D01*
X147676255Y-109567071D01*
X147528418Y-109611916D01*
X147392171Y-109684742D01*
X147339461Y-109728000D01*
X142912422Y-109728000D01*
X142874999Y-109724314D01*
X142837576Y-109728000D01*
X132588000Y-109728000D01*
X132563224Y-109730440D01*
X132539399Y-109737667D01*
X132517443Y-109749403D01*
X132498197Y-109765197D01*
X132482403Y-109784443D01*
X132470667Y-109806399D01*
X132463440Y-109830224D01*
X132461000Y-109855000D01*
X132461000Y-114300000D01*
X126619000Y-114300000D01*
X126619000Y-112522000D01*
X130048000Y-112522000D01*
X130072776Y-112519560D01*
X130096601Y-112512333D01*
X130118557Y-112500597D01*
X130137803Y-112484803D01*
X130153597Y-112465557D01*
X130165333Y-112443601D01*
X130172560Y-112419776D01*
X130175000Y-112395000D01*
X130175000Y-108712000D01*
X147339461Y-108712000D01*
X147392171Y-108755258D01*
%TA.AperFunction,Conductor*%
D21*
G36*
X147392171Y-108755258D02*
G01*
X147528418Y-108828084D01*
X147676255Y-108872929D01*
X147830000Y-108888072D01*
X149479000Y-108888072D01*
X149479000Y-109551928D01*
X147830000Y-109551928D01*
X147676255Y-109567071D01*
X147528418Y-109611916D01*
X147392171Y-109684742D01*
X147339461Y-109728000D01*
X142912422Y-109728000D01*
X142874999Y-109724314D01*
X142837576Y-109728000D01*
X132588000Y-109728000D01*
X132563224Y-109730440D01*
X132539399Y-109737667D01*
X132517443Y-109749403D01*
X132498197Y-109765197D01*
X132482403Y-109784443D01*
X132470667Y-109806399D01*
X132463440Y-109830224D01*
X132461000Y-109855000D01*
X132461000Y-114300000D01*
X126619000Y-114300000D01*
X126619000Y-112522000D01*
X130048000Y-112522000D01*
X130072776Y-112519560D01*
X130096601Y-112512333D01*
X130118557Y-112500597D01*
X130137803Y-112484803D01*
X130153597Y-112465557D01*
X130165333Y-112443601D01*
X130172560Y-112419776D01*
X130175000Y-112395000D01*
X130175000Y-108712000D01*
X147339461Y-108712000D01*
X147392171Y-108755258D01*
G37*
%TD.AperFunction*%
%TD*%
D20*
%TO.N,GND*%
X121785717Y-88940088D02*
X121886353Y-88950000D01*
X171483647Y-88950000D01*
X171577956Y-88940711D01*
X172061222Y-88988096D01*
X172649164Y-89165606D01*
X173191436Y-89453937D01*
X173667364Y-89842094D01*
X174058845Y-90315314D01*
X174350951Y-90855552D01*
X174532563Y-91442244D01*
X174584943Y-91940616D01*
X174584912Y-91940718D01*
X174575000Y-92041354D01*
X174575001Y-117508647D01*
X174584289Y-117602951D01*
X174536904Y-118086221D01*
X174359394Y-118674164D01*
X174071063Y-119216436D01*
X173682906Y-119692364D01*
X173209686Y-120083845D01*
X172669449Y-120375950D01*
X172082756Y-120557563D01*
X171584386Y-120609943D01*
X171584283Y-120609912D01*
X171483647Y-120600000D01*
X121886353Y-120600000D01*
X121792044Y-120609289D01*
X121308779Y-120561904D01*
X120720836Y-120384394D01*
X120178564Y-120096063D01*
X119702636Y-119707906D01*
X119501501Y-119464774D01*
X120109831Y-119464774D01*
X120349977Y-119852017D01*
X120843877Y-120112640D01*
X121379132Y-120271899D01*
X121935173Y-120323676D01*
X122490630Y-120265979D01*
X123024159Y-120101027D01*
X123490023Y-119852017D01*
X123730169Y-119464774D01*
X169639831Y-119464774D01*
X169879977Y-119852017D01*
X170373877Y-120112640D01*
X170909132Y-120271899D01*
X171465173Y-120323676D01*
X172020630Y-120265979D01*
X172554159Y-120101027D01*
X173020023Y-119852017D01*
X173260169Y-119464774D01*
X171450000Y-117654605D01*
X169639831Y-119464774D01*
X123730169Y-119464774D01*
X121920000Y-117654605D01*
X120109831Y-119464774D01*
X119501501Y-119464774D01*
X119311155Y-119234686D01*
X119019050Y-118694449D01*
X118837437Y-118107756D01*
X118785057Y-117609386D01*
X118785088Y-117609283D01*
X118795000Y-117508647D01*
X118795000Y-117490173D01*
X119071324Y-117490173D01*
X119129021Y-118045630D01*
X119293973Y-118579159D01*
X119542983Y-119045023D01*
X119930226Y-119285169D01*
X121740395Y-117475000D01*
X122099605Y-117475000D01*
X123909774Y-119285169D01*
X124297017Y-119045023D01*
X124557640Y-118551123D01*
X124716899Y-118015868D01*
X124768676Y-117459827D01*
X124710979Y-116904370D01*
X124546027Y-116370841D01*
X124297017Y-115904977D01*
X123909774Y-115664831D01*
X122099605Y-117475000D01*
X121740395Y-117475000D01*
X119930226Y-115664831D01*
X119542983Y-115904977D01*
X119282360Y-116398877D01*
X119123101Y-116934132D01*
X119071324Y-117490173D01*
X118795000Y-117490173D01*
X118795000Y-115485226D01*
X120109831Y-115485226D01*
X121920000Y-117295395D01*
X123730169Y-115485226D01*
X123490023Y-115097983D01*
X122996123Y-114837360D01*
X122460868Y-114678101D01*
X121904827Y-114626324D01*
X121349370Y-114684021D01*
X120815841Y-114848973D01*
X120349977Y-115097983D01*
X120109831Y-115485226D01*
X118795000Y-115485226D01*
X118795000Y-112395000D01*
X125857000Y-112395000D01*
X125857000Y-114427000D01*
X125869201Y-114550882D01*
X125905336Y-114670004D01*
X125964017Y-114779787D01*
X126042987Y-114876013D01*
X126139213Y-114954983D01*
X126248996Y-115013664D01*
X126365000Y-115048853D01*
X126365000Y-115447478D01*
X126320524Y-115594110D01*
X126365000Y-115678387D01*
X126365000Y-116223613D01*
X126320524Y-116307890D01*
X126365000Y-116454522D01*
X126365000Y-117475000D01*
X126367440Y-117499776D01*
X126374667Y-117523601D01*
X126386403Y-117545557D01*
X126402197Y-117564803D01*
X126421443Y-117580597D01*
X126443399Y-117592333D01*
X126467224Y-117599560D01*
X126492000Y-117602000D01*
X165862000Y-117602000D01*
X165886776Y-117599560D01*
X165910601Y-117592333D01*
X165932557Y-117580597D01*
X165951803Y-117564803D01*
X165967597Y-117545557D01*
X165979333Y-117523601D01*
X165986560Y-117499776D01*
X165987505Y-117490173D01*
X168601324Y-117490173D01*
X168659021Y-118045630D01*
X168823973Y-118579159D01*
X169072983Y-119045023D01*
X169460226Y-119285169D01*
X171270395Y-117475000D01*
X171629605Y-117475000D01*
X173439774Y-119285169D01*
X173827017Y-119045023D01*
X174087640Y-118551123D01*
X174246899Y-118015868D01*
X174298676Y-117459827D01*
X174240979Y-116904370D01*
X174076027Y-116370841D01*
X173827017Y-115904977D01*
X173439774Y-115664831D01*
X171629605Y-117475000D01*
X171270395Y-117475000D01*
X169460226Y-115664831D01*
X169072983Y-115904977D01*
X168812360Y-116398877D01*
X168653101Y-116934132D01*
X168601324Y-117490173D01*
X165987505Y-117490173D01*
X165989000Y-117475000D01*
X165989000Y-115485226D01*
X169639831Y-115485226D01*
X171450000Y-117295395D01*
X173260169Y-115485226D01*
X173020023Y-115097983D01*
X172526123Y-114837360D01*
X171990868Y-114678101D01*
X171434827Y-114626324D01*
X170879370Y-114684021D01*
X170345841Y-114848973D01*
X169879977Y-115097983D01*
X169639831Y-115485226D01*
X165989000Y-115485226D01*
X165989000Y-112903000D01*
X165986560Y-112878224D01*
X165979333Y-112854399D01*
X165967597Y-112832443D01*
X165951803Y-112813197D01*
X165932557Y-112797403D01*
X165910601Y-112785667D01*
X165886776Y-112778440D01*
X165866325Y-112776426D01*
X165822537Y-112694506D01*
X165743185Y-112597815D01*
X165713724Y-112573637D01*
X165780405Y-112492387D01*
X165823907Y-112411000D01*
X166416645Y-112411000D01*
X166451595Y-112476387D01*
X166562038Y-112610962D01*
X166696613Y-112721405D01*
X166850149Y-112803472D01*
X167016745Y-112854008D01*
X167189999Y-112871072D01*
X168090001Y-112871072D01*
X168263255Y-112854008D01*
X168429851Y-112803472D01*
X168583387Y-112721405D01*
X168717962Y-112610962D01*
X168828405Y-112476387D01*
X168910472Y-112322851D01*
X168961008Y-112156255D01*
X168978072Y-111983001D01*
X168978072Y-111282999D01*
X168961008Y-111109745D01*
X168910472Y-110943149D01*
X168828405Y-110789613D01*
X168717962Y-110655038D01*
X168691109Y-110633000D01*
X168717962Y-110610962D01*
X168828405Y-110476387D01*
X168910472Y-110322851D01*
X168961008Y-110156255D01*
X168978072Y-109983001D01*
X168978072Y-109282999D01*
X168961008Y-109109745D01*
X168910472Y-108943149D01*
X168828405Y-108789613D01*
X168717962Y-108655038D01*
X168583387Y-108544595D01*
X168429851Y-108462528D01*
X168402000Y-108454080D01*
X168402000Y-107860422D01*
X168405686Y-107822999D01*
X168399602Y-107761225D01*
X168390974Y-107673622D01*
X168347402Y-107529985D01*
X168276645Y-107397608D01*
X168181422Y-107281578D01*
X168152352Y-107257721D01*
X167727596Y-106832965D01*
X167738787Y-106826983D01*
X167835013Y-106748013D01*
X167913983Y-106651787D01*
X167972664Y-106542004D01*
X168008799Y-106422882D01*
X168021000Y-106299000D01*
X168021000Y-94064774D01*
X169639831Y-94064774D01*
X169879977Y-94452017D01*
X170373877Y-94712640D01*
X170909132Y-94871899D01*
X171465173Y-94923676D01*
X172020630Y-94865979D01*
X172554159Y-94701027D01*
X173020023Y-94452017D01*
X173260169Y-94064774D01*
X171450000Y-92254605D01*
X169639831Y-94064774D01*
X168021000Y-94064774D01*
X168021000Y-92090173D01*
X168601324Y-92090173D01*
X168659021Y-92645630D01*
X168823973Y-93179159D01*
X169072983Y-93645023D01*
X169460226Y-93885169D01*
X171270395Y-92075000D01*
X171629605Y-92075000D01*
X173439774Y-93885169D01*
X173827017Y-93645023D01*
X174087640Y-93151123D01*
X174246899Y-92615868D01*
X174298676Y-92059827D01*
X174240979Y-91504370D01*
X174076027Y-90970841D01*
X173827017Y-90504977D01*
X173439774Y-90264831D01*
X171629605Y-92075000D01*
X171270395Y-92075000D01*
X169460226Y-90264831D01*
X169072983Y-90504977D01*
X168812360Y-90998877D01*
X168653101Y-91534132D01*
X168601324Y-92090173D01*
X168021000Y-92090173D01*
X168021000Y-91059000D01*
X168008799Y-90935118D01*
X167972664Y-90815996D01*
X167913983Y-90706213D01*
X167835013Y-90609987D01*
X167738787Y-90531017D01*
X167629004Y-90472336D01*
X167509882Y-90436201D01*
X167386000Y-90424000D01*
X147828000Y-90424000D01*
X147704118Y-90436201D01*
X147584996Y-90472336D01*
X147475213Y-90531017D01*
X147378987Y-90609987D01*
X147300017Y-90706213D01*
X147241336Y-90815996D01*
X147205201Y-90935118D01*
X147193000Y-91059000D01*
X147193000Y-91672898D01*
X147163387Y-91648595D01*
X147009851Y-91566528D01*
X146843255Y-91515992D01*
X146670001Y-91498928D01*
X145969999Y-91498928D01*
X145796745Y-91515992D01*
X145630149Y-91566528D01*
X145476613Y-91648595D01*
X145342038Y-91759038D01*
X145231595Y-91893613D01*
X145149528Y-92047149D01*
X145098992Y-92213745D01*
X145081928Y-92386999D01*
X145081928Y-93287001D01*
X145098992Y-93460255D01*
X145149528Y-93626851D01*
X145231595Y-93780387D01*
X145342038Y-93914962D01*
X145476613Y-94025405D01*
X145542001Y-94060356D01*
X145542000Y-94900721D01*
X145447377Y-94978377D01*
X145338488Y-95111058D01*
X145257577Y-95262433D01*
X145207752Y-95426684D01*
X145190928Y-95597500D01*
X145190928Y-96172500D01*
X145207752Y-96343316D01*
X145257577Y-96507567D01*
X145338488Y-96658942D01*
X145358099Y-96682839D01*
X145298463Y-96755506D01*
X145239498Y-96865820D01*
X145203188Y-96985518D01*
X145199004Y-97028000D01*
X133350000Y-97028000D01*
X133325224Y-97030440D01*
X133301399Y-97037667D01*
X133279443Y-97049403D01*
X133260197Y-97065197D01*
X133244403Y-97084443D01*
X133232667Y-97106399D01*
X133225440Y-97130224D01*
X133223000Y-97155000D01*
X133223000Y-104902000D01*
X132328750Y-104902000D01*
X132263488Y-104898783D01*
X132241776Y-104902000D01*
X131064000Y-104902000D01*
X131039224Y-104904440D01*
X131015399Y-104911667D01*
X130993443Y-104923403D01*
X130974197Y-104939197D01*
X130958403Y-104958443D01*
X130946667Y-104980399D01*
X130939440Y-105004224D01*
X130937000Y-105029000D01*
X130937000Y-106010294D01*
X130907700Y-106127184D01*
X130893783Y-106409512D01*
X130935213Y-106689130D01*
X130937000Y-106694127D01*
X130937000Y-106807000D01*
X130939440Y-106831776D01*
X130946667Y-106855601D01*
X130958403Y-106877557D01*
X130974197Y-106896803D01*
X130993443Y-106912597D01*
X131015399Y-106924333D01*
X131019803Y-106925669D01*
X131030397Y-106955292D01*
X131097329Y-107080514D01*
X131341298Y-107152097D01*
X131559395Y-106934000D01*
X131918605Y-106934000D01*
X131520903Y-107331702D01*
X131541215Y-107400928D01*
X131534000Y-107400928D01*
X131409518Y-107413188D01*
X131289820Y-107449498D01*
X131179506Y-107508463D01*
X131082815Y-107587815D01*
X131003463Y-107684506D01*
X130944498Y-107794820D01*
X130908188Y-107914518D01*
X130904693Y-107950000D01*
X130048000Y-107950000D01*
X129924118Y-107962201D01*
X129804996Y-107998336D01*
X129695213Y-108057017D01*
X129598987Y-108135987D01*
X129520017Y-108232213D01*
X129461336Y-108341996D01*
X129425201Y-108461118D01*
X129413000Y-108585000D01*
X129413000Y-111760000D01*
X128524000Y-111760000D01*
X128524000Y-110757573D01*
X128644886Y-110676799D01*
X128837799Y-110483886D01*
X128989371Y-110257043D01*
X129093775Y-110004989D01*
X129147000Y-109737411D01*
X129147000Y-109464589D01*
X129093775Y-109197011D01*
X128989371Y-108944957D01*
X128837799Y-108718114D01*
X128644886Y-108525201D01*
X128418043Y-108373629D01*
X128165989Y-108269225D01*
X127898411Y-108216000D01*
X127625589Y-108216000D01*
X127358011Y-108269225D01*
X127105957Y-108373629D01*
X126879114Y-108525201D01*
X126686201Y-108718114D01*
X126534629Y-108944957D01*
X126430225Y-109197011D01*
X126377000Y-109464589D01*
X126377000Y-109737411D01*
X126430225Y-110004989D01*
X126534629Y-110257043D01*
X126686201Y-110483886D01*
X126879114Y-110676799D01*
X127000000Y-110757573D01*
X127000001Y-111760000D01*
X126492000Y-111760000D01*
X126368118Y-111772201D01*
X126248996Y-111808336D01*
X126139213Y-111867017D01*
X126042987Y-111945987D01*
X125964017Y-112042213D01*
X125905336Y-112151996D01*
X125869201Y-112271118D01*
X125857000Y-112395000D01*
X118795000Y-112395000D01*
X118795000Y-94064774D01*
X120109831Y-94064774D01*
X120349977Y-94452017D01*
X120843877Y-94712640D01*
X121379132Y-94871899D01*
X121935173Y-94923676D01*
X122490630Y-94865979D01*
X123024159Y-94701027D01*
X123490023Y-94452017D01*
X123730169Y-94064774D01*
X121920000Y-92254605D01*
X120109831Y-94064774D01*
X118795000Y-94064774D01*
X118795000Y-92090173D01*
X119071324Y-92090173D01*
X119129021Y-92645630D01*
X119293973Y-93179159D01*
X119542983Y-93645023D01*
X119930226Y-93885169D01*
X121740395Y-92075000D01*
X122099605Y-92075000D01*
X123909774Y-93885169D01*
X124297017Y-93645023D01*
X124557640Y-93151123D01*
X124716899Y-92615868D01*
X124768676Y-92059827D01*
X124710979Y-91504370D01*
X124546027Y-90970841D01*
X124297017Y-90504977D01*
X123909774Y-90264831D01*
X122099605Y-92075000D01*
X121740395Y-92075000D01*
X119930226Y-90264831D01*
X119542983Y-90504977D01*
X119282360Y-90998877D01*
X119123101Y-91534132D01*
X119071324Y-92090173D01*
X118795000Y-92090173D01*
X118795000Y-92041353D01*
X118785711Y-91947044D01*
X118833096Y-91463778D01*
X119010606Y-90875836D01*
X119298937Y-90333564D01*
X119501476Y-90085226D01*
X120109831Y-90085226D01*
X121920000Y-91895395D01*
X123730169Y-90085226D01*
X169639831Y-90085226D01*
X171450000Y-91895395D01*
X173260169Y-90085226D01*
X173020023Y-89697983D01*
X172526123Y-89437360D01*
X171990868Y-89278101D01*
X171434827Y-89226324D01*
X170879370Y-89284021D01*
X170345841Y-89448973D01*
X169879977Y-89697983D01*
X169639831Y-90085226D01*
X123730169Y-90085226D01*
X123490023Y-89697983D01*
X122996123Y-89437360D01*
X122460868Y-89278101D01*
X121904827Y-89226324D01*
X121349370Y-89284021D01*
X120815841Y-89448973D01*
X120349977Y-89697983D01*
X120109831Y-90085226D01*
X119501476Y-90085226D01*
X119687094Y-89857636D01*
X120160314Y-89466155D01*
X120700552Y-89174049D01*
X121287244Y-88992437D01*
X121785616Y-88940057D01*
X121785717Y-88940088D01*
%TA.AperFunction,Conductor*%
D21*
G36*
X121785717Y-88940088D02*
G01*
X121886353Y-88950000D01*
X171483647Y-88950000D01*
X171577956Y-88940711D01*
X172061222Y-88988096D01*
X172649164Y-89165606D01*
X173191436Y-89453937D01*
X173667364Y-89842094D01*
X174058845Y-90315314D01*
X174350951Y-90855552D01*
X174532563Y-91442244D01*
X174584943Y-91940616D01*
X174584912Y-91940718D01*
X174575000Y-92041354D01*
X174575001Y-117508647D01*
X174584289Y-117602951D01*
X174536904Y-118086221D01*
X174359394Y-118674164D01*
X174071063Y-119216436D01*
X173682906Y-119692364D01*
X173209686Y-120083845D01*
X172669449Y-120375950D01*
X172082756Y-120557563D01*
X171584386Y-120609943D01*
X171584283Y-120609912D01*
X171483647Y-120600000D01*
X121886353Y-120600000D01*
X121792044Y-120609289D01*
X121308779Y-120561904D01*
X120720836Y-120384394D01*
X120178564Y-120096063D01*
X119702636Y-119707906D01*
X119501501Y-119464774D01*
X120109831Y-119464774D01*
X120349977Y-119852017D01*
X120843877Y-120112640D01*
X121379132Y-120271899D01*
X121935173Y-120323676D01*
X122490630Y-120265979D01*
X123024159Y-120101027D01*
X123490023Y-119852017D01*
X123730169Y-119464774D01*
X169639831Y-119464774D01*
X169879977Y-119852017D01*
X170373877Y-120112640D01*
X170909132Y-120271899D01*
X171465173Y-120323676D01*
X172020630Y-120265979D01*
X172554159Y-120101027D01*
X173020023Y-119852017D01*
X173260169Y-119464774D01*
X171450000Y-117654605D01*
X169639831Y-119464774D01*
X123730169Y-119464774D01*
X121920000Y-117654605D01*
X120109831Y-119464774D01*
X119501501Y-119464774D01*
X119311155Y-119234686D01*
X119019050Y-118694449D01*
X118837437Y-118107756D01*
X118785057Y-117609386D01*
X118785088Y-117609283D01*
X118795000Y-117508647D01*
X118795000Y-117490173D01*
X119071324Y-117490173D01*
X119129021Y-118045630D01*
X119293973Y-118579159D01*
X119542983Y-119045023D01*
X119930226Y-119285169D01*
X121740395Y-117475000D01*
X122099605Y-117475000D01*
X123909774Y-119285169D01*
X124297017Y-119045023D01*
X124557640Y-118551123D01*
X124716899Y-118015868D01*
X124768676Y-117459827D01*
X124710979Y-116904370D01*
X124546027Y-116370841D01*
X124297017Y-115904977D01*
X123909774Y-115664831D01*
X122099605Y-117475000D01*
X121740395Y-117475000D01*
X119930226Y-115664831D01*
X119542983Y-115904977D01*
X119282360Y-116398877D01*
X119123101Y-116934132D01*
X119071324Y-117490173D01*
X118795000Y-117490173D01*
X118795000Y-115485226D01*
X120109831Y-115485226D01*
X121920000Y-117295395D01*
X123730169Y-115485226D01*
X123490023Y-115097983D01*
X122996123Y-114837360D01*
X122460868Y-114678101D01*
X121904827Y-114626324D01*
X121349370Y-114684021D01*
X120815841Y-114848973D01*
X120349977Y-115097983D01*
X120109831Y-115485226D01*
X118795000Y-115485226D01*
X118795000Y-112395000D01*
X125857000Y-112395000D01*
X125857000Y-114427000D01*
X125869201Y-114550882D01*
X125905336Y-114670004D01*
X125964017Y-114779787D01*
X126042987Y-114876013D01*
X126139213Y-114954983D01*
X126248996Y-115013664D01*
X126365000Y-115048853D01*
X126365000Y-115447478D01*
X126320524Y-115594110D01*
X126365000Y-115678387D01*
X126365000Y-116223613D01*
X126320524Y-116307890D01*
X126365000Y-116454522D01*
X126365000Y-117475000D01*
X126367440Y-117499776D01*
X126374667Y-117523601D01*
X126386403Y-117545557D01*
X126402197Y-117564803D01*
X126421443Y-117580597D01*
X126443399Y-117592333D01*
X126467224Y-117599560D01*
X126492000Y-117602000D01*
X165862000Y-117602000D01*
X165886776Y-117599560D01*
X165910601Y-117592333D01*
X165932557Y-117580597D01*
X165951803Y-117564803D01*
X165967597Y-117545557D01*
X165979333Y-117523601D01*
X165986560Y-117499776D01*
X165987505Y-117490173D01*
X168601324Y-117490173D01*
X168659021Y-118045630D01*
X168823973Y-118579159D01*
X169072983Y-119045023D01*
X169460226Y-119285169D01*
X171270395Y-117475000D01*
X171629605Y-117475000D01*
X173439774Y-119285169D01*
X173827017Y-119045023D01*
X174087640Y-118551123D01*
X174246899Y-118015868D01*
X174298676Y-117459827D01*
X174240979Y-116904370D01*
X174076027Y-116370841D01*
X173827017Y-115904977D01*
X173439774Y-115664831D01*
X171629605Y-117475000D01*
X171270395Y-117475000D01*
X169460226Y-115664831D01*
X169072983Y-115904977D01*
X168812360Y-116398877D01*
X168653101Y-116934132D01*
X168601324Y-117490173D01*
X165987505Y-117490173D01*
X165989000Y-117475000D01*
X165989000Y-115485226D01*
X169639831Y-115485226D01*
X171450000Y-117295395D01*
X173260169Y-115485226D01*
X173020023Y-115097983D01*
X172526123Y-114837360D01*
X171990868Y-114678101D01*
X171434827Y-114626324D01*
X170879370Y-114684021D01*
X170345841Y-114848973D01*
X169879977Y-115097983D01*
X169639831Y-115485226D01*
X165989000Y-115485226D01*
X165989000Y-112903000D01*
X165986560Y-112878224D01*
X165979333Y-112854399D01*
X165967597Y-112832443D01*
X165951803Y-112813197D01*
X165932557Y-112797403D01*
X165910601Y-112785667D01*
X165886776Y-112778440D01*
X165866325Y-112776426D01*
X165822537Y-112694506D01*
X165743185Y-112597815D01*
X165713724Y-112573637D01*
X165780405Y-112492387D01*
X165823907Y-112411000D01*
X166416645Y-112411000D01*
X166451595Y-112476387D01*
X166562038Y-112610962D01*
X166696613Y-112721405D01*
X166850149Y-112803472D01*
X167016745Y-112854008D01*
X167189999Y-112871072D01*
X168090001Y-112871072D01*
X168263255Y-112854008D01*
X168429851Y-112803472D01*
X168583387Y-112721405D01*
X168717962Y-112610962D01*
X168828405Y-112476387D01*
X168910472Y-112322851D01*
X168961008Y-112156255D01*
X168978072Y-111983001D01*
X168978072Y-111282999D01*
X168961008Y-111109745D01*
X168910472Y-110943149D01*
X168828405Y-110789613D01*
X168717962Y-110655038D01*
X168691109Y-110633000D01*
X168717962Y-110610962D01*
X168828405Y-110476387D01*
X168910472Y-110322851D01*
X168961008Y-110156255D01*
X168978072Y-109983001D01*
X168978072Y-109282999D01*
X168961008Y-109109745D01*
X168910472Y-108943149D01*
X168828405Y-108789613D01*
X168717962Y-108655038D01*
X168583387Y-108544595D01*
X168429851Y-108462528D01*
X168402000Y-108454080D01*
X168402000Y-107860422D01*
X168405686Y-107822999D01*
X168399602Y-107761225D01*
X168390974Y-107673622D01*
X168347402Y-107529985D01*
X168276645Y-107397608D01*
X168181422Y-107281578D01*
X168152352Y-107257721D01*
X167727596Y-106832965D01*
X167738787Y-106826983D01*
X167835013Y-106748013D01*
X167913983Y-106651787D01*
X167972664Y-106542004D01*
X168008799Y-106422882D01*
X168021000Y-106299000D01*
X168021000Y-94064774D01*
X169639831Y-94064774D01*
X169879977Y-94452017D01*
X170373877Y-94712640D01*
X170909132Y-94871899D01*
X171465173Y-94923676D01*
X172020630Y-94865979D01*
X172554159Y-94701027D01*
X173020023Y-94452017D01*
X173260169Y-94064774D01*
X171450000Y-92254605D01*
X169639831Y-94064774D01*
X168021000Y-94064774D01*
X168021000Y-92090173D01*
X168601324Y-92090173D01*
X168659021Y-92645630D01*
X168823973Y-93179159D01*
X169072983Y-93645023D01*
X169460226Y-93885169D01*
X171270395Y-92075000D01*
X171629605Y-92075000D01*
X173439774Y-93885169D01*
X173827017Y-93645023D01*
X174087640Y-93151123D01*
X174246899Y-92615868D01*
X174298676Y-92059827D01*
X174240979Y-91504370D01*
X174076027Y-90970841D01*
X173827017Y-90504977D01*
X173439774Y-90264831D01*
X171629605Y-92075000D01*
X171270395Y-92075000D01*
X169460226Y-90264831D01*
X169072983Y-90504977D01*
X168812360Y-90998877D01*
X168653101Y-91534132D01*
X168601324Y-92090173D01*
X168021000Y-92090173D01*
X168021000Y-91059000D01*
X168008799Y-90935118D01*
X167972664Y-90815996D01*
X167913983Y-90706213D01*
X167835013Y-90609987D01*
X167738787Y-90531017D01*
X167629004Y-90472336D01*
X167509882Y-90436201D01*
X167386000Y-90424000D01*
X147828000Y-90424000D01*
X147704118Y-90436201D01*
X147584996Y-90472336D01*
X147475213Y-90531017D01*
X147378987Y-90609987D01*
X147300017Y-90706213D01*
X147241336Y-90815996D01*
X147205201Y-90935118D01*
X147193000Y-91059000D01*
X147193000Y-91672898D01*
X147163387Y-91648595D01*
X147009851Y-91566528D01*
X146843255Y-91515992D01*
X146670001Y-91498928D01*
X145969999Y-91498928D01*
X145796745Y-91515992D01*
X145630149Y-91566528D01*
X145476613Y-91648595D01*
X145342038Y-91759038D01*
X145231595Y-91893613D01*
X145149528Y-92047149D01*
X145098992Y-92213745D01*
X145081928Y-92386999D01*
X145081928Y-93287001D01*
X145098992Y-93460255D01*
X145149528Y-93626851D01*
X145231595Y-93780387D01*
X145342038Y-93914962D01*
X145476613Y-94025405D01*
X145542001Y-94060356D01*
X145542000Y-94900721D01*
X145447377Y-94978377D01*
X145338488Y-95111058D01*
X145257577Y-95262433D01*
X145207752Y-95426684D01*
X145190928Y-95597500D01*
X145190928Y-96172500D01*
X145207752Y-96343316D01*
X145257577Y-96507567D01*
X145338488Y-96658942D01*
X145358099Y-96682839D01*
X145298463Y-96755506D01*
X145239498Y-96865820D01*
X145203188Y-96985518D01*
X145199004Y-97028000D01*
X133350000Y-97028000D01*
X133325224Y-97030440D01*
X133301399Y-97037667D01*
X133279443Y-97049403D01*
X133260197Y-97065197D01*
X133244403Y-97084443D01*
X133232667Y-97106399D01*
X133225440Y-97130224D01*
X133223000Y-97155000D01*
X133223000Y-104902000D01*
X132328750Y-104902000D01*
X132263488Y-104898783D01*
X132241776Y-104902000D01*
X131064000Y-104902000D01*
X131039224Y-104904440D01*
X131015399Y-104911667D01*
X130993443Y-104923403D01*
X130974197Y-104939197D01*
X130958403Y-104958443D01*
X130946667Y-104980399D01*
X130939440Y-105004224D01*
X130937000Y-105029000D01*
X130937000Y-106010294D01*
X130907700Y-106127184D01*
X130893783Y-106409512D01*
X130935213Y-106689130D01*
X130937000Y-106694127D01*
X130937000Y-106807000D01*
X130939440Y-106831776D01*
X130946667Y-106855601D01*
X130958403Y-106877557D01*
X130974197Y-106896803D01*
X130993443Y-106912597D01*
X131015399Y-106924333D01*
X131019803Y-106925669D01*
X131030397Y-106955292D01*
X131097329Y-107080514D01*
X131341298Y-107152097D01*
X131559395Y-106934000D01*
X131918605Y-106934000D01*
X131520903Y-107331702D01*
X131541215Y-107400928D01*
X131534000Y-107400928D01*
X131409518Y-107413188D01*
X131289820Y-107449498D01*
X131179506Y-107508463D01*
X131082815Y-107587815D01*
X131003463Y-107684506D01*
X130944498Y-107794820D01*
X130908188Y-107914518D01*
X130904693Y-107950000D01*
X130048000Y-107950000D01*
X129924118Y-107962201D01*
X129804996Y-107998336D01*
X129695213Y-108057017D01*
X129598987Y-108135987D01*
X129520017Y-108232213D01*
X129461336Y-108341996D01*
X129425201Y-108461118D01*
X129413000Y-108585000D01*
X129413000Y-111760000D01*
X128524000Y-111760000D01*
X128524000Y-110757573D01*
X128644886Y-110676799D01*
X128837799Y-110483886D01*
X128989371Y-110257043D01*
X129093775Y-110004989D01*
X129147000Y-109737411D01*
X129147000Y-109464589D01*
X129093775Y-109197011D01*
X128989371Y-108944957D01*
X128837799Y-108718114D01*
X128644886Y-108525201D01*
X128418043Y-108373629D01*
X128165989Y-108269225D01*
X127898411Y-108216000D01*
X127625589Y-108216000D01*
X127358011Y-108269225D01*
X127105957Y-108373629D01*
X126879114Y-108525201D01*
X126686201Y-108718114D01*
X126534629Y-108944957D01*
X126430225Y-109197011D01*
X126377000Y-109464589D01*
X126377000Y-109737411D01*
X126430225Y-110004989D01*
X126534629Y-110257043D01*
X126686201Y-110483886D01*
X126879114Y-110676799D01*
X127000000Y-110757573D01*
X127000001Y-111760000D01*
X126492000Y-111760000D01*
X126368118Y-111772201D01*
X126248996Y-111808336D01*
X126139213Y-111867017D01*
X126042987Y-111945987D01*
X125964017Y-112042213D01*
X125905336Y-112151996D01*
X125869201Y-112271118D01*
X125857000Y-112395000D01*
X118795000Y-112395000D01*
X118795000Y-94064774D01*
X120109831Y-94064774D01*
X120349977Y-94452017D01*
X120843877Y-94712640D01*
X121379132Y-94871899D01*
X121935173Y-94923676D01*
X122490630Y-94865979D01*
X123024159Y-94701027D01*
X123490023Y-94452017D01*
X123730169Y-94064774D01*
X121920000Y-92254605D01*
X120109831Y-94064774D01*
X118795000Y-94064774D01*
X118795000Y-92090173D01*
X119071324Y-92090173D01*
X119129021Y-92645630D01*
X119293973Y-93179159D01*
X119542983Y-93645023D01*
X119930226Y-93885169D01*
X121740395Y-92075000D01*
X122099605Y-92075000D01*
X123909774Y-93885169D01*
X124297017Y-93645023D01*
X124557640Y-93151123D01*
X124716899Y-92615868D01*
X124768676Y-92059827D01*
X124710979Y-91504370D01*
X124546027Y-90970841D01*
X124297017Y-90504977D01*
X123909774Y-90264831D01*
X122099605Y-92075000D01*
X121740395Y-92075000D01*
X119930226Y-90264831D01*
X119542983Y-90504977D01*
X119282360Y-90998877D01*
X119123101Y-91534132D01*
X119071324Y-92090173D01*
X118795000Y-92090173D01*
X118795000Y-92041353D01*
X118785711Y-91947044D01*
X118833096Y-91463778D01*
X119010606Y-90875836D01*
X119298937Y-90333564D01*
X119501476Y-90085226D01*
X120109831Y-90085226D01*
X121920000Y-91895395D01*
X123730169Y-90085226D01*
X169639831Y-90085226D01*
X171450000Y-91895395D01*
X173260169Y-90085226D01*
X173020023Y-89697983D01*
X172526123Y-89437360D01*
X171990868Y-89278101D01*
X171434827Y-89226324D01*
X170879370Y-89284021D01*
X170345841Y-89448973D01*
X169879977Y-89697983D01*
X169639831Y-90085226D01*
X123730169Y-90085226D01*
X123490023Y-89697983D01*
X122996123Y-89437360D01*
X122460868Y-89278101D01*
X121904827Y-89226324D01*
X121349370Y-89284021D01*
X120815841Y-89448973D01*
X120349977Y-89697983D01*
X120109831Y-90085226D01*
X119501476Y-90085226D01*
X119687094Y-89857636D01*
X120160314Y-89466155D01*
X120700552Y-89174049D01*
X121287244Y-88992437D01*
X121785616Y-88940057D01*
X121785717Y-88940088D01*
G37*
%TD.AperFunction*%
%TD*%
M02*
