%TF.GenerationSoftware,KiCad,Pcbnew,(5.1.12)-1*%
%TF.CreationDate,2021-11-13T04:14:35-08:00*%
%TF.ProjectId,techdemo,74656368-6465-46d6-9f2e-6b696361645f,rev?*%
%TF.SameCoordinates,Original*%
%TF.FileFunction,Copper,L2,Bot*%
%TF.FilePolarity,Positive*%
%FSLAX46Y46*%
G04 Gerber Fmt 4.6, Leading zero omitted, Abs format (unit mm)*
G04 Created by KiCad (PCBNEW (5.1.12)-1) date 2021-11-13 04:14:35*
%MOMM*%
%LPD*%
G01*
G04 APERTURE LIST*
%TA.AperFunction,ComponentPad*%
%ADD10C,4.400000*%
%TD*%
%TA.AperFunction,ComponentPad*%
%ADD11O,1.700000X1.700000*%
%TD*%
%TA.AperFunction,ComponentPad*%
%ADD12R,1.700000X1.700000*%
%TD*%
%TA.AperFunction,ComponentPad*%
%ADD13C,2.600000*%
%TD*%
%TA.AperFunction,ComponentPad*%
%ADD14R,2.600000X2.600000*%
%TD*%
%TA.AperFunction,ViaPad*%
%ADD15C,0.508000*%
%TD*%
%TA.AperFunction,Conductor*%
%ADD16C,0.254000*%
%TD*%
%TA.AperFunction,Conductor*%
%ADD17C,0.100000*%
%TD*%
G04 APERTURE END LIST*
D10*
%TO.P,REF\u002A\u002A,1*%
%TO.N,N/C*%
X144780000Y-82550000D03*
%TD*%
%TO.P,REF\u002A\u002A,1*%
%TO.N,N/C*%
X144780000Y-104140000D03*
%TD*%
%TO.P,REF\u002A\u002A,1*%
%TO.N,N/C*%
X191770000Y-104140000D03*
%TD*%
%TO.P,REF\u002A\u002A,1*%
%TO.N,N/C*%
X191770000Y-82550000D03*
%TD*%
D11*
%TO.P,J2,2*%
%TO.N,GND*%
X193040000Y-95250000D03*
D12*
%TO.P,J2,1*%
%TO.N,Net-(C6-Pad1)*%
X193040000Y-92710000D03*
%TD*%
D13*
%TO.P,J1,3*%
%TO.N,GND*%
X148130000Y-94870000D03*
%TO.P,J1,2*%
X145130000Y-90170000D03*
D14*
%TO.P,J1,1*%
%TO.N,Net-(C1-Pad1)*%
X151130000Y-90170000D03*
%TD*%
D15*
%TO.N,Net-(C2-Pad1)*%
X157480000Y-87630000D03*
X161290000Y-91440000D03*
%TO.N,Net-(R4-Pad2)*%
X173990000Y-100330000D03*
X163830000Y-97790000D03*
%TD*%
D16*
%TO.N,Net-(C2-Pad1)*%
X157480000Y-87630000D02*
X161290000Y-91440000D01*
%TO.N,Net-(R4-Pad2)*%
X163830000Y-97790000D02*
X166370000Y-100330000D01*
X166370000Y-100330000D02*
X173990000Y-100330000D01*
%TD*%
%TO.N,GND*%
X192381222Y-79463096D02*
X192969164Y-79640606D01*
X193511436Y-79928937D01*
X193987364Y-80317094D01*
X194378845Y-80790314D01*
X194670951Y-81330552D01*
X194852563Y-81917244D01*
X194920001Y-82558888D01*
X194920000Y-104107721D01*
X194856904Y-104751221D01*
X194679394Y-105339164D01*
X194391063Y-105881436D01*
X194002906Y-106357364D01*
X193529686Y-106748845D01*
X192989449Y-107040950D01*
X192402756Y-107222563D01*
X191761130Y-107290000D01*
X144812279Y-107290000D01*
X144168779Y-107226904D01*
X143580836Y-107049394D01*
X143038564Y-106761063D01*
X142562636Y-106372906D01*
X142171155Y-105899686D01*
X141879050Y-105359449D01*
X141697437Y-104772756D01*
X141630000Y-104131130D01*
X141630000Y-103860777D01*
X141945000Y-103860777D01*
X141945000Y-104419223D01*
X142053948Y-104966939D01*
X142267656Y-105482876D01*
X142577912Y-105947207D01*
X142972793Y-106342088D01*
X143437124Y-106652344D01*
X143953061Y-106866052D01*
X144500777Y-106975000D01*
X145059223Y-106975000D01*
X145606939Y-106866052D01*
X146122876Y-106652344D01*
X146587207Y-106342088D01*
X146982088Y-105947207D01*
X147292344Y-105482876D01*
X147506052Y-104966939D01*
X147615000Y-104419223D01*
X147615000Y-103860777D01*
X188935000Y-103860777D01*
X188935000Y-104419223D01*
X189043948Y-104966939D01*
X189257656Y-105482876D01*
X189567912Y-105947207D01*
X189962793Y-106342088D01*
X190427124Y-106652344D01*
X190943061Y-106866052D01*
X191490777Y-106975000D01*
X192049223Y-106975000D01*
X192596939Y-106866052D01*
X193112876Y-106652344D01*
X193577207Y-106342088D01*
X193972088Y-105947207D01*
X194282344Y-105482876D01*
X194496052Y-104966939D01*
X194605000Y-104419223D01*
X194605000Y-103860777D01*
X194496052Y-103313061D01*
X194282344Y-102797124D01*
X193972088Y-102332793D01*
X193577207Y-101937912D01*
X193112876Y-101627656D01*
X192596939Y-101413948D01*
X192049223Y-101305000D01*
X191490777Y-101305000D01*
X190943061Y-101413948D01*
X190427124Y-101627656D01*
X189962793Y-101937912D01*
X189567912Y-102332793D01*
X189257656Y-102797124D01*
X189043948Y-103313061D01*
X188935000Y-103860777D01*
X147615000Y-103860777D01*
X147506052Y-103313061D01*
X147292344Y-102797124D01*
X146982088Y-102332793D01*
X146587207Y-101937912D01*
X146122876Y-101627656D01*
X145606939Y-101413948D01*
X145059223Y-101305000D01*
X144500777Y-101305000D01*
X143953061Y-101413948D01*
X143437124Y-101627656D01*
X142972793Y-101937912D01*
X142577912Y-102332793D01*
X142267656Y-102797124D01*
X142053948Y-103313061D01*
X141945000Y-103860777D01*
X141630000Y-103860777D01*
X141630000Y-97702441D01*
X162941000Y-97702441D01*
X162941000Y-97877559D01*
X162975164Y-98049312D01*
X163042179Y-98211099D01*
X163139469Y-98356704D01*
X163263296Y-98480531D01*
X163408901Y-98577821D01*
X163570688Y-98644836D01*
X163616273Y-98653904D01*
X165804721Y-100842352D01*
X165828578Y-100871422D01*
X165944608Y-100966645D01*
X166076985Y-101037402D01*
X166220622Y-101080974D01*
X166332574Y-101092000D01*
X166332576Y-101092000D01*
X166369999Y-101095686D01*
X166407422Y-101092000D01*
X173530257Y-101092000D01*
X173568901Y-101117821D01*
X173730688Y-101184836D01*
X173902441Y-101219000D01*
X174077559Y-101219000D01*
X174249312Y-101184836D01*
X174411099Y-101117821D01*
X174556704Y-101020531D01*
X174680531Y-100896704D01*
X174777821Y-100751099D01*
X174844836Y-100589312D01*
X174879000Y-100417559D01*
X174879000Y-100242441D01*
X174844836Y-100070688D01*
X174777821Y-99908901D01*
X174680531Y-99763296D01*
X174556704Y-99639469D01*
X174411099Y-99542179D01*
X174249312Y-99475164D01*
X174077559Y-99441000D01*
X173902441Y-99441000D01*
X173730688Y-99475164D01*
X173568901Y-99542179D01*
X173530257Y-99568000D01*
X166685631Y-99568000D01*
X164693904Y-97576273D01*
X164684836Y-97530688D01*
X164617821Y-97368901D01*
X164520531Y-97223296D01*
X164396704Y-97099469D01*
X164251099Y-97002179D01*
X164089312Y-96935164D01*
X163917559Y-96901000D01*
X163742441Y-96901000D01*
X163570688Y-96935164D01*
X163408901Y-97002179D01*
X163263296Y-97099469D01*
X163139469Y-97223296D01*
X163042179Y-97368901D01*
X162975164Y-97530688D01*
X162941000Y-97702441D01*
X141630000Y-97702441D01*
X141630000Y-96219224D01*
X146960381Y-96219224D01*
X147092317Y-96514312D01*
X147433045Y-96685159D01*
X147800557Y-96786250D01*
X148180729Y-96813701D01*
X148558951Y-96766457D01*
X148920690Y-96646333D01*
X149167683Y-96514312D01*
X149299619Y-96219224D01*
X148130000Y-95049605D01*
X146960381Y-96219224D01*
X141630000Y-96219224D01*
X141630000Y-94920729D01*
X146186299Y-94920729D01*
X146233543Y-95298951D01*
X146353667Y-95660690D01*
X146485688Y-95907683D01*
X146780776Y-96039619D01*
X147950395Y-94870000D01*
X148309605Y-94870000D01*
X149479224Y-96039619D01*
X149774312Y-95907683D01*
X149925134Y-95606890D01*
X191598524Y-95606890D01*
X191643175Y-95754099D01*
X191768359Y-96016920D01*
X191942412Y-96250269D01*
X192158645Y-96445178D01*
X192408748Y-96594157D01*
X192683109Y-96691481D01*
X192913000Y-96570814D01*
X192913000Y-95377000D01*
X193167000Y-95377000D01*
X193167000Y-96570814D01*
X193396891Y-96691481D01*
X193671252Y-96594157D01*
X193921355Y-96445178D01*
X194137588Y-96250269D01*
X194311641Y-96016920D01*
X194436825Y-95754099D01*
X194481476Y-95606890D01*
X194360155Y-95377000D01*
X193167000Y-95377000D01*
X192913000Y-95377000D01*
X191719845Y-95377000D01*
X191598524Y-95606890D01*
X149925134Y-95606890D01*
X149945159Y-95566955D01*
X150046250Y-95199443D01*
X150073701Y-94819271D01*
X150026457Y-94441049D01*
X149906333Y-94079310D01*
X149774312Y-93832317D01*
X149479224Y-93700381D01*
X148309605Y-94870000D01*
X147950395Y-94870000D01*
X146780776Y-93700381D01*
X146485688Y-93832317D01*
X146314841Y-94173045D01*
X146213750Y-94540557D01*
X146186299Y-94920729D01*
X141630000Y-94920729D01*
X141630000Y-93520776D01*
X146960381Y-93520776D01*
X148130000Y-94690395D01*
X149299619Y-93520776D01*
X149167683Y-93225688D01*
X148826955Y-93054841D01*
X148459443Y-92953750D01*
X148079271Y-92926299D01*
X147701049Y-92973543D01*
X147339310Y-93093667D01*
X147092317Y-93225688D01*
X146960381Y-93520776D01*
X141630000Y-93520776D01*
X141630000Y-91519224D01*
X143960381Y-91519224D01*
X144092317Y-91814312D01*
X144433045Y-91985159D01*
X144800557Y-92086250D01*
X145180729Y-92113701D01*
X145558951Y-92066457D01*
X145920690Y-91946333D01*
X146167683Y-91814312D01*
X146299619Y-91519224D01*
X145130000Y-90349605D01*
X143960381Y-91519224D01*
X141630000Y-91519224D01*
X141630000Y-90220729D01*
X143186299Y-90220729D01*
X143233543Y-90598951D01*
X143353667Y-90960690D01*
X143485688Y-91207683D01*
X143780776Y-91339619D01*
X144950395Y-90170000D01*
X145309605Y-90170000D01*
X146479224Y-91339619D01*
X146774312Y-91207683D01*
X146945159Y-90866955D01*
X147046250Y-90499443D01*
X147073701Y-90119271D01*
X147026457Y-89741049D01*
X146906333Y-89379310D01*
X146774312Y-89132317D01*
X146479224Y-89000381D01*
X145309605Y-90170000D01*
X144950395Y-90170000D01*
X143780776Y-89000381D01*
X143485688Y-89132317D01*
X143314841Y-89473045D01*
X143213750Y-89840557D01*
X143186299Y-90220729D01*
X141630000Y-90220729D01*
X141630000Y-88820776D01*
X143960381Y-88820776D01*
X145130000Y-89990395D01*
X146250395Y-88870000D01*
X149191928Y-88870000D01*
X149191928Y-91470000D01*
X149204188Y-91594482D01*
X149240498Y-91714180D01*
X149299463Y-91824494D01*
X149378815Y-91921185D01*
X149475506Y-92000537D01*
X149585820Y-92059502D01*
X149705518Y-92095812D01*
X149830000Y-92108072D01*
X152430000Y-92108072D01*
X152554482Y-92095812D01*
X152674180Y-92059502D01*
X152784494Y-92000537D01*
X152881185Y-91921185D01*
X152960537Y-91824494D01*
X153019502Y-91714180D01*
X153055812Y-91594482D01*
X153068072Y-91470000D01*
X153068072Y-88870000D01*
X153055812Y-88745518D01*
X153019502Y-88625820D01*
X152960537Y-88515506D01*
X152881185Y-88418815D01*
X152784494Y-88339463D01*
X152674180Y-88280498D01*
X152554482Y-88244188D01*
X152430000Y-88231928D01*
X149830000Y-88231928D01*
X149705518Y-88244188D01*
X149585820Y-88280498D01*
X149475506Y-88339463D01*
X149378815Y-88418815D01*
X149299463Y-88515506D01*
X149240498Y-88625820D01*
X149204188Y-88745518D01*
X149191928Y-88870000D01*
X146250395Y-88870000D01*
X146299619Y-88820776D01*
X146167683Y-88525688D01*
X145826955Y-88354841D01*
X145459443Y-88253750D01*
X145079271Y-88226299D01*
X144701049Y-88273543D01*
X144339310Y-88393667D01*
X144092317Y-88525688D01*
X143960381Y-88820776D01*
X141630000Y-88820776D01*
X141630000Y-87542441D01*
X156591000Y-87542441D01*
X156591000Y-87717559D01*
X156625164Y-87889312D01*
X156692179Y-88051099D01*
X156789469Y-88196704D01*
X156913296Y-88320531D01*
X157058901Y-88417821D01*
X157220688Y-88484836D01*
X157266274Y-88493904D01*
X160426096Y-91653726D01*
X160435164Y-91699312D01*
X160502179Y-91861099D01*
X160599469Y-92006704D01*
X160723296Y-92130531D01*
X160868901Y-92227821D01*
X161030688Y-92294836D01*
X161202441Y-92329000D01*
X161377559Y-92329000D01*
X161549312Y-92294836D01*
X161711099Y-92227821D01*
X161856704Y-92130531D01*
X161980531Y-92006704D01*
X162077821Y-91861099D01*
X162078276Y-91860000D01*
X191551928Y-91860000D01*
X191551928Y-93560000D01*
X191564188Y-93684482D01*
X191600498Y-93804180D01*
X191659463Y-93914494D01*
X191738815Y-94011185D01*
X191835506Y-94090537D01*
X191945820Y-94149502D01*
X192026466Y-94173966D01*
X191942412Y-94249731D01*
X191768359Y-94483080D01*
X191643175Y-94745901D01*
X191598524Y-94893110D01*
X191719845Y-95123000D01*
X192913000Y-95123000D01*
X192913000Y-95103000D01*
X193167000Y-95103000D01*
X193167000Y-95123000D01*
X194360155Y-95123000D01*
X194481476Y-94893110D01*
X194436825Y-94745901D01*
X194311641Y-94483080D01*
X194137588Y-94249731D01*
X194053534Y-94173966D01*
X194134180Y-94149502D01*
X194244494Y-94090537D01*
X194341185Y-94011185D01*
X194420537Y-93914494D01*
X194479502Y-93804180D01*
X194515812Y-93684482D01*
X194528072Y-93560000D01*
X194528072Y-91860000D01*
X194515812Y-91735518D01*
X194479502Y-91615820D01*
X194420537Y-91505506D01*
X194341185Y-91408815D01*
X194244494Y-91329463D01*
X194134180Y-91270498D01*
X194014482Y-91234188D01*
X193890000Y-91221928D01*
X192190000Y-91221928D01*
X192065518Y-91234188D01*
X191945820Y-91270498D01*
X191835506Y-91329463D01*
X191738815Y-91408815D01*
X191659463Y-91505506D01*
X191600498Y-91615820D01*
X191564188Y-91735518D01*
X191551928Y-91860000D01*
X162078276Y-91860000D01*
X162144836Y-91699312D01*
X162179000Y-91527559D01*
X162179000Y-91352441D01*
X162144836Y-91180688D01*
X162077821Y-91018901D01*
X161980531Y-90873296D01*
X161856704Y-90749469D01*
X161711099Y-90652179D01*
X161549312Y-90585164D01*
X161503726Y-90576096D01*
X158343904Y-87416274D01*
X158334836Y-87370688D01*
X158267821Y-87208901D01*
X158170531Y-87063296D01*
X158046704Y-86939469D01*
X157901099Y-86842179D01*
X157739312Y-86775164D01*
X157567559Y-86741000D01*
X157392441Y-86741000D01*
X157220688Y-86775164D01*
X157058901Y-86842179D01*
X156913296Y-86939469D01*
X156789469Y-87063296D01*
X156692179Y-87208901D01*
X156625164Y-87370688D01*
X156591000Y-87542441D01*
X141630000Y-87542441D01*
X141630000Y-82582279D01*
X141660543Y-82270777D01*
X141945000Y-82270777D01*
X141945000Y-82829223D01*
X142053948Y-83376939D01*
X142267656Y-83892876D01*
X142577912Y-84357207D01*
X142972793Y-84752088D01*
X143437124Y-85062344D01*
X143953061Y-85276052D01*
X144500777Y-85385000D01*
X145059223Y-85385000D01*
X145606939Y-85276052D01*
X146122876Y-85062344D01*
X146587207Y-84752088D01*
X146982088Y-84357207D01*
X147292344Y-83892876D01*
X147506052Y-83376939D01*
X147615000Y-82829223D01*
X147615000Y-82270777D01*
X188935000Y-82270777D01*
X188935000Y-82829223D01*
X189043948Y-83376939D01*
X189257656Y-83892876D01*
X189567912Y-84357207D01*
X189962793Y-84752088D01*
X190427124Y-85062344D01*
X190943061Y-85276052D01*
X191490777Y-85385000D01*
X192049223Y-85385000D01*
X192596939Y-85276052D01*
X193112876Y-85062344D01*
X193577207Y-84752088D01*
X193972088Y-84357207D01*
X194282344Y-83892876D01*
X194496052Y-83376939D01*
X194605000Y-82829223D01*
X194605000Y-82270777D01*
X194496052Y-81723061D01*
X194282344Y-81207124D01*
X193972088Y-80742793D01*
X193577207Y-80347912D01*
X193112876Y-80037656D01*
X192596939Y-79823948D01*
X192049223Y-79715000D01*
X191490777Y-79715000D01*
X190943061Y-79823948D01*
X190427124Y-80037656D01*
X189962793Y-80347912D01*
X189567912Y-80742793D01*
X189257656Y-81207124D01*
X189043948Y-81723061D01*
X188935000Y-82270777D01*
X147615000Y-82270777D01*
X147506052Y-81723061D01*
X147292344Y-81207124D01*
X146982088Y-80742793D01*
X146587207Y-80347912D01*
X146122876Y-80037656D01*
X145606939Y-79823948D01*
X145059223Y-79715000D01*
X144500777Y-79715000D01*
X143953061Y-79823948D01*
X143437124Y-80037656D01*
X142972793Y-80347912D01*
X142577912Y-80742793D01*
X142267656Y-81207124D01*
X142053948Y-81723061D01*
X141945000Y-82270777D01*
X141660543Y-82270777D01*
X141693096Y-81938778D01*
X141870606Y-81350836D01*
X142158937Y-80808564D01*
X142547094Y-80332636D01*
X143020314Y-79941155D01*
X143560552Y-79649049D01*
X144147244Y-79467437D01*
X144788879Y-79400000D01*
X191737721Y-79400000D01*
X192381222Y-79463096D01*
%TA.AperFunction,Conductor*%
D17*
G36*
X192381222Y-79463096D02*
G01*
X192969164Y-79640606D01*
X193511436Y-79928937D01*
X193987364Y-80317094D01*
X194378845Y-80790314D01*
X194670951Y-81330552D01*
X194852563Y-81917244D01*
X194920001Y-82558888D01*
X194920000Y-104107721D01*
X194856904Y-104751221D01*
X194679394Y-105339164D01*
X194391063Y-105881436D01*
X194002906Y-106357364D01*
X193529686Y-106748845D01*
X192989449Y-107040950D01*
X192402756Y-107222563D01*
X191761130Y-107290000D01*
X144812279Y-107290000D01*
X144168779Y-107226904D01*
X143580836Y-107049394D01*
X143038564Y-106761063D01*
X142562636Y-106372906D01*
X142171155Y-105899686D01*
X141879050Y-105359449D01*
X141697437Y-104772756D01*
X141630000Y-104131130D01*
X141630000Y-103860777D01*
X141945000Y-103860777D01*
X141945000Y-104419223D01*
X142053948Y-104966939D01*
X142267656Y-105482876D01*
X142577912Y-105947207D01*
X142972793Y-106342088D01*
X143437124Y-106652344D01*
X143953061Y-106866052D01*
X144500777Y-106975000D01*
X145059223Y-106975000D01*
X145606939Y-106866052D01*
X146122876Y-106652344D01*
X146587207Y-106342088D01*
X146982088Y-105947207D01*
X147292344Y-105482876D01*
X147506052Y-104966939D01*
X147615000Y-104419223D01*
X147615000Y-103860777D01*
X188935000Y-103860777D01*
X188935000Y-104419223D01*
X189043948Y-104966939D01*
X189257656Y-105482876D01*
X189567912Y-105947207D01*
X189962793Y-106342088D01*
X190427124Y-106652344D01*
X190943061Y-106866052D01*
X191490777Y-106975000D01*
X192049223Y-106975000D01*
X192596939Y-106866052D01*
X193112876Y-106652344D01*
X193577207Y-106342088D01*
X193972088Y-105947207D01*
X194282344Y-105482876D01*
X194496052Y-104966939D01*
X194605000Y-104419223D01*
X194605000Y-103860777D01*
X194496052Y-103313061D01*
X194282344Y-102797124D01*
X193972088Y-102332793D01*
X193577207Y-101937912D01*
X193112876Y-101627656D01*
X192596939Y-101413948D01*
X192049223Y-101305000D01*
X191490777Y-101305000D01*
X190943061Y-101413948D01*
X190427124Y-101627656D01*
X189962793Y-101937912D01*
X189567912Y-102332793D01*
X189257656Y-102797124D01*
X189043948Y-103313061D01*
X188935000Y-103860777D01*
X147615000Y-103860777D01*
X147506052Y-103313061D01*
X147292344Y-102797124D01*
X146982088Y-102332793D01*
X146587207Y-101937912D01*
X146122876Y-101627656D01*
X145606939Y-101413948D01*
X145059223Y-101305000D01*
X144500777Y-101305000D01*
X143953061Y-101413948D01*
X143437124Y-101627656D01*
X142972793Y-101937912D01*
X142577912Y-102332793D01*
X142267656Y-102797124D01*
X142053948Y-103313061D01*
X141945000Y-103860777D01*
X141630000Y-103860777D01*
X141630000Y-97702441D01*
X162941000Y-97702441D01*
X162941000Y-97877559D01*
X162975164Y-98049312D01*
X163042179Y-98211099D01*
X163139469Y-98356704D01*
X163263296Y-98480531D01*
X163408901Y-98577821D01*
X163570688Y-98644836D01*
X163616273Y-98653904D01*
X165804721Y-100842352D01*
X165828578Y-100871422D01*
X165944608Y-100966645D01*
X166076985Y-101037402D01*
X166220622Y-101080974D01*
X166332574Y-101092000D01*
X166332576Y-101092000D01*
X166369999Y-101095686D01*
X166407422Y-101092000D01*
X173530257Y-101092000D01*
X173568901Y-101117821D01*
X173730688Y-101184836D01*
X173902441Y-101219000D01*
X174077559Y-101219000D01*
X174249312Y-101184836D01*
X174411099Y-101117821D01*
X174556704Y-101020531D01*
X174680531Y-100896704D01*
X174777821Y-100751099D01*
X174844836Y-100589312D01*
X174879000Y-100417559D01*
X174879000Y-100242441D01*
X174844836Y-100070688D01*
X174777821Y-99908901D01*
X174680531Y-99763296D01*
X174556704Y-99639469D01*
X174411099Y-99542179D01*
X174249312Y-99475164D01*
X174077559Y-99441000D01*
X173902441Y-99441000D01*
X173730688Y-99475164D01*
X173568901Y-99542179D01*
X173530257Y-99568000D01*
X166685631Y-99568000D01*
X164693904Y-97576273D01*
X164684836Y-97530688D01*
X164617821Y-97368901D01*
X164520531Y-97223296D01*
X164396704Y-97099469D01*
X164251099Y-97002179D01*
X164089312Y-96935164D01*
X163917559Y-96901000D01*
X163742441Y-96901000D01*
X163570688Y-96935164D01*
X163408901Y-97002179D01*
X163263296Y-97099469D01*
X163139469Y-97223296D01*
X163042179Y-97368901D01*
X162975164Y-97530688D01*
X162941000Y-97702441D01*
X141630000Y-97702441D01*
X141630000Y-96219224D01*
X146960381Y-96219224D01*
X147092317Y-96514312D01*
X147433045Y-96685159D01*
X147800557Y-96786250D01*
X148180729Y-96813701D01*
X148558951Y-96766457D01*
X148920690Y-96646333D01*
X149167683Y-96514312D01*
X149299619Y-96219224D01*
X148130000Y-95049605D01*
X146960381Y-96219224D01*
X141630000Y-96219224D01*
X141630000Y-94920729D01*
X146186299Y-94920729D01*
X146233543Y-95298951D01*
X146353667Y-95660690D01*
X146485688Y-95907683D01*
X146780776Y-96039619D01*
X147950395Y-94870000D01*
X148309605Y-94870000D01*
X149479224Y-96039619D01*
X149774312Y-95907683D01*
X149925134Y-95606890D01*
X191598524Y-95606890D01*
X191643175Y-95754099D01*
X191768359Y-96016920D01*
X191942412Y-96250269D01*
X192158645Y-96445178D01*
X192408748Y-96594157D01*
X192683109Y-96691481D01*
X192913000Y-96570814D01*
X192913000Y-95377000D01*
X193167000Y-95377000D01*
X193167000Y-96570814D01*
X193396891Y-96691481D01*
X193671252Y-96594157D01*
X193921355Y-96445178D01*
X194137588Y-96250269D01*
X194311641Y-96016920D01*
X194436825Y-95754099D01*
X194481476Y-95606890D01*
X194360155Y-95377000D01*
X193167000Y-95377000D01*
X192913000Y-95377000D01*
X191719845Y-95377000D01*
X191598524Y-95606890D01*
X149925134Y-95606890D01*
X149945159Y-95566955D01*
X150046250Y-95199443D01*
X150073701Y-94819271D01*
X150026457Y-94441049D01*
X149906333Y-94079310D01*
X149774312Y-93832317D01*
X149479224Y-93700381D01*
X148309605Y-94870000D01*
X147950395Y-94870000D01*
X146780776Y-93700381D01*
X146485688Y-93832317D01*
X146314841Y-94173045D01*
X146213750Y-94540557D01*
X146186299Y-94920729D01*
X141630000Y-94920729D01*
X141630000Y-93520776D01*
X146960381Y-93520776D01*
X148130000Y-94690395D01*
X149299619Y-93520776D01*
X149167683Y-93225688D01*
X148826955Y-93054841D01*
X148459443Y-92953750D01*
X148079271Y-92926299D01*
X147701049Y-92973543D01*
X147339310Y-93093667D01*
X147092317Y-93225688D01*
X146960381Y-93520776D01*
X141630000Y-93520776D01*
X141630000Y-91519224D01*
X143960381Y-91519224D01*
X144092317Y-91814312D01*
X144433045Y-91985159D01*
X144800557Y-92086250D01*
X145180729Y-92113701D01*
X145558951Y-92066457D01*
X145920690Y-91946333D01*
X146167683Y-91814312D01*
X146299619Y-91519224D01*
X145130000Y-90349605D01*
X143960381Y-91519224D01*
X141630000Y-91519224D01*
X141630000Y-90220729D01*
X143186299Y-90220729D01*
X143233543Y-90598951D01*
X143353667Y-90960690D01*
X143485688Y-91207683D01*
X143780776Y-91339619D01*
X144950395Y-90170000D01*
X145309605Y-90170000D01*
X146479224Y-91339619D01*
X146774312Y-91207683D01*
X146945159Y-90866955D01*
X147046250Y-90499443D01*
X147073701Y-90119271D01*
X147026457Y-89741049D01*
X146906333Y-89379310D01*
X146774312Y-89132317D01*
X146479224Y-89000381D01*
X145309605Y-90170000D01*
X144950395Y-90170000D01*
X143780776Y-89000381D01*
X143485688Y-89132317D01*
X143314841Y-89473045D01*
X143213750Y-89840557D01*
X143186299Y-90220729D01*
X141630000Y-90220729D01*
X141630000Y-88820776D01*
X143960381Y-88820776D01*
X145130000Y-89990395D01*
X146250395Y-88870000D01*
X149191928Y-88870000D01*
X149191928Y-91470000D01*
X149204188Y-91594482D01*
X149240498Y-91714180D01*
X149299463Y-91824494D01*
X149378815Y-91921185D01*
X149475506Y-92000537D01*
X149585820Y-92059502D01*
X149705518Y-92095812D01*
X149830000Y-92108072D01*
X152430000Y-92108072D01*
X152554482Y-92095812D01*
X152674180Y-92059502D01*
X152784494Y-92000537D01*
X152881185Y-91921185D01*
X152960537Y-91824494D01*
X153019502Y-91714180D01*
X153055812Y-91594482D01*
X153068072Y-91470000D01*
X153068072Y-88870000D01*
X153055812Y-88745518D01*
X153019502Y-88625820D01*
X152960537Y-88515506D01*
X152881185Y-88418815D01*
X152784494Y-88339463D01*
X152674180Y-88280498D01*
X152554482Y-88244188D01*
X152430000Y-88231928D01*
X149830000Y-88231928D01*
X149705518Y-88244188D01*
X149585820Y-88280498D01*
X149475506Y-88339463D01*
X149378815Y-88418815D01*
X149299463Y-88515506D01*
X149240498Y-88625820D01*
X149204188Y-88745518D01*
X149191928Y-88870000D01*
X146250395Y-88870000D01*
X146299619Y-88820776D01*
X146167683Y-88525688D01*
X145826955Y-88354841D01*
X145459443Y-88253750D01*
X145079271Y-88226299D01*
X144701049Y-88273543D01*
X144339310Y-88393667D01*
X144092317Y-88525688D01*
X143960381Y-88820776D01*
X141630000Y-88820776D01*
X141630000Y-87542441D01*
X156591000Y-87542441D01*
X156591000Y-87717559D01*
X156625164Y-87889312D01*
X156692179Y-88051099D01*
X156789469Y-88196704D01*
X156913296Y-88320531D01*
X157058901Y-88417821D01*
X157220688Y-88484836D01*
X157266274Y-88493904D01*
X160426096Y-91653726D01*
X160435164Y-91699312D01*
X160502179Y-91861099D01*
X160599469Y-92006704D01*
X160723296Y-92130531D01*
X160868901Y-92227821D01*
X161030688Y-92294836D01*
X161202441Y-92329000D01*
X161377559Y-92329000D01*
X161549312Y-92294836D01*
X161711099Y-92227821D01*
X161856704Y-92130531D01*
X161980531Y-92006704D01*
X162077821Y-91861099D01*
X162078276Y-91860000D01*
X191551928Y-91860000D01*
X191551928Y-93560000D01*
X191564188Y-93684482D01*
X191600498Y-93804180D01*
X191659463Y-93914494D01*
X191738815Y-94011185D01*
X191835506Y-94090537D01*
X191945820Y-94149502D01*
X192026466Y-94173966D01*
X191942412Y-94249731D01*
X191768359Y-94483080D01*
X191643175Y-94745901D01*
X191598524Y-94893110D01*
X191719845Y-95123000D01*
X192913000Y-95123000D01*
X192913000Y-95103000D01*
X193167000Y-95103000D01*
X193167000Y-95123000D01*
X194360155Y-95123000D01*
X194481476Y-94893110D01*
X194436825Y-94745901D01*
X194311641Y-94483080D01*
X194137588Y-94249731D01*
X194053534Y-94173966D01*
X194134180Y-94149502D01*
X194244494Y-94090537D01*
X194341185Y-94011185D01*
X194420537Y-93914494D01*
X194479502Y-93804180D01*
X194515812Y-93684482D01*
X194528072Y-93560000D01*
X194528072Y-91860000D01*
X194515812Y-91735518D01*
X194479502Y-91615820D01*
X194420537Y-91505506D01*
X194341185Y-91408815D01*
X194244494Y-91329463D01*
X194134180Y-91270498D01*
X194014482Y-91234188D01*
X193890000Y-91221928D01*
X192190000Y-91221928D01*
X192065518Y-91234188D01*
X191945820Y-91270498D01*
X191835506Y-91329463D01*
X191738815Y-91408815D01*
X191659463Y-91505506D01*
X191600498Y-91615820D01*
X191564188Y-91735518D01*
X191551928Y-91860000D01*
X162078276Y-91860000D01*
X162144836Y-91699312D01*
X162179000Y-91527559D01*
X162179000Y-91352441D01*
X162144836Y-91180688D01*
X162077821Y-91018901D01*
X161980531Y-90873296D01*
X161856704Y-90749469D01*
X161711099Y-90652179D01*
X161549312Y-90585164D01*
X161503726Y-90576096D01*
X158343904Y-87416274D01*
X158334836Y-87370688D01*
X158267821Y-87208901D01*
X158170531Y-87063296D01*
X158046704Y-86939469D01*
X157901099Y-86842179D01*
X157739312Y-86775164D01*
X157567559Y-86741000D01*
X157392441Y-86741000D01*
X157220688Y-86775164D01*
X157058901Y-86842179D01*
X156913296Y-86939469D01*
X156789469Y-87063296D01*
X156692179Y-87208901D01*
X156625164Y-87370688D01*
X156591000Y-87542441D01*
X141630000Y-87542441D01*
X141630000Y-82582279D01*
X141660543Y-82270777D01*
X141945000Y-82270777D01*
X141945000Y-82829223D01*
X142053948Y-83376939D01*
X142267656Y-83892876D01*
X142577912Y-84357207D01*
X142972793Y-84752088D01*
X143437124Y-85062344D01*
X143953061Y-85276052D01*
X144500777Y-85385000D01*
X145059223Y-85385000D01*
X145606939Y-85276052D01*
X146122876Y-85062344D01*
X146587207Y-84752088D01*
X146982088Y-84357207D01*
X147292344Y-83892876D01*
X147506052Y-83376939D01*
X147615000Y-82829223D01*
X147615000Y-82270777D01*
X188935000Y-82270777D01*
X188935000Y-82829223D01*
X189043948Y-83376939D01*
X189257656Y-83892876D01*
X189567912Y-84357207D01*
X189962793Y-84752088D01*
X190427124Y-85062344D01*
X190943061Y-85276052D01*
X191490777Y-85385000D01*
X192049223Y-85385000D01*
X192596939Y-85276052D01*
X193112876Y-85062344D01*
X193577207Y-84752088D01*
X193972088Y-84357207D01*
X194282344Y-83892876D01*
X194496052Y-83376939D01*
X194605000Y-82829223D01*
X194605000Y-82270777D01*
X194496052Y-81723061D01*
X194282344Y-81207124D01*
X193972088Y-80742793D01*
X193577207Y-80347912D01*
X193112876Y-80037656D01*
X192596939Y-79823948D01*
X192049223Y-79715000D01*
X191490777Y-79715000D01*
X190943061Y-79823948D01*
X190427124Y-80037656D01*
X189962793Y-80347912D01*
X189567912Y-80742793D01*
X189257656Y-81207124D01*
X189043948Y-81723061D01*
X188935000Y-82270777D01*
X147615000Y-82270777D01*
X147506052Y-81723061D01*
X147292344Y-81207124D01*
X146982088Y-80742793D01*
X146587207Y-80347912D01*
X146122876Y-80037656D01*
X145606939Y-79823948D01*
X145059223Y-79715000D01*
X144500777Y-79715000D01*
X143953061Y-79823948D01*
X143437124Y-80037656D01*
X142972793Y-80347912D01*
X142577912Y-80742793D01*
X142267656Y-81207124D01*
X142053948Y-81723061D01*
X141945000Y-82270777D01*
X141660543Y-82270777D01*
X141693096Y-81938778D01*
X141870606Y-81350836D01*
X142158937Y-80808564D01*
X142547094Y-80332636D01*
X143020314Y-79941155D01*
X143560552Y-79649049D01*
X144147244Y-79467437D01*
X144788879Y-79400000D01*
X191737721Y-79400000D01*
X192381222Y-79463096D01*
G37*
%TD.AperFunction*%
%TD*%
M02*
