%TF.GenerationSoftware,KiCad,Pcbnew,(5.1.12)-1*%
%TF.CreationDate,2021-11-13T04:14:35-08:00*%
%TF.ProjectId,techdemo,74656368-6465-46d6-9f2e-6b696361645f,rev?*%
%TF.SameCoordinates,Original*%
%TF.FileFunction,Soldermask,Top*%
%TF.FilePolarity,Negative*%
%FSLAX46Y46*%
G04 Gerber Fmt 4.6, Leading zero omitted, Abs format (unit mm)*
G04 Created by KiCad (PCBNEW (5.1.12)-1) date 2021-11-13 04:14:35*
%MOMM*%
%LPD*%
G01*
G04 APERTURE LIST*
%ADD10C,4.501600*%
%ADD11O,1.801600X1.801600*%
%ADD12C,2.701600*%
G04 APERTURE END LIST*
D10*
%TO.C,REF\u002A\u002A*%
X144780000Y-82550000D03*
%TD*%
%TO.C,REF\u002A\u002A*%
X144780000Y-104140000D03*
%TD*%
%TO.C,REF\u002A\u002A*%
X191770000Y-104140000D03*
%TD*%
%TO.C,REF\u002A\u002A*%
X191770000Y-82550000D03*
%TD*%
%TO.C,C2*%
G36*
G01*
X155935800Y-89907100D02*
X155935800Y-90432900D01*
G75*
G02*
X155672900Y-90695800I-262900J0D01*
G01*
X155022100Y-90695800D01*
G75*
G02*
X154759200Y-90432900I0J262900D01*
G01*
X154759200Y-89907100D01*
G75*
G02*
X155022100Y-89644200I262900J0D01*
G01*
X155672900Y-89644200D01*
G75*
G02*
X155935800Y-89907100I0J-262900D01*
G01*
G37*
G36*
G01*
X157660800Y-89907100D02*
X157660800Y-90432900D01*
G75*
G02*
X157397900Y-90695800I-262900J0D01*
G01*
X156747100Y-90695800D01*
G75*
G02*
X156484200Y-90432900I0J262900D01*
G01*
X156484200Y-89907100D01*
G75*
G02*
X156747100Y-89644200I262900J0D01*
G01*
X157397900Y-89644200D01*
G75*
G02*
X157660800Y-89907100I0J-262900D01*
G01*
G37*
%TD*%
%TO.C,L1*%
G36*
G01*
X176259200Y-91000000D02*
X176259200Y-86800000D01*
G75*
G02*
X176310000Y-86749200I50800J0D01*
G01*
X178710000Y-86749200D01*
G75*
G02*
X178760800Y-86800000I0J-50800D01*
G01*
X178760800Y-91000000D01*
G75*
G02*
X178710000Y-91050800I-50800J0D01*
G01*
X176310000Y-91050800D01*
G75*
G02*
X176259200Y-91000000I0J50800D01*
G01*
G37*
G36*
G01*
X171759200Y-91000000D02*
X171759200Y-86800000D01*
G75*
G02*
X171810000Y-86749200I50800J0D01*
G01*
X174210000Y-86749200D01*
G75*
G02*
X174260800Y-86800000I0J-50800D01*
G01*
X174260800Y-91000000D01*
G75*
G02*
X174210000Y-91050800I-50800J0D01*
G01*
X171810000Y-91050800D01*
G75*
G02*
X171759200Y-91000000I0J50800D01*
G01*
G37*
%TD*%
%TO.C,U1*%
G36*
G01*
X160199200Y-93520400D02*
X160199200Y-93169600D01*
G75*
G02*
X160374600Y-92994200I175400J0D01*
G01*
X162075400Y-92994200D01*
G75*
G02*
X162250800Y-93169600I0J-175400D01*
G01*
X162250800Y-93520400D01*
G75*
G02*
X162075400Y-93695800I-175400J0D01*
G01*
X160374600Y-93695800D01*
G75*
G02*
X160199200Y-93520400I0J175400D01*
G01*
G37*
G36*
G01*
X160199200Y-94790400D02*
X160199200Y-94439600D01*
G75*
G02*
X160374600Y-94264200I175400J0D01*
G01*
X162075400Y-94264200D01*
G75*
G02*
X162250800Y-94439600I0J-175400D01*
G01*
X162250800Y-94790400D01*
G75*
G02*
X162075400Y-94965800I-175400J0D01*
G01*
X160374600Y-94965800D01*
G75*
G02*
X160199200Y-94790400I0J175400D01*
G01*
G37*
G36*
G01*
X160199200Y-96060400D02*
X160199200Y-95709600D01*
G75*
G02*
X160374600Y-95534200I175400J0D01*
G01*
X162075400Y-95534200D01*
G75*
G02*
X162250800Y-95709600I0J-175400D01*
G01*
X162250800Y-96060400D01*
G75*
G02*
X162075400Y-96235800I-175400J0D01*
G01*
X160374600Y-96235800D01*
G75*
G02*
X160199200Y-96060400I0J175400D01*
G01*
G37*
G36*
G01*
X160199200Y-97330400D02*
X160199200Y-96979600D01*
G75*
G02*
X160374600Y-96804200I175400J0D01*
G01*
X162075400Y-96804200D01*
G75*
G02*
X162250800Y-96979600I0J-175400D01*
G01*
X162250800Y-97330400D01*
G75*
G02*
X162075400Y-97505800I-175400J0D01*
G01*
X160374600Y-97505800D01*
G75*
G02*
X160199200Y-97330400I0J175400D01*
G01*
G37*
G36*
G01*
X155249200Y-97330400D02*
X155249200Y-96979600D01*
G75*
G02*
X155424600Y-96804200I175400J0D01*
G01*
X157125400Y-96804200D01*
G75*
G02*
X157300800Y-96979600I0J-175400D01*
G01*
X157300800Y-97330400D01*
G75*
G02*
X157125400Y-97505800I-175400J0D01*
G01*
X155424600Y-97505800D01*
G75*
G02*
X155249200Y-97330400I0J175400D01*
G01*
G37*
G36*
G01*
X155249200Y-96060400D02*
X155249200Y-95709600D01*
G75*
G02*
X155424600Y-95534200I175400J0D01*
G01*
X157125400Y-95534200D01*
G75*
G02*
X157300800Y-95709600I0J-175400D01*
G01*
X157300800Y-96060400D01*
G75*
G02*
X157125400Y-96235800I-175400J0D01*
G01*
X155424600Y-96235800D01*
G75*
G02*
X155249200Y-96060400I0J175400D01*
G01*
G37*
G36*
G01*
X155249200Y-94790400D02*
X155249200Y-94439600D01*
G75*
G02*
X155424600Y-94264200I175400J0D01*
G01*
X157125400Y-94264200D01*
G75*
G02*
X157300800Y-94439600I0J-175400D01*
G01*
X157300800Y-94790400D01*
G75*
G02*
X157125400Y-94965800I-175400J0D01*
G01*
X155424600Y-94965800D01*
G75*
G02*
X155249200Y-94790400I0J175400D01*
G01*
G37*
G36*
G01*
X155249200Y-93520400D02*
X155249200Y-93169600D01*
G75*
G02*
X155424600Y-92994200I175400J0D01*
G01*
X157125400Y-92994200D01*
G75*
G02*
X157300800Y-93169600I0J-175400D01*
G01*
X157300800Y-93520400D01*
G75*
G02*
X157125400Y-93695800I-175400J0D01*
G01*
X155424600Y-93695800D01*
G75*
G02*
X155249200Y-93520400I0J175400D01*
G01*
G37*
%TD*%
%TO.C,R6*%
G36*
G01*
X182617100Y-96536700D02*
X183142900Y-96536700D01*
G75*
G02*
X183405800Y-96799600I0J-262900D01*
G01*
X183405800Y-97350400D01*
G75*
G02*
X183142900Y-97613300I-262900J0D01*
G01*
X182617100Y-97613300D01*
G75*
G02*
X182354200Y-97350400I0J262900D01*
G01*
X182354200Y-96799600D01*
G75*
G02*
X182617100Y-96536700I262900J0D01*
G01*
G37*
G36*
G01*
X182617100Y-94711700D02*
X183142900Y-94711700D01*
G75*
G02*
X183405800Y-94974600I0J-262900D01*
G01*
X183405800Y-95525400D01*
G75*
G02*
X183142900Y-95788300I-262900J0D01*
G01*
X182617100Y-95788300D01*
G75*
G02*
X182354200Y-95525400I0J262900D01*
G01*
X182354200Y-94974600D01*
G75*
G02*
X182617100Y-94711700I262900J0D01*
G01*
G37*
%TD*%
%TO.C,R5*%
G36*
G01*
X176792900Y-98685800D02*
X176267100Y-98685800D01*
G75*
G02*
X176004200Y-98422900I0J262900D01*
G01*
X176004200Y-97872100D01*
G75*
G02*
X176267100Y-97609200I262900J0D01*
G01*
X176792900Y-97609200D01*
G75*
G02*
X177055800Y-97872100I0J-262900D01*
G01*
X177055800Y-98422900D01*
G75*
G02*
X176792900Y-98685800I-262900J0D01*
G01*
G37*
G36*
G01*
X176792900Y-100510800D02*
X176267100Y-100510800D01*
G75*
G02*
X176004200Y-100247900I0J262900D01*
G01*
X176004200Y-99697100D01*
G75*
G02*
X176267100Y-99434200I262900J0D01*
G01*
X176792900Y-99434200D01*
G75*
G02*
X177055800Y-99697100I0J-262900D01*
G01*
X177055800Y-100247900D01*
G75*
G02*
X176792900Y-100510800I-262900J0D01*
G01*
G37*
%TD*%
%TO.C,R4*%
G36*
G01*
X178807100Y-99434200D02*
X179332900Y-99434200D01*
G75*
G02*
X179595800Y-99697100I0J-262900D01*
G01*
X179595800Y-100247900D01*
G75*
G02*
X179332900Y-100510800I-262900J0D01*
G01*
X178807100Y-100510800D01*
G75*
G02*
X178544200Y-100247900I0J262900D01*
G01*
X178544200Y-99697100D01*
G75*
G02*
X178807100Y-99434200I262900J0D01*
G01*
G37*
G36*
G01*
X178807100Y-97609200D02*
X179332900Y-97609200D01*
G75*
G02*
X179595800Y-97872100I0J-262900D01*
G01*
X179595800Y-98422900D01*
G75*
G02*
X179332900Y-98685800I-262900J0D01*
G01*
X178807100Y-98685800D01*
G75*
G02*
X178544200Y-98422900I0J262900D01*
G01*
X178544200Y-97872100D01*
G75*
G02*
X178807100Y-97609200I262900J0D01*
G01*
G37*
%TD*%
%TO.C,R3*%
G36*
G01*
X163098300Y-103877100D02*
X163098300Y-104402900D01*
G75*
G02*
X162835400Y-104665800I-262900J0D01*
G01*
X162284600Y-104665800D01*
G75*
G02*
X162021700Y-104402900I0J262900D01*
G01*
X162021700Y-103877100D01*
G75*
G02*
X162284600Y-103614200I262900J0D01*
G01*
X162835400Y-103614200D01*
G75*
G02*
X163098300Y-103877100I0J-262900D01*
G01*
G37*
G36*
G01*
X164923300Y-103877100D02*
X164923300Y-104402900D01*
G75*
G02*
X164660400Y-104665800I-262900J0D01*
G01*
X164109600Y-104665800D01*
G75*
G02*
X163846700Y-104402900I0J262900D01*
G01*
X163846700Y-103877100D01*
G75*
G02*
X164109600Y-103614200I262900J0D01*
G01*
X164660400Y-103614200D01*
G75*
G02*
X164923300Y-103877100I0J-262900D01*
G01*
G37*
%TD*%
%TO.C,R2*%
G36*
G01*
X151668300Y-103877100D02*
X151668300Y-104402900D01*
G75*
G02*
X151405400Y-104665800I-262900J0D01*
G01*
X150854600Y-104665800D01*
G75*
G02*
X150591700Y-104402900I0J262900D01*
G01*
X150591700Y-103877100D01*
G75*
G02*
X150854600Y-103614200I262900J0D01*
G01*
X151405400Y-103614200D01*
G75*
G02*
X151668300Y-103877100I0J-262900D01*
G01*
G37*
G36*
G01*
X153493300Y-103877100D02*
X153493300Y-104402900D01*
G75*
G02*
X153230400Y-104665800I-262900J0D01*
G01*
X152679600Y-104665800D01*
G75*
G02*
X152416700Y-104402900I0J262900D01*
G01*
X152416700Y-103877100D01*
G75*
G02*
X152679600Y-103614200I262900J0D01*
G01*
X153230400Y-103614200D01*
G75*
G02*
X153493300Y-103877100I0J-262900D01*
G01*
G37*
%TD*%
%TO.C,R1*%
G36*
G01*
X152416700Y-101862900D02*
X152416700Y-101337100D01*
G75*
G02*
X152679600Y-101074200I262900J0D01*
G01*
X153230400Y-101074200D01*
G75*
G02*
X153493300Y-101337100I0J-262900D01*
G01*
X153493300Y-101862900D01*
G75*
G02*
X153230400Y-102125800I-262900J0D01*
G01*
X152679600Y-102125800D01*
G75*
G02*
X152416700Y-101862900I0J262900D01*
G01*
G37*
G36*
G01*
X150591700Y-101862900D02*
X150591700Y-101337100D01*
G75*
G02*
X150854600Y-101074200I262900J0D01*
G01*
X151405400Y-101074200D01*
G75*
G02*
X151668300Y-101337100I0J-262900D01*
G01*
X151668300Y-101862900D01*
G75*
G02*
X151405400Y-102125800I-262900J0D01*
G01*
X150854600Y-102125800D01*
G75*
G02*
X150591700Y-101862900I0J262900D01*
G01*
G37*
%TD*%
D11*
%TO.C,J2*%
X193040000Y-95250000D03*
G36*
G01*
X192139200Y-93560000D02*
X192139200Y-91860000D01*
G75*
G02*
X192190000Y-91809200I50800J0D01*
G01*
X193890000Y-91809200D01*
G75*
G02*
X193940800Y-91860000I0J-50800D01*
G01*
X193940800Y-93560000D01*
G75*
G02*
X193890000Y-93610800I-50800J0D01*
G01*
X192190000Y-93610800D01*
G75*
G02*
X192139200Y-93560000I0J50800D01*
G01*
G37*
%TD*%
D12*
%TO.C,J1*%
X148130000Y-94870000D03*
X145130000Y-90170000D03*
G36*
G01*
X149830000Y-88819200D02*
X152430000Y-88819200D01*
G75*
G02*
X152480800Y-88870000I0J-50800D01*
G01*
X152480800Y-91470000D01*
G75*
G02*
X152430000Y-91520800I-50800J0D01*
G01*
X149830000Y-91520800D01*
G75*
G02*
X149779200Y-91470000I0J50800D01*
G01*
X149779200Y-88870000D01*
G75*
G02*
X149830000Y-88819200I50800J0D01*
G01*
G37*
%TD*%
%TO.C,D2*%
G36*
G01*
X183142900Y-100425800D02*
X182617100Y-100425800D01*
G75*
G02*
X182354200Y-100162900I0J262900D01*
G01*
X182354200Y-99537100D01*
G75*
G02*
X182617100Y-99274200I262900J0D01*
G01*
X183142900Y-99274200D01*
G75*
G02*
X183405800Y-99537100I0J-262900D01*
G01*
X183405800Y-100162900D01*
G75*
G02*
X183142900Y-100425800I-262900J0D01*
G01*
G37*
G36*
G01*
X183142900Y-102175800D02*
X182617100Y-102175800D01*
G75*
G02*
X182354200Y-101912900I0J262900D01*
G01*
X182354200Y-101287100D01*
G75*
G02*
X182617100Y-101024200I262900J0D01*
G01*
X183142900Y-101024200D01*
G75*
G02*
X183405800Y-101287100I0J-262900D01*
G01*
X183405800Y-101912900D01*
G75*
G02*
X183142900Y-102175800I-262900J0D01*
G01*
G37*
%TD*%
%TO.C,D1*%
G36*
G01*
X163130800Y-88000000D02*
X163130800Y-89800000D01*
G75*
G02*
X163080000Y-89850800I-50800J0D01*
G01*
X159580000Y-89850800D01*
G75*
G02*
X159529200Y-89800000I0J50800D01*
G01*
X159529200Y-88000000D01*
G75*
G02*
X159580000Y-87949200I50800J0D01*
G01*
X163080000Y-87949200D01*
G75*
G02*
X163130800Y-88000000I0J-50800D01*
G01*
G37*
G36*
G01*
X168130800Y-88000000D02*
X168130800Y-89800000D01*
G75*
G02*
X168080000Y-89850800I-50800J0D01*
G01*
X164580000Y-89850800D01*
G75*
G02*
X164529200Y-89800000I0J50800D01*
G01*
X164529200Y-88000000D01*
G75*
G02*
X164580000Y-87949200I50800J0D01*
G01*
X168080000Y-87949200D01*
G75*
G02*
X168130800Y-88000000I0J-50800D01*
G01*
G37*
%TD*%
%TO.C,C6*%
G36*
G01*
X168510800Y-83315817D02*
X168510800Y-84324183D01*
G75*
G02*
X168239183Y-84595800I-271617J0D01*
G01*
X167505817Y-84595800D01*
G75*
G02*
X167234200Y-84324183I0J271617D01*
G01*
X167234200Y-83315817D01*
G75*
G02*
X167505817Y-83044200I271617J0D01*
G01*
X168239183Y-83044200D01*
G75*
G02*
X168510800Y-83315817I0J-271617D01*
G01*
G37*
G36*
G01*
X170585800Y-83315817D02*
X170585800Y-84324183D01*
G75*
G02*
X170314183Y-84595800I-271617J0D01*
G01*
X169580817Y-84595800D01*
G75*
G02*
X169309200Y-84324183I0J271617D01*
G01*
X169309200Y-83315817D01*
G75*
G02*
X169580817Y-83044200I271617J0D01*
G01*
X170314183Y-83044200D01*
G75*
G02*
X170585800Y-83315817I0J-271617D01*
G01*
G37*
%TD*%
%TO.C,C5*%
G36*
G01*
X168776700Y-96782900D02*
X168776700Y-96257100D01*
G75*
G02*
X169039600Y-95994200I262900J0D01*
G01*
X169690400Y-95994200D01*
G75*
G02*
X169953300Y-96257100I0J-262900D01*
G01*
X169953300Y-96782900D01*
G75*
G02*
X169690400Y-97045800I-262900J0D01*
G01*
X169039600Y-97045800D01*
G75*
G02*
X168776700Y-96782900I0J262900D01*
G01*
G37*
G36*
G01*
X167051700Y-96782900D02*
X167051700Y-96257100D01*
G75*
G02*
X167314600Y-95994200I262900J0D01*
G01*
X167965400Y-95994200D01*
G75*
G02*
X168228300Y-96257100I0J-262900D01*
G01*
X168228300Y-96782900D01*
G75*
G02*
X167965400Y-97045800I-262900J0D01*
G01*
X167314600Y-97045800D01*
G75*
G02*
X167051700Y-96782900I0J262900D01*
G01*
G37*
%TD*%
%TO.C,C4*%
G36*
G01*
X168776700Y-99322900D02*
X168776700Y-98797100D01*
G75*
G02*
X169039600Y-98534200I262900J0D01*
G01*
X169690400Y-98534200D01*
G75*
G02*
X169953300Y-98797100I0J-262900D01*
G01*
X169953300Y-99322900D01*
G75*
G02*
X169690400Y-99585800I-262900J0D01*
G01*
X169039600Y-99585800D01*
G75*
G02*
X168776700Y-99322900I0J262900D01*
G01*
G37*
G36*
G01*
X167051700Y-99322900D02*
X167051700Y-98797100D01*
G75*
G02*
X167314600Y-98534200I262900J0D01*
G01*
X167965400Y-98534200D01*
G75*
G02*
X168228300Y-98797100I0J-262900D01*
G01*
X168228300Y-99322900D01*
G75*
G02*
X167965400Y-99585800I-262900J0D01*
G01*
X167314600Y-99585800D01*
G75*
G02*
X167051700Y-99322900I0J262900D01*
G01*
G37*
%TD*%
%TO.C,C3*%
G36*
G01*
X163148300Y-101337100D02*
X163148300Y-101862900D01*
G75*
G02*
X162885400Y-102125800I-262900J0D01*
G01*
X162234600Y-102125800D01*
G75*
G02*
X161971700Y-101862900I0J262900D01*
G01*
X161971700Y-101337100D01*
G75*
G02*
X162234600Y-101074200I262900J0D01*
G01*
X162885400Y-101074200D01*
G75*
G02*
X163148300Y-101337100I0J-262900D01*
G01*
G37*
G36*
G01*
X164873300Y-101337100D02*
X164873300Y-101862900D01*
G75*
G02*
X164610400Y-102125800I-262900J0D01*
G01*
X163959600Y-102125800D01*
G75*
G02*
X163696700Y-101862900I0J262900D01*
G01*
X163696700Y-101337100D01*
G75*
G02*
X163959600Y-101074200I262900J0D01*
G01*
X164610400Y-101074200D01*
G75*
G02*
X164873300Y-101337100I0J-262900D01*
G01*
G37*
%TD*%
%TO.C,C1*%
G36*
G01*
X149228300Y-97285817D02*
X149228300Y-98294183D01*
G75*
G02*
X148956683Y-98565800I-271617J0D01*
G01*
X148223317Y-98565800D01*
G75*
G02*
X147951700Y-98294183I0J271617D01*
G01*
X147951700Y-97285817D01*
G75*
G02*
X148223317Y-97014200I271617J0D01*
G01*
X148956683Y-97014200D01*
G75*
G02*
X149228300Y-97285817I0J-271617D01*
G01*
G37*
G36*
G01*
X151303300Y-97285817D02*
X151303300Y-98294183D01*
G75*
G02*
X151031683Y-98565800I-271617J0D01*
G01*
X150298317Y-98565800D01*
G75*
G02*
X150026700Y-98294183I0J271617D01*
G01*
X150026700Y-97285817D01*
G75*
G02*
X150298317Y-97014200I271617J0D01*
G01*
X151031683Y-97014200D01*
G75*
G02*
X151303300Y-97285817I0J-271617D01*
G01*
G37*
%TD*%
M02*
