%TF.GenerationSoftware,KiCad,Pcbnew,(5.1.12)-1*%
%TF.CreationDate,2021-11-13T04:14:35-08:00*%
%TF.ProjectId,techdemo,74656368-6465-46d6-9f2e-6b696361645f,rev?*%
%TF.SameCoordinates,Original*%
%TF.FileFunction,Copper,L1,Top*%
%TF.FilePolarity,Positive*%
%FSLAX46Y46*%
G04 Gerber Fmt 4.6, Leading zero omitted, Abs format (unit mm)*
G04 Created by KiCad (PCBNEW (5.1.12)-1) date 2021-11-13 04:14:35*
%MOMM*%
%LPD*%
G01*
G04 APERTURE LIST*
%TA.AperFunction,ComponentPad*%
%ADD10C,4.400000*%
%TD*%
%TA.AperFunction,SMDPad,CuDef*%
%ADD11R,2.400000X4.200000*%
%TD*%
%TA.AperFunction,ComponentPad*%
%ADD12O,1.700000X1.700000*%
%TD*%
%TA.AperFunction,ComponentPad*%
%ADD13R,1.700000X1.700000*%
%TD*%
%TA.AperFunction,ComponentPad*%
%ADD14C,2.600000*%
%TD*%
%TA.AperFunction,ComponentPad*%
%ADD15R,2.600000X2.600000*%
%TD*%
%TA.AperFunction,SMDPad,CuDef*%
%ADD16R,3.500000X1.800000*%
%TD*%
%TA.AperFunction,ViaPad*%
%ADD17C,0.508000*%
%TD*%
%TA.AperFunction,Conductor*%
%ADD18C,0.762000*%
%TD*%
%TA.AperFunction,Conductor*%
%ADD19C,0.254000*%
%TD*%
%TA.AperFunction,Conductor*%
%ADD20C,0.100000*%
%TD*%
G04 APERTURE END LIST*
D10*
%TO.P,REF\u002A\u002A,1*%
%TO.N,N/C*%
X144780000Y-82550000D03*
%TD*%
%TO.P,REF\u002A\u002A,1*%
%TO.N,N/C*%
X144780000Y-104140000D03*
%TD*%
%TO.P,REF\u002A\u002A,1*%
%TO.N,N/C*%
X191770000Y-104140000D03*
%TD*%
%TO.P,REF\u002A\u002A,1*%
%TO.N,N/C*%
X191770000Y-82550000D03*
%TD*%
%TO.P,C2,2*%
%TO.N,Net-(C2-Pad2)*%
%TA.AperFunction,SMDPad,CuDef*%
G36*
G01*
X155885000Y-89932500D02*
X155885000Y-90407500D01*
G75*
G02*
X155647500Y-90645000I-237500J0D01*
G01*
X155047500Y-90645000D01*
G75*
G02*
X154810000Y-90407500I0J237500D01*
G01*
X154810000Y-89932500D01*
G75*
G02*
X155047500Y-89695000I237500J0D01*
G01*
X155647500Y-89695000D01*
G75*
G02*
X155885000Y-89932500I0J-237500D01*
G01*
G37*
%TD.AperFunction*%
%TO.P,C2,1*%
%TO.N,Net-(C2-Pad1)*%
%TA.AperFunction,SMDPad,CuDef*%
G36*
G01*
X157610000Y-89932500D02*
X157610000Y-90407500D01*
G75*
G02*
X157372500Y-90645000I-237500J0D01*
G01*
X156772500Y-90645000D01*
G75*
G02*
X156535000Y-90407500I0J237500D01*
G01*
X156535000Y-89932500D01*
G75*
G02*
X156772500Y-89695000I237500J0D01*
G01*
X157372500Y-89695000D01*
G75*
G02*
X157610000Y-89932500I0J-237500D01*
G01*
G37*
%TD.AperFunction*%
%TD*%
D11*
%TO.P,L1,2*%
%TO.N,Net-(C6-Pad1)*%
X177510000Y-88900000D03*
%TO.P,L1,1*%
%TO.N,Net-(C2-Pad1)*%
X173010000Y-88900000D03*
%TD*%
%TO.P,U1,8*%
%TO.N,Net-(C2-Pad1)*%
%TA.AperFunction,SMDPad,CuDef*%
G36*
G01*
X160250000Y-93495000D02*
X160250000Y-93195000D01*
G75*
G02*
X160400000Y-93045000I150000J0D01*
G01*
X162050000Y-93045000D01*
G75*
G02*
X162200000Y-93195000I0J-150000D01*
G01*
X162200000Y-93495000D01*
G75*
G02*
X162050000Y-93645000I-150000J0D01*
G01*
X160400000Y-93645000D01*
G75*
G02*
X160250000Y-93495000I0J150000D01*
G01*
G37*
%TD.AperFunction*%
%TO.P,U1,7*%
%TO.N,Net-(C6-Pad2)*%
%TA.AperFunction,SMDPad,CuDef*%
G36*
G01*
X160250000Y-94765000D02*
X160250000Y-94465000D01*
G75*
G02*
X160400000Y-94315000I150000J0D01*
G01*
X162050000Y-94315000D01*
G75*
G02*
X162200000Y-94465000I0J-150000D01*
G01*
X162200000Y-94765000D01*
G75*
G02*
X162050000Y-94915000I-150000J0D01*
G01*
X160400000Y-94915000D01*
G75*
G02*
X160250000Y-94765000I0J150000D01*
G01*
G37*
%TD.AperFunction*%
%TO.P,U1,6*%
%TO.N,Net-(C4-Pad1)*%
%TA.AperFunction,SMDPad,CuDef*%
G36*
G01*
X160250000Y-96035000D02*
X160250000Y-95735000D01*
G75*
G02*
X160400000Y-95585000I150000J0D01*
G01*
X162050000Y-95585000D01*
G75*
G02*
X162200000Y-95735000I0J-150000D01*
G01*
X162200000Y-96035000D01*
G75*
G02*
X162050000Y-96185000I-150000J0D01*
G01*
X160400000Y-96185000D01*
G75*
G02*
X160250000Y-96035000I0J150000D01*
G01*
G37*
%TD.AperFunction*%
%TO.P,U1,5*%
%TO.N,Net-(R4-Pad2)*%
%TA.AperFunction,SMDPad,CuDef*%
G36*
G01*
X160250000Y-97305000D02*
X160250000Y-97005000D01*
G75*
G02*
X160400000Y-96855000I150000J0D01*
G01*
X162050000Y-96855000D01*
G75*
G02*
X162200000Y-97005000I0J-150000D01*
G01*
X162200000Y-97305000D01*
G75*
G02*
X162050000Y-97455000I-150000J0D01*
G01*
X160400000Y-97455000D01*
G75*
G02*
X160250000Y-97305000I0J150000D01*
G01*
G37*
%TD.AperFunction*%
%TO.P,U1,4*%
%TO.N,Net-(C3-Pad1)*%
%TA.AperFunction,SMDPad,CuDef*%
G36*
G01*
X155300000Y-97305000D02*
X155300000Y-97005000D01*
G75*
G02*
X155450000Y-96855000I150000J0D01*
G01*
X157100000Y-96855000D01*
G75*
G02*
X157250000Y-97005000I0J-150000D01*
G01*
X157250000Y-97305000D01*
G75*
G02*
X157100000Y-97455000I-150000J0D01*
G01*
X155450000Y-97455000D01*
G75*
G02*
X155300000Y-97305000I0J150000D01*
G01*
G37*
%TD.AperFunction*%
%TO.P,U1,3*%
%TO.N,Net-(R1-Pad2)*%
%TA.AperFunction,SMDPad,CuDef*%
G36*
G01*
X155300000Y-96035000D02*
X155300000Y-95735000D01*
G75*
G02*
X155450000Y-95585000I150000J0D01*
G01*
X157100000Y-95585000D01*
G75*
G02*
X157250000Y-95735000I0J-150000D01*
G01*
X157250000Y-96035000D01*
G75*
G02*
X157100000Y-96185000I-150000J0D01*
G01*
X155450000Y-96185000D01*
G75*
G02*
X155300000Y-96035000I0J150000D01*
G01*
G37*
%TD.AperFunction*%
%TO.P,U1,2*%
%TO.N,Net-(C1-Pad1)*%
%TA.AperFunction,SMDPad,CuDef*%
G36*
G01*
X155300000Y-94765000D02*
X155300000Y-94465000D01*
G75*
G02*
X155450000Y-94315000I150000J0D01*
G01*
X157100000Y-94315000D01*
G75*
G02*
X157250000Y-94465000I0J-150000D01*
G01*
X157250000Y-94765000D01*
G75*
G02*
X157100000Y-94915000I-150000J0D01*
G01*
X155450000Y-94915000D01*
G75*
G02*
X155300000Y-94765000I0J150000D01*
G01*
G37*
%TD.AperFunction*%
%TO.P,U1,1*%
%TO.N,Net-(C2-Pad2)*%
%TA.AperFunction,SMDPad,CuDef*%
G36*
G01*
X155300000Y-93495000D02*
X155300000Y-93195000D01*
G75*
G02*
X155450000Y-93045000I150000J0D01*
G01*
X157100000Y-93045000D01*
G75*
G02*
X157250000Y-93195000I0J-150000D01*
G01*
X157250000Y-93495000D01*
G75*
G02*
X157100000Y-93645000I-150000J0D01*
G01*
X155450000Y-93645000D01*
G75*
G02*
X155300000Y-93495000I0J150000D01*
G01*
G37*
%TD.AperFunction*%
%TD*%
%TO.P,R6,2*%
%TO.N,Net-(D2-Pad2)*%
%TA.AperFunction,SMDPad,CuDef*%
G36*
G01*
X182642500Y-96587500D02*
X183117500Y-96587500D01*
G75*
G02*
X183355000Y-96825000I0J-237500D01*
G01*
X183355000Y-97325000D01*
G75*
G02*
X183117500Y-97562500I-237500J0D01*
G01*
X182642500Y-97562500D01*
G75*
G02*
X182405000Y-97325000I0J237500D01*
G01*
X182405000Y-96825000D01*
G75*
G02*
X182642500Y-96587500I237500J0D01*
G01*
G37*
%TD.AperFunction*%
%TO.P,R6,1*%
%TO.N,Net-(C6-Pad1)*%
%TA.AperFunction,SMDPad,CuDef*%
G36*
G01*
X182642500Y-94762500D02*
X183117500Y-94762500D01*
G75*
G02*
X183355000Y-95000000I0J-237500D01*
G01*
X183355000Y-95500000D01*
G75*
G02*
X183117500Y-95737500I-237500J0D01*
G01*
X182642500Y-95737500D01*
G75*
G02*
X182405000Y-95500000I0J237500D01*
G01*
X182405000Y-95000000D01*
G75*
G02*
X182642500Y-94762500I237500J0D01*
G01*
G37*
%TD.AperFunction*%
%TD*%
%TO.P,R5,2*%
%TO.N,GND*%
%TA.AperFunction,SMDPad,CuDef*%
G36*
G01*
X176767500Y-98635000D02*
X176292500Y-98635000D01*
G75*
G02*
X176055000Y-98397500I0J237500D01*
G01*
X176055000Y-97897500D01*
G75*
G02*
X176292500Y-97660000I237500J0D01*
G01*
X176767500Y-97660000D01*
G75*
G02*
X177005000Y-97897500I0J-237500D01*
G01*
X177005000Y-98397500D01*
G75*
G02*
X176767500Y-98635000I-237500J0D01*
G01*
G37*
%TD.AperFunction*%
%TO.P,R5,1*%
%TO.N,Net-(R4-Pad2)*%
%TA.AperFunction,SMDPad,CuDef*%
G36*
G01*
X176767500Y-100460000D02*
X176292500Y-100460000D01*
G75*
G02*
X176055000Y-100222500I0J237500D01*
G01*
X176055000Y-99722500D01*
G75*
G02*
X176292500Y-99485000I237500J0D01*
G01*
X176767500Y-99485000D01*
G75*
G02*
X177005000Y-99722500I0J-237500D01*
G01*
X177005000Y-100222500D01*
G75*
G02*
X176767500Y-100460000I-237500J0D01*
G01*
G37*
%TD.AperFunction*%
%TD*%
%TO.P,R4,2*%
%TO.N,Net-(R4-Pad2)*%
%TA.AperFunction,SMDPad,CuDef*%
G36*
G01*
X178832500Y-99485000D02*
X179307500Y-99485000D01*
G75*
G02*
X179545000Y-99722500I0J-237500D01*
G01*
X179545000Y-100222500D01*
G75*
G02*
X179307500Y-100460000I-237500J0D01*
G01*
X178832500Y-100460000D01*
G75*
G02*
X178595000Y-100222500I0J237500D01*
G01*
X178595000Y-99722500D01*
G75*
G02*
X178832500Y-99485000I237500J0D01*
G01*
G37*
%TD.AperFunction*%
%TO.P,R4,1*%
%TO.N,Net-(C6-Pad1)*%
%TA.AperFunction,SMDPad,CuDef*%
G36*
G01*
X178832500Y-97660000D02*
X179307500Y-97660000D01*
G75*
G02*
X179545000Y-97897500I0J-237500D01*
G01*
X179545000Y-98397500D01*
G75*
G02*
X179307500Y-98635000I-237500J0D01*
G01*
X178832500Y-98635000D01*
G75*
G02*
X178595000Y-98397500I0J237500D01*
G01*
X178595000Y-97897500D01*
G75*
G02*
X178832500Y-97660000I237500J0D01*
G01*
G37*
%TD.AperFunction*%
%TD*%
%TO.P,R3,2*%
%TO.N,GND*%
%TA.AperFunction,SMDPad,CuDef*%
G36*
G01*
X163047500Y-103902500D02*
X163047500Y-104377500D01*
G75*
G02*
X162810000Y-104615000I-237500J0D01*
G01*
X162310000Y-104615000D01*
G75*
G02*
X162072500Y-104377500I0J237500D01*
G01*
X162072500Y-103902500D01*
G75*
G02*
X162310000Y-103665000I237500J0D01*
G01*
X162810000Y-103665000D01*
G75*
G02*
X163047500Y-103902500I0J-237500D01*
G01*
G37*
%TD.AperFunction*%
%TO.P,R3,1*%
%TO.N,Net-(C4-Pad2)*%
%TA.AperFunction,SMDPad,CuDef*%
G36*
G01*
X164872500Y-103902500D02*
X164872500Y-104377500D01*
G75*
G02*
X164635000Y-104615000I-237500J0D01*
G01*
X164135000Y-104615000D01*
G75*
G02*
X163897500Y-104377500I0J237500D01*
G01*
X163897500Y-103902500D01*
G75*
G02*
X164135000Y-103665000I237500J0D01*
G01*
X164635000Y-103665000D01*
G75*
G02*
X164872500Y-103902500I0J-237500D01*
G01*
G37*
%TD.AperFunction*%
%TD*%
%TO.P,R2,2*%
%TO.N,GND*%
%TA.AperFunction,SMDPad,CuDef*%
G36*
G01*
X151617500Y-103902500D02*
X151617500Y-104377500D01*
G75*
G02*
X151380000Y-104615000I-237500J0D01*
G01*
X150880000Y-104615000D01*
G75*
G02*
X150642500Y-104377500I0J237500D01*
G01*
X150642500Y-103902500D01*
G75*
G02*
X150880000Y-103665000I237500J0D01*
G01*
X151380000Y-103665000D01*
G75*
G02*
X151617500Y-103902500I0J-237500D01*
G01*
G37*
%TD.AperFunction*%
%TO.P,R2,1*%
%TO.N,Net-(R1-Pad2)*%
%TA.AperFunction,SMDPad,CuDef*%
G36*
G01*
X153442500Y-103902500D02*
X153442500Y-104377500D01*
G75*
G02*
X153205000Y-104615000I-237500J0D01*
G01*
X152705000Y-104615000D01*
G75*
G02*
X152467500Y-104377500I0J237500D01*
G01*
X152467500Y-103902500D01*
G75*
G02*
X152705000Y-103665000I237500J0D01*
G01*
X153205000Y-103665000D01*
G75*
G02*
X153442500Y-103902500I0J-237500D01*
G01*
G37*
%TD.AperFunction*%
%TD*%
%TO.P,R1,2*%
%TO.N,Net-(R1-Pad2)*%
%TA.AperFunction,SMDPad,CuDef*%
G36*
G01*
X152467500Y-101837500D02*
X152467500Y-101362500D01*
G75*
G02*
X152705000Y-101125000I237500J0D01*
G01*
X153205000Y-101125000D01*
G75*
G02*
X153442500Y-101362500I0J-237500D01*
G01*
X153442500Y-101837500D01*
G75*
G02*
X153205000Y-102075000I-237500J0D01*
G01*
X152705000Y-102075000D01*
G75*
G02*
X152467500Y-101837500I0J237500D01*
G01*
G37*
%TD.AperFunction*%
%TO.P,R1,1*%
%TO.N,Net-(C1-Pad1)*%
%TA.AperFunction,SMDPad,CuDef*%
G36*
G01*
X150642500Y-101837500D02*
X150642500Y-101362500D01*
G75*
G02*
X150880000Y-101125000I237500J0D01*
G01*
X151380000Y-101125000D01*
G75*
G02*
X151617500Y-101362500I0J-237500D01*
G01*
X151617500Y-101837500D01*
G75*
G02*
X151380000Y-102075000I-237500J0D01*
G01*
X150880000Y-102075000D01*
G75*
G02*
X150642500Y-101837500I0J237500D01*
G01*
G37*
%TD.AperFunction*%
%TD*%
D12*
%TO.P,J2,2*%
%TO.N,GND*%
X193040000Y-95250000D03*
D13*
%TO.P,J2,1*%
%TO.N,Net-(C6-Pad1)*%
X193040000Y-92710000D03*
%TD*%
D14*
%TO.P,J1,3*%
%TO.N,GND*%
X148130000Y-94870000D03*
%TO.P,J1,2*%
X145130000Y-90170000D03*
D15*
%TO.P,J1,1*%
%TO.N,Net-(C1-Pad1)*%
X151130000Y-90170000D03*
%TD*%
%TO.P,D2,2*%
%TO.N,Net-(D2-Pad2)*%
%TA.AperFunction,SMDPad,CuDef*%
G36*
G01*
X183117500Y-100375000D02*
X182642500Y-100375000D01*
G75*
G02*
X182405000Y-100137500I0J237500D01*
G01*
X182405000Y-99562500D01*
G75*
G02*
X182642500Y-99325000I237500J0D01*
G01*
X183117500Y-99325000D01*
G75*
G02*
X183355000Y-99562500I0J-237500D01*
G01*
X183355000Y-100137500D01*
G75*
G02*
X183117500Y-100375000I-237500J0D01*
G01*
G37*
%TD.AperFunction*%
%TO.P,D2,1*%
%TO.N,GND*%
%TA.AperFunction,SMDPad,CuDef*%
G36*
G01*
X183117500Y-102125000D02*
X182642500Y-102125000D01*
G75*
G02*
X182405000Y-101887500I0J237500D01*
G01*
X182405000Y-101312500D01*
G75*
G02*
X182642500Y-101075000I237500J0D01*
G01*
X183117500Y-101075000D01*
G75*
G02*
X183355000Y-101312500I0J-237500D01*
G01*
X183355000Y-101887500D01*
G75*
G02*
X183117500Y-102125000I-237500J0D01*
G01*
G37*
%TD.AperFunction*%
%TD*%
D16*
%TO.P,D1,2*%
%TO.N,Net-(C6-Pad2)*%
X161330000Y-88900000D03*
%TO.P,D1,1*%
%TO.N,Net-(C2-Pad1)*%
X166330000Y-88900000D03*
%TD*%
%TO.P,C6,2*%
%TO.N,Net-(C6-Pad2)*%
%TA.AperFunction,SMDPad,CuDef*%
G36*
G01*
X168460000Y-83345000D02*
X168460000Y-84295000D01*
G75*
G02*
X168210000Y-84545000I-250000J0D01*
G01*
X167535000Y-84545000D01*
G75*
G02*
X167285000Y-84295000I0J250000D01*
G01*
X167285000Y-83345000D01*
G75*
G02*
X167535000Y-83095000I250000J0D01*
G01*
X168210000Y-83095000D01*
G75*
G02*
X168460000Y-83345000I0J-250000D01*
G01*
G37*
%TD.AperFunction*%
%TO.P,C6,1*%
%TO.N,Net-(C6-Pad1)*%
%TA.AperFunction,SMDPad,CuDef*%
G36*
G01*
X170535000Y-83345000D02*
X170535000Y-84295000D01*
G75*
G02*
X170285000Y-84545000I-250000J0D01*
G01*
X169610000Y-84545000D01*
G75*
G02*
X169360000Y-84295000I0J250000D01*
G01*
X169360000Y-83345000D01*
G75*
G02*
X169610000Y-83095000I250000J0D01*
G01*
X170285000Y-83095000D01*
G75*
G02*
X170535000Y-83345000I0J-250000D01*
G01*
G37*
%TD.AperFunction*%
%TD*%
%TO.P,C5,2*%
%TO.N,GND*%
%TA.AperFunction,SMDPad,CuDef*%
G36*
G01*
X168827500Y-96757500D02*
X168827500Y-96282500D01*
G75*
G02*
X169065000Y-96045000I237500J0D01*
G01*
X169665000Y-96045000D01*
G75*
G02*
X169902500Y-96282500I0J-237500D01*
G01*
X169902500Y-96757500D01*
G75*
G02*
X169665000Y-96995000I-237500J0D01*
G01*
X169065000Y-96995000D01*
G75*
G02*
X168827500Y-96757500I0J237500D01*
G01*
G37*
%TD.AperFunction*%
%TO.P,C5,1*%
%TO.N,Net-(C4-Pad1)*%
%TA.AperFunction,SMDPad,CuDef*%
G36*
G01*
X167102500Y-96757500D02*
X167102500Y-96282500D01*
G75*
G02*
X167340000Y-96045000I237500J0D01*
G01*
X167940000Y-96045000D01*
G75*
G02*
X168177500Y-96282500I0J-237500D01*
G01*
X168177500Y-96757500D01*
G75*
G02*
X167940000Y-96995000I-237500J0D01*
G01*
X167340000Y-96995000D01*
G75*
G02*
X167102500Y-96757500I0J237500D01*
G01*
G37*
%TD.AperFunction*%
%TD*%
%TO.P,C4,2*%
%TO.N,Net-(C4-Pad2)*%
%TA.AperFunction,SMDPad,CuDef*%
G36*
G01*
X168827500Y-99297500D02*
X168827500Y-98822500D01*
G75*
G02*
X169065000Y-98585000I237500J0D01*
G01*
X169665000Y-98585000D01*
G75*
G02*
X169902500Y-98822500I0J-237500D01*
G01*
X169902500Y-99297500D01*
G75*
G02*
X169665000Y-99535000I-237500J0D01*
G01*
X169065000Y-99535000D01*
G75*
G02*
X168827500Y-99297500I0J237500D01*
G01*
G37*
%TD.AperFunction*%
%TO.P,C4,1*%
%TO.N,Net-(C4-Pad1)*%
%TA.AperFunction,SMDPad,CuDef*%
G36*
G01*
X167102500Y-99297500D02*
X167102500Y-98822500D01*
G75*
G02*
X167340000Y-98585000I237500J0D01*
G01*
X167940000Y-98585000D01*
G75*
G02*
X168177500Y-98822500I0J-237500D01*
G01*
X168177500Y-99297500D01*
G75*
G02*
X167940000Y-99535000I-237500J0D01*
G01*
X167340000Y-99535000D01*
G75*
G02*
X167102500Y-99297500I0J237500D01*
G01*
G37*
%TD.AperFunction*%
%TD*%
%TO.P,C3,2*%
%TO.N,GND*%
%TA.AperFunction,SMDPad,CuDef*%
G36*
G01*
X163097500Y-101362500D02*
X163097500Y-101837500D01*
G75*
G02*
X162860000Y-102075000I-237500J0D01*
G01*
X162260000Y-102075000D01*
G75*
G02*
X162022500Y-101837500I0J237500D01*
G01*
X162022500Y-101362500D01*
G75*
G02*
X162260000Y-101125000I237500J0D01*
G01*
X162860000Y-101125000D01*
G75*
G02*
X163097500Y-101362500I0J-237500D01*
G01*
G37*
%TD.AperFunction*%
%TO.P,C3,1*%
%TO.N,Net-(C3-Pad1)*%
%TA.AperFunction,SMDPad,CuDef*%
G36*
G01*
X164822500Y-101362500D02*
X164822500Y-101837500D01*
G75*
G02*
X164585000Y-102075000I-237500J0D01*
G01*
X163985000Y-102075000D01*
G75*
G02*
X163747500Y-101837500I0J237500D01*
G01*
X163747500Y-101362500D01*
G75*
G02*
X163985000Y-101125000I237500J0D01*
G01*
X164585000Y-101125000D01*
G75*
G02*
X164822500Y-101362500I0J-237500D01*
G01*
G37*
%TD.AperFunction*%
%TD*%
%TO.P,C1,2*%
%TO.N,GND*%
%TA.AperFunction,SMDPad,CuDef*%
G36*
G01*
X149177500Y-97315000D02*
X149177500Y-98265000D01*
G75*
G02*
X148927500Y-98515000I-250000J0D01*
G01*
X148252500Y-98515000D01*
G75*
G02*
X148002500Y-98265000I0J250000D01*
G01*
X148002500Y-97315000D01*
G75*
G02*
X148252500Y-97065000I250000J0D01*
G01*
X148927500Y-97065000D01*
G75*
G02*
X149177500Y-97315000I0J-250000D01*
G01*
G37*
%TD.AperFunction*%
%TO.P,C1,1*%
%TO.N,Net-(C1-Pad1)*%
%TA.AperFunction,SMDPad,CuDef*%
G36*
G01*
X151252500Y-97315000D02*
X151252500Y-98265000D01*
G75*
G02*
X151002500Y-98515000I-250000J0D01*
G01*
X150327500Y-98515000D01*
G75*
G02*
X150077500Y-98265000I0J250000D01*
G01*
X150077500Y-97315000D01*
G75*
G02*
X150327500Y-97065000I250000J0D01*
G01*
X151002500Y-97065000D01*
G75*
G02*
X151252500Y-97315000I0J-250000D01*
G01*
G37*
%TD.AperFunction*%
%TD*%
D17*
%TO.N,Net-(C2-Pad1)*%
X157480000Y-87630000D03*
X161290000Y-91440000D03*
%TO.N,Net-(R4-Pad2)*%
X173990000Y-100330000D03*
X163830000Y-97790000D03*
%TD*%
D18*
%TO.N,GND*%
X145130000Y-91870000D02*
X148130000Y-94870000D01*
X145130000Y-90170000D02*
X145130000Y-91870000D01*
X148510000Y-95250000D02*
X148130000Y-94870000D01*
D19*
X186690000Y-101600000D02*
X193040000Y-95250000D01*
X182880000Y-101600000D02*
X186690000Y-101600000D01*
X148590000Y-101600000D02*
X151130000Y-104140000D01*
X148590000Y-97790000D02*
X148590000Y-101600000D01*
X162560000Y-104140000D02*
X162560000Y-101600000D01*
X171450000Y-98605000D02*
X169365000Y-96520000D01*
X176072500Y-98605000D02*
X176530000Y-98147500D01*
X182880000Y-101600000D02*
X170180000Y-101600000D01*
X162560000Y-104140000D02*
X161290000Y-105410000D01*
X161290000Y-105410000D02*
X152400000Y-105410000D01*
X152400000Y-105410000D02*
X151130000Y-104140000D01*
X162560000Y-104140000D02*
X163830000Y-105410000D01*
X163830000Y-105410000D02*
X166370000Y-105410000D01*
X170180000Y-101600000D02*
X166370000Y-105410000D01*
X170180000Y-101600000D02*
X173175000Y-98605000D01*
X173175000Y-98605000D02*
X176072500Y-98605000D01*
X171450000Y-98605000D02*
X173175000Y-98605000D01*
D18*
X148130000Y-97330000D02*
X148590000Y-97790000D01*
X148130000Y-94870000D02*
X148130000Y-97330000D01*
%TO.N,Net-(C1-Pad1)*%
X151130000Y-97790000D02*
X154305000Y-94615000D01*
X150665000Y-97790000D02*
X151130000Y-97790000D01*
X154305000Y-94615000D02*
X156275000Y-94615000D01*
D19*
X151130000Y-98255000D02*
X150665000Y-97790000D01*
X151130000Y-101600000D02*
X151130000Y-98255000D01*
D18*
X151130000Y-91440000D02*
X154305000Y-94615000D01*
X151130000Y-90170000D02*
X151130000Y-91440000D01*
D19*
%TO.N,Net-(C2-Pad2)*%
X155347500Y-92417500D02*
X156275000Y-93345000D01*
X155347500Y-90170000D02*
X155347500Y-92417500D01*
D18*
%TO.N,Net-(C2-Pad1)*%
X166330000Y-88900000D02*
X173010000Y-88900000D01*
X166330000Y-88900000D02*
X166330000Y-90210000D01*
X163195000Y-93345000D02*
X161225000Y-93345000D01*
X166330000Y-90210000D02*
X163195000Y-93345000D01*
D19*
X157072500Y-90170000D02*
X157072500Y-88037500D01*
X157072500Y-88037500D02*
X157480000Y-87630000D01*
X161290000Y-93280000D02*
X161225000Y-93345000D01*
X161290000Y-91440000D02*
X161290000Y-93280000D01*
%TO.N,Net-(C3-Pad1)*%
X164285000Y-101600000D02*
X164285000Y-100785000D01*
X164285000Y-100785000D02*
X162560000Y-99060000D01*
X158180000Y-99060000D02*
X156275000Y-97155000D01*
X162560000Y-99060000D02*
X158180000Y-99060000D01*
%TO.N,Net-(C4-Pad2)*%
X164385000Y-104140000D02*
X166370000Y-104140000D01*
X169365000Y-101145000D02*
X169365000Y-99060000D01*
X166370000Y-104140000D02*
X169365000Y-101145000D01*
%TO.N,Net-(C4-Pad1)*%
X167005000Y-95885000D02*
X167640000Y-96520000D01*
X161225000Y-95885000D02*
X167005000Y-95885000D01*
X167640000Y-96520000D02*
X167640000Y-99060000D01*
D18*
%TO.N,Net-(C6-Pad2)*%
X161330000Y-88900000D02*
X158750000Y-91480000D01*
X160250000Y-94615000D02*
X161225000Y-94615000D01*
X158750000Y-93115000D02*
X160250000Y-94615000D01*
X158750000Y-91480000D02*
X158750000Y-93115000D01*
X166410000Y-83820000D02*
X161330000Y-88900000D01*
X167872500Y-83820000D02*
X166410000Y-83820000D01*
%TO.N,Net-(C6-Pad1)*%
X177510000Y-88900000D02*
X181610000Y-88900000D01*
X185420000Y-92710000D02*
X193040000Y-92710000D01*
X181610000Y-88900000D02*
X185420000Y-92710000D01*
X169947500Y-83820000D02*
X175260000Y-83820000D01*
X177510000Y-86070000D02*
X177510000Y-88900000D01*
X175260000Y-83820000D02*
X177510000Y-86070000D01*
D19*
X185420000Y-92710000D02*
X182880000Y-95250000D01*
X179070000Y-98147500D02*
X179070000Y-96520000D01*
X180340000Y-95250000D02*
X182880000Y-95250000D01*
X179070000Y-96520000D02*
X180340000Y-95250000D01*
%TO.N,Net-(D2-Pad2)*%
X182880000Y-97075000D02*
X182880000Y-99850000D01*
%TO.N,Net-(R1-Pad2)*%
X155300000Y-95885000D02*
X156275000Y-95885000D01*
X152955000Y-98230000D02*
X155300000Y-95885000D01*
X152955000Y-101600000D02*
X152955000Y-98230000D01*
X152955000Y-104140000D02*
X152955000Y-101600000D01*
%TO.N,Net-(R4-Pad2)*%
X179070000Y-99972500D02*
X176530000Y-99972500D01*
X163195000Y-97155000D02*
X163830000Y-97790000D01*
X161225000Y-97155000D02*
X163195000Y-97155000D01*
X176172500Y-100330000D02*
X176530000Y-99972500D01*
X173990000Y-100330000D02*
X176172500Y-100330000D01*
%TD*%
%TO.N,GND*%
X192381222Y-79463096D02*
X192969164Y-79640606D01*
X193511436Y-79928937D01*
X193987364Y-80317094D01*
X194378845Y-80790314D01*
X194670951Y-81330552D01*
X194852563Y-81917244D01*
X194920001Y-82558888D01*
X194920000Y-104107721D01*
X194856904Y-104751221D01*
X194679394Y-105339164D01*
X194391063Y-105881436D01*
X194002906Y-106357364D01*
X193529686Y-106748845D01*
X192989449Y-107040950D01*
X192402756Y-107222563D01*
X191761130Y-107290000D01*
X144812279Y-107290000D01*
X144168779Y-107226904D01*
X143580836Y-107049394D01*
X143038564Y-106761063D01*
X142562636Y-106372906D01*
X142171155Y-105899686D01*
X141879050Y-105359449D01*
X141697437Y-104772756D01*
X141630000Y-104131130D01*
X141630000Y-103860777D01*
X141945000Y-103860777D01*
X141945000Y-104419223D01*
X142053948Y-104966939D01*
X142267656Y-105482876D01*
X142577912Y-105947207D01*
X142972793Y-106342088D01*
X143437124Y-106652344D01*
X143953061Y-106866052D01*
X144500777Y-106975000D01*
X145059223Y-106975000D01*
X145606939Y-106866052D01*
X146122876Y-106652344D01*
X146587207Y-106342088D01*
X146982088Y-105947207D01*
X147292344Y-105482876D01*
X147506052Y-104966939D01*
X147576057Y-104615000D01*
X150004428Y-104615000D01*
X150016688Y-104739482D01*
X150052998Y-104859180D01*
X150111963Y-104969494D01*
X150191315Y-105066185D01*
X150288006Y-105145537D01*
X150398320Y-105204502D01*
X150518018Y-105240812D01*
X150642500Y-105253072D01*
X150844250Y-105250000D01*
X151003000Y-105091250D01*
X151003000Y-104267000D01*
X150166250Y-104267000D01*
X150007500Y-104425750D01*
X150004428Y-104615000D01*
X147576057Y-104615000D01*
X147615000Y-104419223D01*
X147615000Y-103860777D01*
X147576058Y-103665000D01*
X150004428Y-103665000D01*
X150007500Y-103854250D01*
X150166250Y-104013000D01*
X151003000Y-104013000D01*
X151003000Y-103188750D01*
X150844250Y-103030000D01*
X150642500Y-103026928D01*
X150518018Y-103039188D01*
X150398320Y-103075498D01*
X150288006Y-103134463D01*
X150191315Y-103213815D01*
X150111963Y-103310506D01*
X150052998Y-103420820D01*
X150016688Y-103540518D01*
X150004428Y-103665000D01*
X147576058Y-103665000D01*
X147506052Y-103313061D01*
X147292344Y-102797124D01*
X146982088Y-102332793D01*
X146587207Y-101937912D01*
X146122876Y-101627656D01*
X145606939Y-101413948D01*
X145059223Y-101305000D01*
X144500777Y-101305000D01*
X143953061Y-101413948D01*
X143437124Y-101627656D01*
X142972793Y-101937912D01*
X142577912Y-102332793D01*
X142267656Y-102797124D01*
X142053948Y-103313061D01*
X141945000Y-103860777D01*
X141630000Y-103860777D01*
X141630000Y-98515000D01*
X147364428Y-98515000D01*
X147376688Y-98639482D01*
X147412998Y-98759180D01*
X147471963Y-98869494D01*
X147551315Y-98966185D01*
X147648006Y-99045537D01*
X147758320Y-99104502D01*
X147878018Y-99140812D01*
X148002500Y-99153072D01*
X148304250Y-99150000D01*
X148463000Y-98991250D01*
X148463000Y-97917000D01*
X147526250Y-97917000D01*
X147367500Y-98075750D01*
X147364428Y-98515000D01*
X141630000Y-98515000D01*
X141630000Y-96219224D01*
X146960381Y-96219224D01*
X147092317Y-96514312D01*
X147433045Y-96685159D01*
X147481766Y-96698561D01*
X147471963Y-96710506D01*
X147412998Y-96820820D01*
X147376688Y-96940518D01*
X147364428Y-97065000D01*
X147367500Y-97504250D01*
X147526250Y-97663000D01*
X148463000Y-97663000D01*
X148463000Y-97643000D01*
X148717000Y-97643000D01*
X148717000Y-97663000D01*
X148737000Y-97663000D01*
X148737000Y-97917000D01*
X148717000Y-97917000D01*
X148717000Y-98991250D01*
X148875750Y-99150000D01*
X149177500Y-99153072D01*
X149301982Y-99140812D01*
X149421680Y-99104502D01*
X149531994Y-99045537D01*
X149628685Y-98966185D01*
X149694158Y-98886406D01*
X149699538Y-98892962D01*
X149834114Y-99003405D01*
X149987650Y-99085472D01*
X150154246Y-99136008D01*
X150327500Y-99153072D01*
X150368001Y-99153072D01*
X150368000Y-100655463D01*
X150260877Y-100743377D01*
X150151988Y-100876058D01*
X150071077Y-101027433D01*
X150021252Y-101191684D01*
X150004428Y-101362500D01*
X150004428Y-101837500D01*
X150021252Y-102008316D01*
X150071077Y-102172567D01*
X150151988Y-102323942D01*
X150260877Y-102456623D01*
X150393558Y-102565512D01*
X150544933Y-102646423D01*
X150709184Y-102696248D01*
X150880000Y-102713072D01*
X151380000Y-102713072D01*
X151550816Y-102696248D01*
X151715067Y-102646423D01*
X151866442Y-102565512D01*
X151999123Y-102456623D01*
X152042500Y-102403768D01*
X152085877Y-102456623D01*
X152193001Y-102544538D01*
X152193000Y-103195463D01*
X152109717Y-103263812D01*
X152068685Y-103213815D01*
X151971994Y-103134463D01*
X151861680Y-103075498D01*
X151741982Y-103039188D01*
X151617500Y-103026928D01*
X151415750Y-103030000D01*
X151257000Y-103188750D01*
X151257000Y-104013000D01*
X151277000Y-104013000D01*
X151277000Y-104267000D01*
X151257000Y-104267000D01*
X151257000Y-105091250D01*
X151415750Y-105250000D01*
X151617500Y-105253072D01*
X151741982Y-105240812D01*
X151861680Y-105204502D01*
X151971994Y-105145537D01*
X152068685Y-105066185D01*
X152109717Y-105016188D01*
X152218558Y-105105512D01*
X152369933Y-105186423D01*
X152534184Y-105236248D01*
X152705000Y-105253072D01*
X153205000Y-105253072D01*
X153375816Y-105236248D01*
X153540067Y-105186423D01*
X153691442Y-105105512D01*
X153824123Y-104996623D01*
X153933012Y-104863942D01*
X154013923Y-104712567D01*
X154043519Y-104615000D01*
X161434428Y-104615000D01*
X161446688Y-104739482D01*
X161482998Y-104859180D01*
X161541963Y-104969494D01*
X161621315Y-105066185D01*
X161718006Y-105145537D01*
X161828320Y-105204502D01*
X161948018Y-105240812D01*
X162072500Y-105253072D01*
X162274250Y-105250000D01*
X162433000Y-105091250D01*
X162433000Y-104267000D01*
X161596250Y-104267000D01*
X161437500Y-104425750D01*
X161434428Y-104615000D01*
X154043519Y-104615000D01*
X154063748Y-104548316D01*
X154080572Y-104377500D01*
X154080572Y-103902500D01*
X154063748Y-103731684D01*
X154043520Y-103665000D01*
X161434428Y-103665000D01*
X161437500Y-103854250D01*
X161596250Y-104013000D01*
X162433000Y-104013000D01*
X162433000Y-103188750D01*
X162274250Y-103030000D01*
X162072500Y-103026928D01*
X161948018Y-103039188D01*
X161828320Y-103075498D01*
X161718006Y-103134463D01*
X161621315Y-103213815D01*
X161541963Y-103310506D01*
X161482998Y-103420820D01*
X161446688Y-103540518D01*
X161434428Y-103665000D01*
X154043520Y-103665000D01*
X154013923Y-103567433D01*
X153933012Y-103416058D01*
X153824123Y-103283377D01*
X153717000Y-103195463D01*
X153717000Y-102544537D01*
X153824123Y-102456623D01*
X153933012Y-102323942D01*
X154013923Y-102172567D01*
X154043519Y-102075000D01*
X161384428Y-102075000D01*
X161396688Y-102199482D01*
X161432998Y-102319180D01*
X161491963Y-102429494D01*
X161571315Y-102526185D01*
X161668006Y-102605537D01*
X161778320Y-102664502D01*
X161898018Y-102700812D01*
X162022500Y-102713072D01*
X162274250Y-102710000D01*
X162433000Y-102551250D01*
X162433000Y-101727000D01*
X161546250Y-101727000D01*
X161387500Y-101885750D01*
X161384428Y-102075000D01*
X154043519Y-102075000D01*
X154063748Y-102008316D01*
X154080572Y-101837500D01*
X154080572Y-101362500D01*
X154063748Y-101191684D01*
X154043520Y-101125000D01*
X161384428Y-101125000D01*
X161387500Y-101314250D01*
X161546250Y-101473000D01*
X162433000Y-101473000D01*
X162433000Y-100648750D01*
X162274250Y-100490000D01*
X162022500Y-100486928D01*
X161898018Y-100499188D01*
X161778320Y-100535498D01*
X161668006Y-100594463D01*
X161571315Y-100673815D01*
X161491963Y-100770506D01*
X161432998Y-100880820D01*
X161396688Y-101000518D01*
X161384428Y-101125000D01*
X154043520Y-101125000D01*
X154013923Y-101027433D01*
X153933012Y-100876058D01*
X153824123Y-100743377D01*
X153717000Y-100655463D01*
X153717000Y-98545630D01*
X154706586Y-97556045D01*
X154721916Y-97606582D01*
X154794742Y-97742829D01*
X154892749Y-97862251D01*
X155012171Y-97960258D01*
X155148418Y-98033084D01*
X155296255Y-98077929D01*
X155450000Y-98093072D01*
X156135442Y-98093072D01*
X157614720Y-99572351D01*
X157638578Y-99601422D01*
X157667648Y-99625279D01*
X157754607Y-99696645D01*
X157802979Y-99722500D01*
X157886985Y-99767402D01*
X158030622Y-99810974D01*
X158142574Y-99822000D01*
X158142577Y-99822000D01*
X158180000Y-99825686D01*
X158217423Y-99822000D01*
X162244370Y-99822000D01*
X162911566Y-100489197D01*
X162845750Y-100490000D01*
X162687000Y-100648750D01*
X162687000Y-101473000D01*
X162707000Y-101473000D01*
X162707000Y-101727000D01*
X162687000Y-101727000D01*
X162687000Y-102551250D01*
X162845750Y-102710000D01*
X163097500Y-102713072D01*
X163221982Y-102700812D01*
X163341680Y-102664502D01*
X163451994Y-102605537D01*
X163499894Y-102566226D01*
X163649933Y-102646423D01*
X163814184Y-102696248D01*
X163985000Y-102713072D01*
X164585000Y-102713072D01*
X164755816Y-102696248D01*
X164920067Y-102646423D01*
X165071442Y-102565512D01*
X165204123Y-102456623D01*
X165313012Y-102323942D01*
X165393923Y-102172567D01*
X165443748Y-102008316D01*
X165460572Y-101837500D01*
X165460572Y-101362500D01*
X165443748Y-101191684D01*
X165393923Y-101027433D01*
X165313012Y-100876058D01*
X165204123Y-100743377D01*
X165071442Y-100634488D01*
X165028700Y-100611642D01*
X164992402Y-100491985D01*
X164921645Y-100359608D01*
X164826422Y-100243578D01*
X164797352Y-100219721D01*
X163125284Y-98547654D01*
X163101422Y-98518578D01*
X162985392Y-98423355D01*
X162853015Y-98352598D01*
X162709378Y-98309026D01*
X162597426Y-98298000D01*
X162597423Y-98298000D01*
X162560000Y-98294314D01*
X162522577Y-98298000D01*
X158495631Y-98298000D01*
X157819769Y-97622138D01*
X157828084Y-97606582D01*
X157872929Y-97458745D01*
X157888072Y-97305000D01*
X157888072Y-97005000D01*
X157872929Y-96851255D01*
X157828084Y-96703418D01*
X157755258Y-96567171D01*
X157716546Y-96520000D01*
X157755258Y-96472829D01*
X157828084Y-96336582D01*
X157872929Y-96188745D01*
X157888072Y-96035000D01*
X157888072Y-95735000D01*
X157872929Y-95581255D01*
X157828084Y-95433418D01*
X157755258Y-95297171D01*
X157716546Y-95250000D01*
X157755258Y-95202829D01*
X157828084Y-95066582D01*
X157872929Y-94918745D01*
X157888072Y-94765000D01*
X157888072Y-94465000D01*
X157872929Y-94311255D01*
X157828084Y-94163418D01*
X157755258Y-94027171D01*
X157716546Y-93980000D01*
X157755258Y-93932829D01*
X157828084Y-93796582D01*
X157872929Y-93648745D01*
X157874537Y-93632417D01*
X157901141Y-93682190D01*
X158028105Y-93836896D01*
X158066868Y-93868708D01*
X159496292Y-95298133D01*
X159528104Y-95336896D01*
X159666694Y-95450634D01*
X159627071Y-95581255D01*
X159611928Y-95735000D01*
X159611928Y-96035000D01*
X159627071Y-96188745D01*
X159671916Y-96336582D01*
X159744742Y-96472829D01*
X159783454Y-96520000D01*
X159744742Y-96567171D01*
X159671916Y-96703418D01*
X159627071Y-96851255D01*
X159611928Y-97005000D01*
X159611928Y-97305000D01*
X159627071Y-97458745D01*
X159671916Y-97606582D01*
X159744742Y-97742829D01*
X159842749Y-97862251D01*
X159962171Y-97960258D01*
X160098418Y-98033084D01*
X160246255Y-98077929D01*
X160400000Y-98093072D01*
X162050000Y-98093072D01*
X162203745Y-98077929D01*
X162351582Y-98033084D01*
X162487829Y-97960258D01*
X162540539Y-97917000D01*
X162879370Y-97917000D01*
X162966096Y-98003726D01*
X162975164Y-98049312D01*
X163042179Y-98211099D01*
X163139469Y-98356704D01*
X163263296Y-98480531D01*
X163408901Y-98577821D01*
X163570688Y-98644836D01*
X163742441Y-98679000D01*
X163917559Y-98679000D01*
X164089312Y-98644836D01*
X164251099Y-98577821D01*
X164396704Y-98480531D01*
X164520531Y-98356704D01*
X164617821Y-98211099D01*
X164684836Y-98049312D01*
X164719000Y-97877559D01*
X164719000Y-97702441D01*
X164684836Y-97530688D01*
X164617821Y-97368901D01*
X164520531Y-97223296D01*
X164396704Y-97099469D01*
X164251099Y-97002179D01*
X164089312Y-96935164D01*
X164043726Y-96926096D01*
X163764630Y-96647000D01*
X166464428Y-96647000D01*
X166464428Y-96757500D01*
X166481252Y-96928316D01*
X166531077Y-97092567D01*
X166611988Y-97243942D01*
X166720877Y-97376623D01*
X166853558Y-97485512D01*
X166878000Y-97498577D01*
X166878001Y-98081423D01*
X166853558Y-98094488D01*
X166720877Y-98203377D01*
X166611988Y-98336058D01*
X166531077Y-98487433D01*
X166481252Y-98651684D01*
X166464428Y-98822500D01*
X166464428Y-99297500D01*
X166481252Y-99468316D01*
X166531077Y-99632567D01*
X166611988Y-99783942D01*
X166720877Y-99916623D01*
X166853558Y-100025512D01*
X167004933Y-100106423D01*
X167169184Y-100156248D01*
X167340000Y-100173072D01*
X167940000Y-100173072D01*
X168110816Y-100156248D01*
X168275067Y-100106423D01*
X168426442Y-100025512D01*
X168502500Y-99963093D01*
X168578558Y-100025512D01*
X168603001Y-100038577D01*
X168603000Y-100829370D01*
X166054370Y-103378000D01*
X165331778Y-103378000D01*
X165254123Y-103283377D01*
X165121442Y-103174488D01*
X164970067Y-103093577D01*
X164805816Y-103043752D01*
X164635000Y-103026928D01*
X164135000Y-103026928D01*
X163964184Y-103043752D01*
X163799933Y-103093577D01*
X163648558Y-103174488D01*
X163539717Y-103263812D01*
X163498685Y-103213815D01*
X163401994Y-103134463D01*
X163291680Y-103075498D01*
X163171982Y-103039188D01*
X163047500Y-103026928D01*
X162845750Y-103030000D01*
X162687000Y-103188750D01*
X162687000Y-104013000D01*
X162707000Y-104013000D01*
X162707000Y-104267000D01*
X162687000Y-104267000D01*
X162687000Y-105091250D01*
X162845750Y-105250000D01*
X163047500Y-105253072D01*
X163171982Y-105240812D01*
X163291680Y-105204502D01*
X163401994Y-105145537D01*
X163498685Y-105066185D01*
X163539717Y-105016188D01*
X163648558Y-105105512D01*
X163799933Y-105186423D01*
X163964184Y-105236248D01*
X164135000Y-105253072D01*
X164635000Y-105253072D01*
X164805816Y-105236248D01*
X164970067Y-105186423D01*
X165121442Y-105105512D01*
X165254123Y-104996623D01*
X165331778Y-104902000D01*
X166332577Y-104902000D01*
X166370000Y-104905686D01*
X166407423Y-104902000D01*
X166407426Y-104902000D01*
X166519378Y-104890974D01*
X166663015Y-104847402D01*
X166795392Y-104776645D01*
X166911422Y-104681422D01*
X166935284Y-104652346D01*
X167726853Y-103860777D01*
X188935000Y-103860777D01*
X188935000Y-104419223D01*
X189043948Y-104966939D01*
X189257656Y-105482876D01*
X189567912Y-105947207D01*
X189962793Y-106342088D01*
X190427124Y-106652344D01*
X190943061Y-106866052D01*
X191490777Y-106975000D01*
X192049223Y-106975000D01*
X192596939Y-106866052D01*
X193112876Y-106652344D01*
X193577207Y-106342088D01*
X193972088Y-105947207D01*
X194282344Y-105482876D01*
X194496052Y-104966939D01*
X194605000Y-104419223D01*
X194605000Y-103860777D01*
X194496052Y-103313061D01*
X194282344Y-102797124D01*
X193972088Y-102332793D01*
X193577207Y-101937912D01*
X193112876Y-101627656D01*
X192596939Y-101413948D01*
X192049223Y-101305000D01*
X191490777Y-101305000D01*
X190943061Y-101413948D01*
X190427124Y-101627656D01*
X189962793Y-101937912D01*
X189567912Y-102332793D01*
X189257656Y-102797124D01*
X189043948Y-103313061D01*
X188935000Y-103860777D01*
X167726853Y-103860777D01*
X169462630Y-102125000D01*
X181766928Y-102125000D01*
X181779188Y-102249482D01*
X181815498Y-102369180D01*
X181874463Y-102479494D01*
X181953815Y-102576185D01*
X182050506Y-102655537D01*
X182160820Y-102714502D01*
X182280518Y-102750812D01*
X182405000Y-102763072D01*
X182594250Y-102760000D01*
X182753000Y-102601250D01*
X182753000Y-101727000D01*
X183007000Y-101727000D01*
X183007000Y-102601250D01*
X183165750Y-102760000D01*
X183355000Y-102763072D01*
X183479482Y-102750812D01*
X183599180Y-102714502D01*
X183709494Y-102655537D01*
X183806185Y-102576185D01*
X183885537Y-102479494D01*
X183944502Y-102369180D01*
X183980812Y-102249482D01*
X183993072Y-102125000D01*
X183990000Y-101885750D01*
X183831250Y-101727000D01*
X183007000Y-101727000D01*
X182753000Y-101727000D01*
X181928750Y-101727000D01*
X181770000Y-101885750D01*
X181766928Y-102125000D01*
X169462630Y-102125000D01*
X169877347Y-101710283D01*
X169906422Y-101686422D01*
X169966857Y-101612781D01*
X170001645Y-101570393D01*
X170072401Y-101438016D01*
X170072402Y-101438015D01*
X170115974Y-101294378D01*
X170127000Y-101182426D01*
X170127000Y-101182423D01*
X170130686Y-101145000D01*
X170127000Y-101107577D01*
X170127000Y-100038576D01*
X170151442Y-100025512D01*
X170284123Y-99916623D01*
X170393012Y-99783942D01*
X170473923Y-99632567D01*
X170523748Y-99468316D01*
X170540572Y-99297500D01*
X170540572Y-98822500D01*
X170523748Y-98651684D01*
X170473923Y-98487433D01*
X170393012Y-98336058D01*
X170284123Y-98203377D01*
X170151442Y-98094488D01*
X170000067Y-98013577D01*
X169835816Y-97963752D01*
X169665000Y-97946928D01*
X169065000Y-97946928D01*
X168894184Y-97963752D01*
X168729933Y-98013577D01*
X168578558Y-98094488D01*
X168502500Y-98156907D01*
X168426442Y-98094488D01*
X168402000Y-98081424D01*
X168402000Y-97660000D01*
X175416928Y-97660000D01*
X175420000Y-97861750D01*
X175578750Y-98020500D01*
X176403000Y-98020500D01*
X176403000Y-97183750D01*
X176657000Y-97183750D01*
X176657000Y-98020500D01*
X177481250Y-98020500D01*
X177640000Y-97861750D01*
X177643072Y-97660000D01*
X177630812Y-97535518D01*
X177594502Y-97415820D01*
X177535537Y-97305506D01*
X177456185Y-97208815D01*
X177359494Y-97129463D01*
X177249180Y-97070498D01*
X177129482Y-97034188D01*
X177005000Y-97021928D01*
X176815750Y-97025000D01*
X176657000Y-97183750D01*
X176403000Y-97183750D01*
X176244250Y-97025000D01*
X176055000Y-97021928D01*
X175930518Y-97034188D01*
X175810820Y-97070498D01*
X175700506Y-97129463D01*
X175603815Y-97208815D01*
X175524463Y-97305506D01*
X175465498Y-97415820D01*
X175429188Y-97535518D01*
X175416928Y-97660000D01*
X168402000Y-97660000D01*
X168402000Y-97498576D01*
X168425106Y-97486226D01*
X168473006Y-97525537D01*
X168583320Y-97584502D01*
X168703018Y-97620812D01*
X168827500Y-97633072D01*
X169079250Y-97630000D01*
X169238000Y-97471250D01*
X169238000Y-96647000D01*
X169492000Y-96647000D01*
X169492000Y-97471250D01*
X169650750Y-97630000D01*
X169902500Y-97633072D01*
X170026982Y-97620812D01*
X170146680Y-97584502D01*
X170256994Y-97525537D01*
X170353685Y-97446185D01*
X170433037Y-97349494D01*
X170492002Y-97239180D01*
X170528312Y-97119482D01*
X170540572Y-96995000D01*
X170537500Y-96805750D01*
X170378750Y-96647000D01*
X169492000Y-96647000D01*
X169238000Y-96647000D01*
X169218000Y-96647000D01*
X169218000Y-96393000D01*
X169238000Y-96393000D01*
X169238000Y-95568750D01*
X169492000Y-95568750D01*
X169492000Y-96393000D01*
X170378750Y-96393000D01*
X170537500Y-96234250D01*
X170540572Y-96045000D01*
X170528312Y-95920518D01*
X170492002Y-95800820D01*
X170433037Y-95690506D01*
X170353685Y-95593815D01*
X170256994Y-95514463D01*
X170146680Y-95455498D01*
X170026982Y-95419188D01*
X169902500Y-95406928D01*
X169650750Y-95410000D01*
X169492000Y-95568750D01*
X169238000Y-95568750D01*
X169079250Y-95410000D01*
X168827500Y-95406928D01*
X168703018Y-95419188D01*
X168583320Y-95455498D01*
X168473006Y-95514463D01*
X168425106Y-95553774D01*
X168275067Y-95473577D01*
X168110816Y-95423752D01*
X167940000Y-95406928D01*
X167604558Y-95406928D01*
X167570284Y-95372654D01*
X167546422Y-95343578D01*
X167430392Y-95248355D01*
X167298015Y-95177598D01*
X167154378Y-95134026D01*
X167042426Y-95123000D01*
X167042423Y-95123000D01*
X167005000Y-95119314D01*
X166967577Y-95123000D01*
X162747928Y-95123000D01*
X162778084Y-95066582D01*
X162822929Y-94918745D01*
X162838072Y-94765000D01*
X162838072Y-94465000D01*
X162827829Y-94361000D01*
X163145098Y-94361000D01*
X163195000Y-94365915D01*
X163244902Y-94361000D01*
X163394171Y-94346298D01*
X163585687Y-94288202D01*
X163762190Y-94193860D01*
X163916896Y-94066896D01*
X163948712Y-94028128D01*
X167013133Y-90963708D01*
X167051896Y-90931896D01*
X167178860Y-90777190D01*
X167273202Y-90600687D01*
X167322531Y-90438072D01*
X168080000Y-90438072D01*
X168204482Y-90425812D01*
X168324180Y-90389502D01*
X168434494Y-90330537D01*
X168531185Y-90251185D01*
X168610537Y-90154494D01*
X168669502Y-90044180D01*
X168705812Y-89924482D01*
X168706647Y-89916000D01*
X171171928Y-89916000D01*
X171171928Y-91000000D01*
X171184188Y-91124482D01*
X171220498Y-91244180D01*
X171279463Y-91354494D01*
X171358815Y-91451185D01*
X171455506Y-91530537D01*
X171565820Y-91589502D01*
X171685518Y-91625812D01*
X171810000Y-91638072D01*
X174210000Y-91638072D01*
X174334482Y-91625812D01*
X174454180Y-91589502D01*
X174564494Y-91530537D01*
X174661185Y-91451185D01*
X174740537Y-91354494D01*
X174799502Y-91244180D01*
X174835812Y-91124482D01*
X174848072Y-91000000D01*
X174848072Y-86800000D01*
X174835812Y-86675518D01*
X174799502Y-86555820D01*
X174740537Y-86445506D01*
X174661185Y-86348815D01*
X174564494Y-86269463D01*
X174454180Y-86210498D01*
X174334482Y-86174188D01*
X174210000Y-86161928D01*
X171810000Y-86161928D01*
X171685518Y-86174188D01*
X171565820Y-86210498D01*
X171455506Y-86269463D01*
X171358815Y-86348815D01*
X171279463Y-86445506D01*
X171220498Y-86555820D01*
X171184188Y-86675518D01*
X171171928Y-86800000D01*
X171171928Y-87884000D01*
X168706647Y-87884000D01*
X168705812Y-87875518D01*
X168669502Y-87755820D01*
X168610537Y-87645506D01*
X168531185Y-87548815D01*
X168434494Y-87469463D01*
X168324180Y-87410498D01*
X168204482Y-87374188D01*
X168080000Y-87361928D01*
X164580000Y-87361928D01*
X164455518Y-87374188D01*
X164335820Y-87410498D01*
X164225506Y-87469463D01*
X164128815Y-87548815D01*
X164049463Y-87645506D01*
X163990498Y-87755820D01*
X163954188Y-87875518D01*
X163941928Y-88000000D01*
X163941928Y-89800000D01*
X163954188Y-89924482D01*
X163990498Y-90044180D01*
X164049463Y-90154494D01*
X164128815Y-90251185D01*
X164225506Y-90330537D01*
X164335820Y-90389502D01*
X164455518Y-90425812D01*
X164580000Y-90438072D01*
X164665087Y-90438072D01*
X162774160Y-92329000D01*
X162052000Y-92329000D01*
X162052000Y-91899743D01*
X162077821Y-91861099D01*
X162144836Y-91699312D01*
X162179000Y-91527559D01*
X162179000Y-91352441D01*
X162144836Y-91180688D01*
X162077821Y-91018901D01*
X161980531Y-90873296D01*
X161856704Y-90749469D01*
X161711099Y-90652179D01*
X161549312Y-90585164D01*
X161377559Y-90551000D01*
X161202441Y-90551000D01*
X161094337Y-90572503D01*
X161228769Y-90438072D01*
X163080000Y-90438072D01*
X163204482Y-90425812D01*
X163324180Y-90389502D01*
X163434494Y-90330537D01*
X163531185Y-90251185D01*
X163610537Y-90154494D01*
X163669502Y-90044180D01*
X163705812Y-89924482D01*
X163718072Y-89800000D01*
X163718072Y-88000000D01*
X163713479Y-87953362D01*
X166830841Y-84836000D01*
X166835671Y-84836000D01*
X166907038Y-84922962D01*
X167041614Y-85033405D01*
X167195150Y-85115472D01*
X167361746Y-85166008D01*
X167535000Y-85183072D01*
X168210000Y-85183072D01*
X168383254Y-85166008D01*
X168549850Y-85115472D01*
X168703386Y-85033405D01*
X168837962Y-84922962D01*
X168910000Y-84835183D01*
X168982038Y-84922962D01*
X169116614Y-85033405D01*
X169270150Y-85115472D01*
X169436746Y-85166008D01*
X169610000Y-85183072D01*
X170285000Y-85183072D01*
X170458254Y-85166008D01*
X170624850Y-85115472D01*
X170778386Y-85033405D01*
X170912962Y-84922962D01*
X170984329Y-84836000D01*
X174839160Y-84836000D01*
X176179249Y-86176090D01*
X176065820Y-86210498D01*
X175955506Y-86269463D01*
X175858815Y-86348815D01*
X175779463Y-86445506D01*
X175720498Y-86555820D01*
X175684188Y-86675518D01*
X175671928Y-86800000D01*
X175671928Y-91000000D01*
X175684188Y-91124482D01*
X175720498Y-91244180D01*
X175779463Y-91354494D01*
X175858815Y-91451185D01*
X175955506Y-91530537D01*
X176065820Y-91589502D01*
X176185518Y-91625812D01*
X176310000Y-91638072D01*
X178710000Y-91638072D01*
X178834482Y-91625812D01*
X178954180Y-91589502D01*
X179064494Y-91530537D01*
X179161185Y-91451185D01*
X179240537Y-91354494D01*
X179299502Y-91244180D01*
X179335812Y-91124482D01*
X179348072Y-91000000D01*
X179348072Y-89916000D01*
X181189160Y-89916000D01*
X184162764Y-92889605D01*
X182927942Y-94124428D01*
X182642500Y-94124428D01*
X182471684Y-94141252D01*
X182307433Y-94191077D01*
X182156058Y-94271988D01*
X182023377Y-94380877D01*
X181935463Y-94488000D01*
X180377422Y-94488000D01*
X180339999Y-94484314D01*
X180302576Y-94488000D01*
X180302574Y-94488000D01*
X180190622Y-94499026D01*
X180046985Y-94542598D01*
X179914608Y-94613355D01*
X179798578Y-94708578D01*
X179774721Y-94737648D01*
X178557649Y-95954721D01*
X178528579Y-95978578D01*
X178504722Y-96007648D01*
X178504721Y-96007649D01*
X178433355Y-96094608D01*
X178362599Y-96226985D01*
X178319027Y-96370622D01*
X178304314Y-96520000D01*
X178308001Y-96557433D01*
X178308001Y-97200721D01*
X178213377Y-97278377D01*
X178104488Y-97411058D01*
X178023577Y-97562433D01*
X177973752Y-97726684D01*
X177956928Y-97897500D01*
X177956928Y-98397500D01*
X177973752Y-98568316D01*
X178023577Y-98732567D01*
X178104488Y-98883942D01*
X178213377Y-99016623D01*
X178266232Y-99060000D01*
X178213377Y-99103377D01*
X178125463Y-99210500D01*
X177474537Y-99210500D01*
X177406188Y-99127217D01*
X177456185Y-99086185D01*
X177535537Y-98989494D01*
X177594502Y-98879180D01*
X177630812Y-98759482D01*
X177643072Y-98635000D01*
X177640000Y-98433250D01*
X177481250Y-98274500D01*
X176657000Y-98274500D01*
X176657000Y-98294500D01*
X176403000Y-98294500D01*
X176403000Y-98274500D01*
X175578750Y-98274500D01*
X175420000Y-98433250D01*
X175416928Y-98635000D01*
X175429188Y-98759482D01*
X175465498Y-98879180D01*
X175524463Y-98989494D01*
X175603815Y-99086185D01*
X175653812Y-99127217D01*
X175564488Y-99236058D01*
X175483577Y-99387433D01*
X175433752Y-99551684D01*
X175432145Y-99568000D01*
X174449743Y-99568000D01*
X174411099Y-99542179D01*
X174249312Y-99475164D01*
X174077559Y-99441000D01*
X173902441Y-99441000D01*
X173730688Y-99475164D01*
X173568901Y-99542179D01*
X173423296Y-99639469D01*
X173299469Y-99763296D01*
X173202179Y-99908901D01*
X173135164Y-100070688D01*
X173101000Y-100242441D01*
X173101000Y-100417559D01*
X173135164Y-100589312D01*
X173202179Y-100751099D01*
X173299469Y-100896704D01*
X173423296Y-101020531D01*
X173568901Y-101117821D01*
X173730688Y-101184836D01*
X173902441Y-101219000D01*
X174077559Y-101219000D01*
X174249312Y-101184836D01*
X174411099Y-101117821D01*
X174449743Y-101092000D01*
X176135077Y-101092000D01*
X176172500Y-101095686D01*
X176209923Y-101092000D01*
X176209926Y-101092000D01*
X176220388Y-101090970D01*
X176292500Y-101098072D01*
X176767500Y-101098072D01*
X176938316Y-101081248D01*
X177102567Y-101031423D01*
X177253942Y-100950512D01*
X177386623Y-100841623D01*
X177474537Y-100734500D01*
X178125463Y-100734500D01*
X178213377Y-100841623D01*
X178346058Y-100950512D01*
X178497433Y-101031423D01*
X178661684Y-101081248D01*
X178832500Y-101098072D01*
X179307500Y-101098072D01*
X179478316Y-101081248D01*
X179642567Y-101031423D01*
X179793942Y-100950512D01*
X179926623Y-100841623D01*
X180035512Y-100708942D01*
X180116423Y-100557567D01*
X180166248Y-100393316D01*
X180183072Y-100222500D01*
X180183072Y-99722500D01*
X180166248Y-99551684D01*
X180116423Y-99387433D01*
X180035512Y-99236058D01*
X179926623Y-99103377D01*
X179873768Y-99060000D01*
X179926623Y-99016623D01*
X180035512Y-98883942D01*
X180116423Y-98732567D01*
X180166248Y-98568316D01*
X180183072Y-98397500D01*
X180183072Y-97897500D01*
X180166248Y-97726684D01*
X180116423Y-97562433D01*
X180035512Y-97411058D01*
X179926623Y-97278377D01*
X179832000Y-97200722D01*
X179832000Y-96835630D01*
X180655631Y-96012000D01*
X181935463Y-96012000D01*
X182023377Y-96119123D01*
X182076232Y-96162500D01*
X182023377Y-96205877D01*
X181914488Y-96338558D01*
X181833577Y-96489933D01*
X181783752Y-96654184D01*
X181766928Y-96825000D01*
X181766928Y-97325000D01*
X181783752Y-97495816D01*
X181833577Y-97660067D01*
X181914488Y-97811442D01*
X182023377Y-97944123D01*
X182118000Y-98021779D01*
X182118001Y-98865721D01*
X182023377Y-98943377D01*
X181914488Y-99076058D01*
X181833577Y-99227433D01*
X181783752Y-99391684D01*
X181766928Y-99562500D01*
X181766928Y-100137500D01*
X181783752Y-100308316D01*
X181833577Y-100472567D01*
X181914488Y-100623942D01*
X181934099Y-100647839D01*
X181874463Y-100720506D01*
X181815498Y-100830820D01*
X181779188Y-100950518D01*
X181766928Y-101075000D01*
X181770000Y-101314250D01*
X181928750Y-101473000D01*
X182753000Y-101473000D01*
X182753000Y-101453000D01*
X183007000Y-101453000D01*
X183007000Y-101473000D01*
X183831250Y-101473000D01*
X183990000Y-101314250D01*
X183993072Y-101075000D01*
X183980812Y-100950518D01*
X183944502Y-100830820D01*
X183885537Y-100720506D01*
X183825901Y-100647839D01*
X183845512Y-100623942D01*
X183926423Y-100472567D01*
X183976248Y-100308316D01*
X183993072Y-100137500D01*
X183993072Y-99562500D01*
X183976248Y-99391684D01*
X183926423Y-99227433D01*
X183845512Y-99076058D01*
X183736623Y-98943377D01*
X183642000Y-98865722D01*
X183642000Y-98021778D01*
X183736623Y-97944123D01*
X183845512Y-97811442D01*
X183926423Y-97660067D01*
X183976248Y-97495816D01*
X183993072Y-97325000D01*
X183993072Y-96825000D01*
X183976248Y-96654184D01*
X183926423Y-96489933D01*
X183845512Y-96338558D01*
X183736623Y-96205877D01*
X183683768Y-96162500D01*
X183736623Y-96119123D01*
X183845512Y-95986442D01*
X183926423Y-95835067D01*
X183976248Y-95670816D01*
X183982544Y-95606890D01*
X191598524Y-95606890D01*
X191643175Y-95754099D01*
X191768359Y-96016920D01*
X191942412Y-96250269D01*
X192158645Y-96445178D01*
X192408748Y-96594157D01*
X192683109Y-96691481D01*
X192913000Y-96570814D01*
X192913000Y-95377000D01*
X193167000Y-95377000D01*
X193167000Y-96570814D01*
X193396891Y-96691481D01*
X193671252Y-96594157D01*
X193921355Y-96445178D01*
X194137588Y-96250269D01*
X194311641Y-96016920D01*
X194436825Y-95754099D01*
X194481476Y-95606890D01*
X194360155Y-95377000D01*
X193167000Y-95377000D01*
X192913000Y-95377000D01*
X191719845Y-95377000D01*
X191598524Y-95606890D01*
X183982544Y-95606890D01*
X183993072Y-95500000D01*
X183993072Y-95214558D01*
X185481631Y-93726000D01*
X191576782Y-93726000D01*
X191600498Y-93804180D01*
X191659463Y-93914494D01*
X191738815Y-94011185D01*
X191835506Y-94090537D01*
X191945820Y-94149502D01*
X192026466Y-94173966D01*
X191942412Y-94249731D01*
X191768359Y-94483080D01*
X191643175Y-94745901D01*
X191598524Y-94893110D01*
X191719845Y-95123000D01*
X192913000Y-95123000D01*
X192913000Y-95103000D01*
X193167000Y-95103000D01*
X193167000Y-95123000D01*
X194360155Y-95123000D01*
X194481476Y-94893110D01*
X194436825Y-94745901D01*
X194311641Y-94483080D01*
X194137588Y-94249731D01*
X194053534Y-94173966D01*
X194134180Y-94149502D01*
X194244494Y-94090537D01*
X194341185Y-94011185D01*
X194420537Y-93914494D01*
X194479502Y-93804180D01*
X194515812Y-93684482D01*
X194528072Y-93560000D01*
X194528072Y-91860000D01*
X194515812Y-91735518D01*
X194479502Y-91615820D01*
X194420537Y-91505506D01*
X194341185Y-91408815D01*
X194244494Y-91329463D01*
X194134180Y-91270498D01*
X194014482Y-91234188D01*
X193890000Y-91221928D01*
X192190000Y-91221928D01*
X192065518Y-91234188D01*
X191945820Y-91270498D01*
X191835506Y-91329463D01*
X191738815Y-91408815D01*
X191659463Y-91505506D01*
X191600498Y-91615820D01*
X191576782Y-91694000D01*
X185840841Y-91694000D01*
X182363712Y-88216872D01*
X182331896Y-88178104D01*
X182177190Y-88051140D01*
X182000687Y-87956798D01*
X181809171Y-87898702D01*
X181659902Y-87884000D01*
X181610000Y-87879085D01*
X181560098Y-87884000D01*
X179348072Y-87884000D01*
X179348072Y-86800000D01*
X179335812Y-86675518D01*
X179299502Y-86555820D01*
X179240537Y-86445506D01*
X179161185Y-86348815D01*
X179064494Y-86269463D01*
X178954180Y-86210498D01*
X178834482Y-86174188D01*
X178710000Y-86161928D01*
X178526000Y-86161928D01*
X178526000Y-86119902D01*
X178530915Y-86070000D01*
X178511298Y-85870829D01*
X178453202Y-85679313D01*
X178358860Y-85502810D01*
X178263706Y-85386865D01*
X178231896Y-85348104D01*
X178193133Y-85316292D01*
X176013712Y-83136872D01*
X175981896Y-83098104D01*
X175827190Y-82971140D01*
X175650687Y-82876798D01*
X175459171Y-82818702D01*
X175309902Y-82804000D01*
X175260000Y-82799085D01*
X175210098Y-82804000D01*
X170984329Y-82804000D01*
X170912962Y-82717038D01*
X170778386Y-82606595D01*
X170624850Y-82524528D01*
X170458254Y-82473992D01*
X170285000Y-82456928D01*
X169610000Y-82456928D01*
X169436746Y-82473992D01*
X169270150Y-82524528D01*
X169116614Y-82606595D01*
X168982038Y-82717038D01*
X168910000Y-82804817D01*
X168837962Y-82717038D01*
X168703386Y-82606595D01*
X168549850Y-82524528D01*
X168383254Y-82473992D01*
X168210000Y-82456928D01*
X167535000Y-82456928D01*
X167361746Y-82473992D01*
X167195150Y-82524528D01*
X167041614Y-82606595D01*
X166907038Y-82717038D01*
X166835671Y-82804000D01*
X166459902Y-82804000D01*
X166410000Y-82799085D01*
X166210829Y-82818702D01*
X166019312Y-82876798D01*
X165957832Y-82909660D01*
X165842810Y-82971140D01*
X165688104Y-83098104D01*
X165656292Y-83136867D01*
X161431232Y-87361928D01*
X159580000Y-87361928D01*
X159455518Y-87374188D01*
X159335820Y-87410498D01*
X159225506Y-87469463D01*
X159128815Y-87548815D01*
X159049463Y-87645506D01*
X158990498Y-87755820D01*
X158954188Y-87875518D01*
X158941928Y-88000000D01*
X158941928Y-89800000D01*
X158946521Y-89846638D01*
X158233040Y-90560120D01*
X158248072Y-90407500D01*
X158248072Y-89932500D01*
X158231248Y-89761684D01*
X158181423Y-89597433D01*
X158100512Y-89446058D01*
X157991623Y-89313377D01*
X157858942Y-89204488D01*
X157834500Y-89191424D01*
X157834500Y-88445407D01*
X157901099Y-88417821D01*
X158046704Y-88320531D01*
X158170531Y-88196704D01*
X158267821Y-88051099D01*
X158334836Y-87889312D01*
X158369000Y-87717559D01*
X158369000Y-87542441D01*
X158334836Y-87370688D01*
X158267821Y-87208901D01*
X158170531Y-87063296D01*
X158046704Y-86939469D01*
X157901099Y-86842179D01*
X157739312Y-86775164D01*
X157567559Y-86741000D01*
X157392441Y-86741000D01*
X157220688Y-86775164D01*
X157058901Y-86842179D01*
X156913296Y-86939469D01*
X156789469Y-87063296D01*
X156692179Y-87208901D01*
X156625164Y-87370688D01*
X156616096Y-87416274D01*
X156560149Y-87472221D01*
X156531079Y-87496078D01*
X156507222Y-87525148D01*
X156507221Y-87525149D01*
X156435855Y-87612108D01*
X156365099Y-87744485D01*
X156321527Y-87888122D01*
X156306814Y-88037500D01*
X156310501Y-88074933D01*
X156310500Y-89191423D01*
X156286058Y-89204488D01*
X156210000Y-89266907D01*
X156133942Y-89204488D01*
X155982567Y-89123577D01*
X155818316Y-89073752D01*
X155647500Y-89056928D01*
X155047500Y-89056928D01*
X154876684Y-89073752D01*
X154712433Y-89123577D01*
X154561058Y-89204488D01*
X154428377Y-89313377D01*
X154319488Y-89446058D01*
X154238577Y-89597433D01*
X154188752Y-89761684D01*
X154171928Y-89932500D01*
X154171928Y-90407500D01*
X154188752Y-90578316D01*
X154238577Y-90742567D01*
X154319488Y-90893942D01*
X154428377Y-91026623D01*
X154561058Y-91135512D01*
X154585500Y-91148577D01*
X154585501Y-92380067D01*
X154581814Y-92417500D01*
X154596527Y-92566878D01*
X154640099Y-92710515D01*
X154710855Y-92842892D01*
X154733908Y-92870982D01*
X154721916Y-92893418D01*
X154677071Y-93041255D01*
X154661928Y-93195000D01*
X154661928Y-93495000D01*
X154666308Y-93539467D01*
X152956389Y-91829549D01*
X152960537Y-91824494D01*
X153019502Y-91714180D01*
X153055812Y-91594482D01*
X153068072Y-91470000D01*
X153068072Y-88870000D01*
X153055812Y-88745518D01*
X153019502Y-88625820D01*
X152960537Y-88515506D01*
X152881185Y-88418815D01*
X152784494Y-88339463D01*
X152674180Y-88280498D01*
X152554482Y-88244188D01*
X152430000Y-88231928D01*
X149830000Y-88231928D01*
X149705518Y-88244188D01*
X149585820Y-88280498D01*
X149475506Y-88339463D01*
X149378815Y-88418815D01*
X149299463Y-88515506D01*
X149240498Y-88625820D01*
X149204188Y-88745518D01*
X149191928Y-88870000D01*
X149191928Y-91470000D01*
X149204188Y-91594482D01*
X149240498Y-91714180D01*
X149299463Y-91824494D01*
X149378815Y-91921185D01*
X149475506Y-92000537D01*
X149585820Y-92059502D01*
X149705518Y-92095812D01*
X149830000Y-92108072D01*
X150363933Y-92108072D01*
X150408105Y-92161896D01*
X150446868Y-92193708D01*
X152868159Y-94615000D01*
X151051414Y-96431746D01*
X151002500Y-96426928D01*
X150327500Y-96426928D01*
X150154246Y-96443992D01*
X149987650Y-96494528D01*
X149834114Y-96576595D01*
X149699538Y-96687038D01*
X149694158Y-96693594D01*
X149628685Y-96613815D01*
X149531994Y-96534463D01*
X149421680Y-96475498D01*
X149301982Y-96439188D01*
X149205519Y-96429688D01*
X149299619Y-96219224D01*
X148130000Y-95049605D01*
X146960381Y-96219224D01*
X141630000Y-96219224D01*
X141630000Y-94920729D01*
X146186299Y-94920729D01*
X146233543Y-95298951D01*
X146353667Y-95660690D01*
X146485688Y-95907683D01*
X146780776Y-96039619D01*
X147950395Y-94870000D01*
X148309605Y-94870000D01*
X149479224Y-96039619D01*
X149774312Y-95907683D01*
X149945159Y-95566955D01*
X150046250Y-95199443D01*
X150073701Y-94819271D01*
X150026457Y-94441049D01*
X149906333Y-94079310D01*
X149774312Y-93832317D01*
X149479224Y-93700381D01*
X148309605Y-94870000D01*
X147950395Y-94870000D01*
X146780776Y-93700381D01*
X146485688Y-93832317D01*
X146314841Y-94173045D01*
X146213750Y-94540557D01*
X146186299Y-94920729D01*
X141630000Y-94920729D01*
X141630000Y-93520776D01*
X146960381Y-93520776D01*
X148130000Y-94690395D01*
X149299619Y-93520776D01*
X149167683Y-93225688D01*
X148826955Y-93054841D01*
X148459443Y-92953750D01*
X148079271Y-92926299D01*
X147701049Y-92973543D01*
X147339310Y-93093667D01*
X147092317Y-93225688D01*
X146960381Y-93520776D01*
X141630000Y-93520776D01*
X141630000Y-91519224D01*
X143960381Y-91519224D01*
X144092317Y-91814312D01*
X144433045Y-91985159D01*
X144800557Y-92086250D01*
X145180729Y-92113701D01*
X145558951Y-92066457D01*
X145920690Y-91946333D01*
X146167683Y-91814312D01*
X146299619Y-91519224D01*
X145130000Y-90349605D01*
X143960381Y-91519224D01*
X141630000Y-91519224D01*
X141630000Y-90220729D01*
X143186299Y-90220729D01*
X143233543Y-90598951D01*
X143353667Y-90960690D01*
X143485688Y-91207683D01*
X143780776Y-91339619D01*
X144950395Y-90170000D01*
X145309605Y-90170000D01*
X146479224Y-91339619D01*
X146774312Y-91207683D01*
X146945159Y-90866955D01*
X147046250Y-90499443D01*
X147073701Y-90119271D01*
X147026457Y-89741049D01*
X146906333Y-89379310D01*
X146774312Y-89132317D01*
X146479224Y-89000381D01*
X145309605Y-90170000D01*
X144950395Y-90170000D01*
X143780776Y-89000381D01*
X143485688Y-89132317D01*
X143314841Y-89473045D01*
X143213750Y-89840557D01*
X143186299Y-90220729D01*
X141630000Y-90220729D01*
X141630000Y-88820776D01*
X143960381Y-88820776D01*
X145130000Y-89990395D01*
X146299619Y-88820776D01*
X146167683Y-88525688D01*
X145826955Y-88354841D01*
X145459443Y-88253750D01*
X145079271Y-88226299D01*
X144701049Y-88273543D01*
X144339310Y-88393667D01*
X144092317Y-88525688D01*
X143960381Y-88820776D01*
X141630000Y-88820776D01*
X141630000Y-82582279D01*
X141660543Y-82270777D01*
X141945000Y-82270777D01*
X141945000Y-82829223D01*
X142053948Y-83376939D01*
X142267656Y-83892876D01*
X142577912Y-84357207D01*
X142972793Y-84752088D01*
X143437124Y-85062344D01*
X143953061Y-85276052D01*
X144500777Y-85385000D01*
X145059223Y-85385000D01*
X145606939Y-85276052D01*
X146122876Y-85062344D01*
X146587207Y-84752088D01*
X146982088Y-84357207D01*
X147292344Y-83892876D01*
X147506052Y-83376939D01*
X147615000Y-82829223D01*
X147615000Y-82270777D01*
X188935000Y-82270777D01*
X188935000Y-82829223D01*
X189043948Y-83376939D01*
X189257656Y-83892876D01*
X189567912Y-84357207D01*
X189962793Y-84752088D01*
X190427124Y-85062344D01*
X190943061Y-85276052D01*
X191490777Y-85385000D01*
X192049223Y-85385000D01*
X192596939Y-85276052D01*
X193112876Y-85062344D01*
X193577207Y-84752088D01*
X193972088Y-84357207D01*
X194282344Y-83892876D01*
X194496052Y-83376939D01*
X194605000Y-82829223D01*
X194605000Y-82270777D01*
X194496052Y-81723061D01*
X194282344Y-81207124D01*
X193972088Y-80742793D01*
X193577207Y-80347912D01*
X193112876Y-80037656D01*
X192596939Y-79823948D01*
X192049223Y-79715000D01*
X191490777Y-79715000D01*
X190943061Y-79823948D01*
X190427124Y-80037656D01*
X189962793Y-80347912D01*
X189567912Y-80742793D01*
X189257656Y-81207124D01*
X189043948Y-81723061D01*
X188935000Y-82270777D01*
X147615000Y-82270777D01*
X147506052Y-81723061D01*
X147292344Y-81207124D01*
X146982088Y-80742793D01*
X146587207Y-80347912D01*
X146122876Y-80037656D01*
X145606939Y-79823948D01*
X145059223Y-79715000D01*
X144500777Y-79715000D01*
X143953061Y-79823948D01*
X143437124Y-80037656D01*
X142972793Y-80347912D01*
X142577912Y-80742793D01*
X142267656Y-81207124D01*
X142053948Y-81723061D01*
X141945000Y-82270777D01*
X141660543Y-82270777D01*
X141693096Y-81938778D01*
X141870606Y-81350836D01*
X142158937Y-80808564D01*
X142547094Y-80332636D01*
X143020314Y-79941155D01*
X143560552Y-79649049D01*
X144147244Y-79467437D01*
X144788879Y-79400000D01*
X191737721Y-79400000D01*
X192381222Y-79463096D01*
%TA.AperFunction,Conductor*%
D20*
G36*
X192381222Y-79463096D02*
G01*
X192969164Y-79640606D01*
X193511436Y-79928937D01*
X193987364Y-80317094D01*
X194378845Y-80790314D01*
X194670951Y-81330552D01*
X194852563Y-81917244D01*
X194920001Y-82558888D01*
X194920000Y-104107721D01*
X194856904Y-104751221D01*
X194679394Y-105339164D01*
X194391063Y-105881436D01*
X194002906Y-106357364D01*
X193529686Y-106748845D01*
X192989449Y-107040950D01*
X192402756Y-107222563D01*
X191761130Y-107290000D01*
X144812279Y-107290000D01*
X144168779Y-107226904D01*
X143580836Y-107049394D01*
X143038564Y-106761063D01*
X142562636Y-106372906D01*
X142171155Y-105899686D01*
X141879050Y-105359449D01*
X141697437Y-104772756D01*
X141630000Y-104131130D01*
X141630000Y-103860777D01*
X141945000Y-103860777D01*
X141945000Y-104419223D01*
X142053948Y-104966939D01*
X142267656Y-105482876D01*
X142577912Y-105947207D01*
X142972793Y-106342088D01*
X143437124Y-106652344D01*
X143953061Y-106866052D01*
X144500777Y-106975000D01*
X145059223Y-106975000D01*
X145606939Y-106866052D01*
X146122876Y-106652344D01*
X146587207Y-106342088D01*
X146982088Y-105947207D01*
X147292344Y-105482876D01*
X147506052Y-104966939D01*
X147576057Y-104615000D01*
X150004428Y-104615000D01*
X150016688Y-104739482D01*
X150052998Y-104859180D01*
X150111963Y-104969494D01*
X150191315Y-105066185D01*
X150288006Y-105145537D01*
X150398320Y-105204502D01*
X150518018Y-105240812D01*
X150642500Y-105253072D01*
X150844250Y-105250000D01*
X151003000Y-105091250D01*
X151003000Y-104267000D01*
X150166250Y-104267000D01*
X150007500Y-104425750D01*
X150004428Y-104615000D01*
X147576057Y-104615000D01*
X147615000Y-104419223D01*
X147615000Y-103860777D01*
X147576058Y-103665000D01*
X150004428Y-103665000D01*
X150007500Y-103854250D01*
X150166250Y-104013000D01*
X151003000Y-104013000D01*
X151003000Y-103188750D01*
X150844250Y-103030000D01*
X150642500Y-103026928D01*
X150518018Y-103039188D01*
X150398320Y-103075498D01*
X150288006Y-103134463D01*
X150191315Y-103213815D01*
X150111963Y-103310506D01*
X150052998Y-103420820D01*
X150016688Y-103540518D01*
X150004428Y-103665000D01*
X147576058Y-103665000D01*
X147506052Y-103313061D01*
X147292344Y-102797124D01*
X146982088Y-102332793D01*
X146587207Y-101937912D01*
X146122876Y-101627656D01*
X145606939Y-101413948D01*
X145059223Y-101305000D01*
X144500777Y-101305000D01*
X143953061Y-101413948D01*
X143437124Y-101627656D01*
X142972793Y-101937912D01*
X142577912Y-102332793D01*
X142267656Y-102797124D01*
X142053948Y-103313061D01*
X141945000Y-103860777D01*
X141630000Y-103860777D01*
X141630000Y-98515000D01*
X147364428Y-98515000D01*
X147376688Y-98639482D01*
X147412998Y-98759180D01*
X147471963Y-98869494D01*
X147551315Y-98966185D01*
X147648006Y-99045537D01*
X147758320Y-99104502D01*
X147878018Y-99140812D01*
X148002500Y-99153072D01*
X148304250Y-99150000D01*
X148463000Y-98991250D01*
X148463000Y-97917000D01*
X147526250Y-97917000D01*
X147367500Y-98075750D01*
X147364428Y-98515000D01*
X141630000Y-98515000D01*
X141630000Y-96219224D01*
X146960381Y-96219224D01*
X147092317Y-96514312D01*
X147433045Y-96685159D01*
X147481766Y-96698561D01*
X147471963Y-96710506D01*
X147412998Y-96820820D01*
X147376688Y-96940518D01*
X147364428Y-97065000D01*
X147367500Y-97504250D01*
X147526250Y-97663000D01*
X148463000Y-97663000D01*
X148463000Y-97643000D01*
X148717000Y-97643000D01*
X148717000Y-97663000D01*
X148737000Y-97663000D01*
X148737000Y-97917000D01*
X148717000Y-97917000D01*
X148717000Y-98991250D01*
X148875750Y-99150000D01*
X149177500Y-99153072D01*
X149301982Y-99140812D01*
X149421680Y-99104502D01*
X149531994Y-99045537D01*
X149628685Y-98966185D01*
X149694158Y-98886406D01*
X149699538Y-98892962D01*
X149834114Y-99003405D01*
X149987650Y-99085472D01*
X150154246Y-99136008D01*
X150327500Y-99153072D01*
X150368001Y-99153072D01*
X150368000Y-100655463D01*
X150260877Y-100743377D01*
X150151988Y-100876058D01*
X150071077Y-101027433D01*
X150021252Y-101191684D01*
X150004428Y-101362500D01*
X150004428Y-101837500D01*
X150021252Y-102008316D01*
X150071077Y-102172567D01*
X150151988Y-102323942D01*
X150260877Y-102456623D01*
X150393558Y-102565512D01*
X150544933Y-102646423D01*
X150709184Y-102696248D01*
X150880000Y-102713072D01*
X151380000Y-102713072D01*
X151550816Y-102696248D01*
X151715067Y-102646423D01*
X151866442Y-102565512D01*
X151999123Y-102456623D01*
X152042500Y-102403768D01*
X152085877Y-102456623D01*
X152193001Y-102544538D01*
X152193000Y-103195463D01*
X152109717Y-103263812D01*
X152068685Y-103213815D01*
X151971994Y-103134463D01*
X151861680Y-103075498D01*
X151741982Y-103039188D01*
X151617500Y-103026928D01*
X151415750Y-103030000D01*
X151257000Y-103188750D01*
X151257000Y-104013000D01*
X151277000Y-104013000D01*
X151277000Y-104267000D01*
X151257000Y-104267000D01*
X151257000Y-105091250D01*
X151415750Y-105250000D01*
X151617500Y-105253072D01*
X151741982Y-105240812D01*
X151861680Y-105204502D01*
X151971994Y-105145537D01*
X152068685Y-105066185D01*
X152109717Y-105016188D01*
X152218558Y-105105512D01*
X152369933Y-105186423D01*
X152534184Y-105236248D01*
X152705000Y-105253072D01*
X153205000Y-105253072D01*
X153375816Y-105236248D01*
X153540067Y-105186423D01*
X153691442Y-105105512D01*
X153824123Y-104996623D01*
X153933012Y-104863942D01*
X154013923Y-104712567D01*
X154043519Y-104615000D01*
X161434428Y-104615000D01*
X161446688Y-104739482D01*
X161482998Y-104859180D01*
X161541963Y-104969494D01*
X161621315Y-105066185D01*
X161718006Y-105145537D01*
X161828320Y-105204502D01*
X161948018Y-105240812D01*
X162072500Y-105253072D01*
X162274250Y-105250000D01*
X162433000Y-105091250D01*
X162433000Y-104267000D01*
X161596250Y-104267000D01*
X161437500Y-104425750D01*
X161434428Y-104615000D01*
X154043519Y-104615000D01*
X154063748Y-104548316D01*
X154080572Y-104377500D01*
X154080572Y-103902500D01*
X154063748Y-103731684D01*
X154043520Y-103665000D01*
X161434428Y-103665000D01*
X161437500Y-103854250D01*
X161596250Y-104013000D01*
X162433000Y-104013000D01*
X162433000Y-103188750D01*
X162274250Y-103030000D01*
X162072500Y-103026928D01*
X161948018Y-103039188D01*
X161828320Y-103075498D01*
X161718006Y-103134463D01*
X161621315Y-103213815D01*
X161541963Y-103310506D01*
X161482998Y-103420820D01*
X161446688Y-103540518D01*
X161434428Y-103665000D01*
X154043520Y-103665000D01*
X154013923Y-103567433D01*
X153933012Y-103416058D01*
X153824123Y-103283377D01*
X153717000Y-103195463D01*
X153717000Y-102544537D01*
X153824123Y-102456623D01*
X153933012Y-102323942D01*
X154013923Y-102172567D01*
X154043519Y-102075000D01*
X161384428Y-102075000D01*
X161396688Y-102199482D01*
X161432998Y-102319180D01*
X161491963Y-102429494D01*
X161571315Y-102526185D01*
X161668006Y-102605537D01*
X161778320Y-102664502D01*
X161898018Y-102700812D01*
X162022500Y-102713072D01*
X162274250Y-102710000D01*
X162433000Y-102551250D01*
X162433000Y-101727000D01*
X161546250Y-101727000D01*
X161387500Y-101885750D01*
X161384428Y-102075000D01*
X154043519Y-102075000D01*
X154063748Y-102008316D01*
X154080572Y-101837500D01*
X154080572Y-101362500D01*
X154063748Y-101191684D01*
X154043520Y-101125000D01*
X161384428Y-101125000D01*
X161387500Y-101314250D01*
X161546250Y-101473000D01*
X162433000Y-101473000D01*
X162433000Y-100648750D01*
X162274250Y-100490000D01*
X162022500Y-100486928D01*
X161898018Y-100499188D01*
X161778320Y-100535498D01*
X161668006Y-100594463D01*
X161571315Y-100673815D01*
X161491963Y-100770506D01*
X161432998Y-100880820D01*
X161396688Y-101000518D01*
X161384428Y-101125000D01*
X154043520Y-101125000D01*
X154013923Y-101027433D01*
X153933012Y-100876058D01*
X153824123Y-100743377D01*
X153717000Y-100655463D01*
X153717000Y-98545630D01*
X154706586Y-97556045D01*
X154721916Y-97606582D01*
X154794742Y-97742829D01*
X154892749Y-97862251D01*
X155012171Y-97960258D01*
X155148418Y-98033084D01*
X155296255Y-98077929D01*
X155450000Y-98093072D01*
X156135442Y-98093072D01*
X157614720Y-99572351D01*
X157638578Y-99601422D01*
X157667648Y-99625279D01*
X157754607Y-99696645D01*
X157802979Y-99722500D01*
X157886985Y-99767402D01*
X158030622Y-99810974D01*
X158142574Y-99822000D01*
X158142577Y-99822000D01*
X158180000Y-99825686D01*
X158217423Y-99822000D01*
X162244370Y-99822000D01*
X162911566Y-100489197D01*
X162845750Y-100490000D01*
X162687000Y-100648750D01*
X162687000Y-101473000D01*
X162707000Y-101473000D01*
X162707000Y-101727000D01*
X162687000Y-101727000D01*
X162687000Y-102551250D01*
X162845750Y-102710000D01*
X163097500Y-102713072D01*
X163221982Y-102700812D01*
X163341680Y-102664502D01*
X163451994Y-102605537D01*
X163499894Y-102566226D01*
X163649933Y-102646423D01*
X163814184Y-102696248D01*
X163985000Y-102713072D01*
X164585000Y-102713072D01*
X164755816Y-102696248D01*
X164920067Y-102646423D01*
X165071442Y-102565512D01*
X165204123Y-102456623D01*
X165313012Y-102323942D01*
X165393923Y-102172567D01*
X165443748Y-102008316D01*
X165460572Y-101837500D01*
X165460572Y-101362500D01*
X165443748Y-101191684D01*
X165393923Y-101027433D01*
X165313012Y-100876058D01*
X165204123Y-100743377D01*
X165071442Y-100634488D01*
X165028700Y-100611642D01*
X164992402Y-100491985D01*
X164921645Y-100359608D01*
X164826422Y-100243578D01*
X164797352Y-100219721D01*
X163125284Y-98547654D01*
X163101422Y-98518578D01*
X162985392Y-98423355D01*
X162853015Y-98352598D01*
X162709378Y-98309026D01*
X162597426Y-98298000D01*
X162597423Y-98298000D01*
X162560000Y-98294314D01*
X162522577Y-98298000D01*
X158495631Y-98298000D01*
X157819769Y-97622138D01*
X157828084Y-97606582D01*
X157872929Y-97458745D01*
X157888072Y-97305000D01*
X157888072Y-97005000D01*
X157872929Y-96851255D01*
X157828084Y-96703418D01*
X157755258Y-96567171D01*
X157716546Y-96520000D01*
X157755258Y-96472829D01*
X157828084Y-96336582D01*
X157872929Y-96188745D01*
X157888072Y-96035000D01*
X157888072Y-95735000D01*
X157872929Y-95581255D01*
X157828084Y-95433418D01*
X157755258Y-95297171D01*
X157716546Y-95250000D01*
X157755258Y-95202829D01*
X157828084Y-95066582D01*
X157872929Y-94918745D01*
X157888072Y-94765000D01*
X157888072Y-94465000D01*
X157872929Y-94311255D01*
X157828084Y-94163418D01*
X157755258Y-94027171D01*
X157716546Y-93980000D01*
X157755258Y-93932829D01*
X157828084Y-93796582D01*
X157872929Y-93648745D01*
X157874537Y-93632417D01*
X157901141Y-93682190D01*
X158028105Y-93836896D01*
X158066868Y-93868708D01*
X159496292Y-95298133D01*
X159528104Y-95336896D01*
X159666694Y-95450634D01*
X159627071Y-95581255D01*
X159611928Y-95735000D01*
X159611928Y-96035000D01*
X159627071Y-96188745D01*
X159671916Y-96336582D01*
X159744742Y-96472829D01*
X159783454Y-96520000D01*
X159744742Y-96567171D01*
X159671916Y-96703418D01*
X159627071Y-96851255D01*
X159611928Y-97005000D01*
X159611928Y-97305000D01*
X159627071Y-97458745D01*
X159671916Y-97606582D01*
X159744742Y-97742829D01*
X159842749Y-97862251D01*
X159962171Y-97960258D01*
X160098418Y-98033084D01*
X160246255Y-98077929D01*
X160400000Y-98093072D01*
X162050000Y-98093072D01*
X162203745Y-98077929D01*
X162351582Y-98033084D01*
X162487829Y-97960258D01*
X162540539Y-97917000D01*
X162879370Y-97917000D01*
X162966096Y-98003726D01*
X162975164Y-98049312D01*
X163042179Y-98211099D01*
X163139469Y-98356704D01*
X163263296Y-98480531D01*
X163408901Y-98577821D01*
X163570688Y-98644836D01*
X163742441Y-98679000D01*
X163917559Y-98679000D01*
X164089312Y-98644836D01*
X164251099Y-98577821D01*
X164396704Y-98480531D01*
X164520531Y-98356704D01*
X164617821Y-98211099D01*
X164684836Y-98049312D01*
X164719000Y-97877559D01*
X164719000Y-97702441D01*
X164684836Y-97530688D01*
X164617821Y-97368901D01*
X164520531Y-97223296D01*
X164396704Y-97099469D01*
X164251099Y-97002179D01*
X164089312Y-96935164D01*
X164043726Y-96926096D01*
X163764630Y-96647000D01*
X166464428Y-96647000D01*
X166464428Y-96757500D01*
X166481252Y-96928316D01*
X166531077Y-97092567D01*
X166611988Y-97243942D01*
X166720877Y-97376623D01*
X166853558Y-97485512D01*
X166878000Y-97498577D01*
X166878001Y-98081423D01*
X166853558Y-98094488D01*
X166720877Y-98203377D01*
X166611988Y-98336058D01*
X166531077Y-98487433D01*
X166481252Y-98651684D01*
X166464428Y-98822500D01*
X166464428Y-99297500D01*
X166481252Y-99468316D01*
X166531077Y-99632567D01*
X166611988Y-99783942D01*
X166720877Y-99916623D01*
X166853558Y-100025512D01*
X167004933Y-100106423D01*
X167169184Y-100156248D01*
X167340000Y-100173072D01*
X167940000Y-100173072D01*
X168110816Y-100156248D01*
X168275067Y-100106423D01*
X168426442Y-100025512D01*
X168502500Y-99963093D01*
X168578558Y-100025512D01*
X168603001Y-100038577D01*
X168603000Y-100829370D01*
X166054370Y-103378000D01*
X165331778Y-103378000D01*
X165254123Y-103283377D01*
X165121442Y-103174488D01*
X164970067Y-103093577D01*
X164805816Y-103043752D01*
X164635000Y-103026928D01*
X164135000Y-103026928D01*
X163964184Y-103043752D01*
X163799933Y-103093577D01*
X163648558Y-103174488D01*
X163539717Y-103263812D01*
X163498685Y-103213815D01*
X163401994Y-103134463D01*
X163291680Y-103075498D01*
X163171982Y-103039188D01*
X163047500Y-103026928D01*
X162845750Y-103030000D01*
X162687000Y-103188750D01*
X162687000Y-104013000D01*
X162707000Y-104013000D01*
X162707000Y-104267000D01*
X162687000Y-104267000D01*
X162687000Y-105091250D01*
X162845750Y-105250000D01*
X163047500Y-105253072D01*
X163171982Y-105240812D01*
X163291680Y-105204502D01*
X163401994Y-105145537D01*
X163498685Y-105066185D01*
X163539717Y-105016188D01*
X163648558Y-105105512D01*
X163799933Y-105186423D01*
X163964184Y-105236248D01*
X164135000Y-105253072D01*
X164635000Y-105253072D01*
X164805816Y-105236248D01*
X164970067Y-105186423D01*
X165121442Y-105105512D01*
X165254123Y-104996623D01*
X165331778Y-104902000D01*
X166332577Y-104902000D01*
X166370000Y-104905686D01*
X166407423Y-104902000D01*
X166407426Y-104902000D01*
X166519378Y-104890974D01*
X166663015Y-104847402D01*
X166795392Y-104776645D01*
X166911422Y-104681422D01*
X166935284Y-104652346D01*
X167726853Y-103860777D01*
X188935000Y-103860777D01*
X188935000Y-104419223D01*
X189043948Y-104966939D01*
X189257656Y-105482876D01*
X189567912Y-105947207D01*
X189962793Y-106342088D01*
X190427124Y-106652344D01*
X190943061Y-106866052D01*
X191490777Y-106975000D01*
X192049223Y-106975000D01*
X192596939Y-106866052D01*
X193112876Y-106652344D01*
X193577207Y-106342088D01*
X193972088Y-105947207D01*
X194282344Y-105482876D01*
X194496052Y-104966939D01*
X194605000Y-104419223D01*
X194605000Y-103860777D01*
X194496052Y-103313061D01*
X194282344Y-102797124D01*
X193972088Y-102332793D01*
X193577207Y-101937912D01*
X193112876Y-101627656D01*
X192596939Y-101413948D01*
X192049223Y-101305000D01*
X191490777Y-101305000D01*
X190943061Y-101413948D01*
X190427124Y-101627656D01*
X189962793Y-101937912D01*
X189567912Y-102332793D01*
X189257656Y-102797124D01*
X189043948Y-103313061D01*
X188935000Y-103860777D01*
X167726853Y-103860777D01*
X169462630Y-102125000D01*
X181766928Y-102125000D01*
X181779188Y-102249482D01*
X181815498Y-102369180D01*
X181874463Y-102479494D01*
X181953815Y-102576185D01*
X182050506Y-102655537D01*
X182160820Y-102714502D01*
X182280518Y-102750812D01*
X182405000Y-102763072D01*
X182594250Y-102760000D01*
X182753000Y-102601250D01*
X182753000Y-101727000D01*
X183007000Y-101727000D01*
X183007000Y-102601250D01*
X183165750Y-102760000D01*
X183355000Y-102763072D01*
X183479482Y-102750812D01*
X183599180Y-102714502D01*
X183709494Y-102655537D01*
X183806185Y-102576185D01*
X183885537Y-102479494D01*
X183944502Y-102369180D01*
X183980812Y-102249482D01*
X183993072Y-102125000D01*
X183990000Y-101885750D01*
X183831250Y-101727000D01*
X183007000Y-101727000D01*
X182753000Y-101727000D01*
X181928750Y-101727000D01*
X181770000Y-101885750D01*
X181766928Y-102125000D01*
X169462630Y-102125000D01*
X169877347Y-101710283D01*
X169906422Y-101686422D01*
X169966857Y-101612781D01*
X170001645Y-101570393D01*
X170072401Y-101438016D01*
X170072402Y-101438015D01*
X170115974Y-101294378D01*
X170127000Y-101182426D01*
X170127000Y-101182423D01*
X170130686Y-101145000D01*
X170127000Y-101107577D01*
X170127000Y-100038576D01*
X170151442Y-100025512D01*
X170284123Y-99916623D01*
X170393012Y-99783942D01*
X170473923Y-99632567D01*
X170523748Y-99468316D01*
X170540572Y-99297500D01*
X170540572Y-98822500D01*
X170523748Y-98651684D01*
X170473923Y-98487433D01*
X170393012Y-98336058D01*
X170284123Y-98203377D01*
X170151442Y-98094488D01*
X170000067Y-98013577D01*
X169835816Y-97963752D01*
X169665000Y-97946928D01*
X169065000Y-97946928D01*
X168894184Y-97963752D01*
X168729933Y-98013577D01*
X168578558Y-98094488D01*
X168502500Y-98156907D01*
X168426442Y-98094488D01*
X168402000Y-98081424D01*
X168402000Y-97660000D01*
X175416928Y-97660000D01*
X175420000Y-97861750D01*
X175578750Y-98020500D01*
X176403000Y-98020500D01*
X176403000Y-97183750D01*
X176657000Y-97183750D01*
X176657000Y-98020500D01*
X177481250Y-98020500D01*
X177640000Y-97861750D01*
X177643072Y-97660000D01*
X177630812Y-97535518D01*
X177594502Y-97415820D01*
X177535537Y-97305506D01*
X177456185Y-97208815D01*
X177359494Y-97129463D01*
X177249180Y-97070498D01*
X177129482Y-97034188D01*
X177005000Y-97021928D01*
X176815750Y-97025000D01*
X176657000Y-97183750D01*
X176403000Y-97183750D01*
X176244250Y-97025000D01*
X176055000Y-97021928D01*
X175930518Y-97034188D01*
X175810820Y-97070498D01*
X175700506Y-97129463D01*
X175603815Y-97208815D01*
X175524463Y-97305506D01*
X175465498Y-97415820D01*
X175429188Y-97535518D01*
X175416928Y-97660000D01*
X168402000Y-97660000D01*
X168402000Y-97498576D01*
X168425106Y-97486226D01*
X168473006Y-97525537D01*
X168583320Y-97584502D01*
X168703018Y-97620812D01*
X168827500Y-97633072D01*
X169079250Y-97630000D01*
X169238000Y-97471250D01*
X169238000Y-96647000D01*
X169492000Y-96647000D01*
X169492000Y-97471250D01*
X169650750Y-97630000D01*
X169902500Y-97633072D01*
X170026982Y-97620812D01*
X170146680Y-97584502D01*
X170256994Y-97525537D01*
X170353685Y-97446185D01*
X170433037Y-97349494D01*
X170492002Y-97239180D01*
X170528312Y-97119482D01*
X170540572Y-96995000D01*
X170537500Y-96805750D01*
X170378750Y-96647000D01*
X169492000Y-96647000D01*
X169238000Y-96647000D01*
X169218000Y-96647000D01*
X169218000Y-96393000D01*
X169238000Y-96393000D01*
X169238000Y-95568750D01*
X169492000Y-95568750D01*
X169492000Y-96393000D01*
X170378750Y-96393000D01*
X170537500Y-96234250D01*
X170540572Y-96045000D01*
X170528312Y-95920518D01*
X170492002Y-95800820D01*
X170433037Y-95690506D01*
X170353685Y-95593815D01*
X170256994Y-95514463D01*
X170146680Y-95455498D01*
X170026982Y-95419188D01*
X169902500Y-95406928D01*
X169650750Y-95410000D01*
X169492000Y-95568750D01*
X169238000Y-95568750D01*
X169079250Y-95410000D01*
X168827500Y-95406928D01*
X168703018Y-95419188D01*
X168583320Y-95455498D01*
X168473006Y-95514463D01*
X168425106Y-95553774D01*
X168275067Y-95473577D01*
X168110816Y-95423752D01*
X167940000Y-95406928D01*
X167604558Y-95406928D01*
X167570284Y-95372654D01*
X167546422Y-95343578D01*
X167430392Y-95248355D01*
X167298015Y-95177598D01*
X167154378Y-95134026D01*
X167042426Y-95123000D01*
X167042423Y-95123000D01*
X167005000Y-95119314D01*
X166967577Y-95123000D01*
X162747928Y-95123000D01*
X162778084Y-95066582D01*
X162822929Y-94918745D01*
X162838072Y-94765000D01*
X162838072Y-94465000D01*
X162827829Y-94361000D01*
X163145098Y-94361000D01*
X163195000Y-94365915D01*
X163244902Y-94361000D01*
X163394171Y-94346298D01*
X163585687Y-94288202D01*
X163762190Y-94193860D01*
X163916896Y-94066896D01*
X163948712Y-94028128D01*
X167013133Y-90963708D01*
X167051896Y-90931896D01*
X167178860Y-90777190D01*
X167273202Y-90600687D01*
X167322531Y-90438072D01*
X168080000Y-90438072D01*
X168204482Y-90425812D01*
X168324180Y-90389502D01*
X168434494Y-90330537D01*
X168531185Y-90251185D01*
X168610537Y-90154494D01*
X168669502Y-90044180D01*
X168705812Y-89924482D01*
X168706647Y-89916000D01*
X171171928Y-89916000D01*
X171171928Y-91000000D01*
X171184188Y-91124482D01*
X171220498Y-91244180D01*
X171279463Y-91354494D01*
X171358815Y-91451185D01*
X171455506Y-91530537D01*
X171565820Y-91589502D01*
X171685518Y-91625812D01*
X171810000Y-91638072D01*
X174210000Y-91638072D01*
X174334482Y-91625812D01*
X174454180Y-91589502D01*
X174564494Y-91530537D01*
X174661185Y-91451185D01*
X174740537Y-91354494D01*
X174799502Y-91244180D01*
X174835812Y-91124482D01*
X174848072Y-91000000D01*
X174848072Y-86800000D01*
X174835812Y-86675518D01*
X174799502Y-86555820D01*
X174740537Y-86445506D01*
X174661185Y-86348815D01*
X174564494Y-86269463D01*
X174454180Y-86210498D01*
X174334482Y-86174188D01*
X174210000Y-86161928D01*
X171810000Y-86161928D01*
X171685518Y-86174188D01*
X171565820Y-86210498D01*
X171455506Y-86269463D01*
X171358815Y-86348815D01*
X171279463Y-86445506D01*
X171220498Y-86555820D01*
X171184188Y-86675518D01*
X171171928Y-86800000D01*
X171171928Y-87884000D01*
X168706647Y-87884000D01*
X168705812Y-87875518D01*
X168669502Y-87755820D01*
X168610537Y-87645506D01*
X168531185Y-87548815D01*
X168434494Y-87469463D01*
X168324180Y-87410498D01*
X168204482Y-87374188D01*
X168080000Y-87361928D01*
X164580000Y-87361928D01*
X164455518Y-87374188D01*
X164335820Y-87410498D01*
X164225506Y-87469463D01*
X164128815Y-87548815D01*
X164049463Y-87645506D01*
X163990498Y-87755820D01*
X163954188Y-87875518D01*
X163941928Y-88000000D01*
X163941928Y-89800000D01*
X163954188Y-89924482D01*
X163990498Y-90044180D01*
X164049463Y-90154494D01*
X164128815Y-90251185D01*
X164225506Y-90330537D01*
X164335820Y-90389502D01*
X164455518Y-90425812D01*
X164580000Y-90438072D01*
X164665087Y-90438072D01*
X162774160Y-92329000D01*
X162052000Y-92329000D01*
X162052000Y-91899743D01*
X162077821Y-91861099D01*
X162144836Y-91699312D01*
X162179000Y-91527559D01*
X162179000Y-91352441D01*
X162144836Y-91180688D01*
X162077821Y-91018901D01*
X161980531Y-90873296D01*
X161856704Y-90749469D01*
X161711099Y-90652179D01*
X161549312Y-90585164D01*
X161377559Y-90551000D01*
X161202441Y-90551000D01*
X161094337Y-90572503D01*
X161228769Y-90438072D01*
X163080000Y-90438072D01*
X163204482Y-90425812D01*
X163324180Y-90389502D01*
X163434494Y-90330537D01*
X163531185Y-90251185D01*
X163610537Y-90154494D01*
X163669502Y-90044180D01*
X163705812Y-89924482D01*
X163718072Y-89800000D01*
X163718072Y-88000000D01*
X163713479Y-87953362D01*
X166830841Y-84836000D01*
X166835671Y-84836000D01*
X166907038Y-84922962D01*
X167041614Y-85033405D01*
X167195150Y-85115472D01*
X167361746Y-85166008D01*
X167535000Y-85183072D01*
X168210000Y-85183072D01*
X168383254Y-85166008D01*
X168549850Y-85115472D01*
X168703386Y-85033405D01*
X168837962Y-84922962D01*
X168910000Y-84835183D01*
X168982038Y-84922962D01*
X169116614Y-85033405D01*
X169270150Y-85115472D01*
X169436746Y-85166008D01*
X169610000Y-85183072D01*
X170285000Y-85183072D01*
X170458254Y-85166008D01*
X170624850Y-85115472D01*
X170778386Y-85033405D01*
X170912962Y-84922962D01*
X170984329Y-84836000D01*
X174839160Y-84836000D01*
X176179249Y-86176090D01*
X176065820Y-86210498D01*
X175955506Y-86269463D01*
X175858815Y-86348815D01*
X175779463Y-86445506D01*
X175720498Y-86555820D01*
X175684188Y-86675518D01*
X175671928Y-86800000D01*
X175671928Y-91000000D01*
X175684188Y-91124482D01*
X175720498Y-91244180D01*
X175779463Y-91354494D01*
X175858815Y-91451185D01*
X175955506Y-91530537D01*
X176065820Y-91589502D01*
X176185518Y-91625812D01*
X176310000Y-91638072D01*
X178710000Y-91638072D01*
X178834482Y-91625812D01*
X178954180Y-91589502D01*
X179064494Y-91530537D01*
X179161185Y-91451185D01*
X179240537Y-91354494D01*
X179299502Y-91244180D01*
X179335812Y-91124482D01*
X179348072Y-91000000D01*
X179348072Y-89916000D01*
X181189160Y-89916000D01*
X184162764Y-92889605D01*
X182927942Y-94124428D01*
X182642500Y-94124428D01*
X182471684Y-94141252D01*
X182307433Y-94191077D01*
X182156058Y-94271988D01*
X182023377Y-94380877D01*
X181935463Y-94488000D01*
X180377422Y-94488000D01*
X180339999Y-94484314D01*
X180302576Y-94488000D01*
X180302574Y-94488000D01*
X180190622Y-94499026D01*
X180046985Y-94542598D01*
X179914608Y-94613355D01*
X179798578Y-94708578D01*
X179774721Y-94737648D01*
X178557649Y-95954721D01*
X178528579Y-95978578D01*
X178504722Y-96007648D01*
X178504721Y-96007649D01*
X178433355Y-96094608D01*
X178362599Y-96226985D01*
X178319027Y-96370622D01*
X178304314Y-96520000D01*
X178308001Y-96557433D01*
X178308001Y-97200721D01*
X178213377Y-97278377D01*
X178104488Y-97411058D01*
X178023577Y-97562433D01*
X177973752Y-97726684D01*
X177956928Y-97897500D01*
X177956928Y-98397500D01*
X177973752Y-98568316D01*
X178023577Y-98732567D01*
X178104488Y-98883942D01*
X178213377Y-99016623D01*
X178266232Y-99060000D01*
X178213377Y-99103377D01*
X178125463Y-99210500D01*
X177474537Y-99210500D01*
X177406188Y-99127217D01*
X177456185Y-99086185D01*
X177535537Y-98989494D01*
X177594502Y-98879180D01*
X177630812Y-98759482D01*
X177643072Y-98635000D01*
X177640000Y-98433250D01*
X177481250Y-98274500D01*
X176657000Y-98274500D01*
X176657000Y-98294500D01*
X176403000Y-98294500D01*
X176403000Y-98274500D01*
X175578750Y-98274500D01*
X175420000Y-98433250D01*
X175416928Y-98635000D01*
X175429188Y-98759482D01*
X175465498Y-98879180D01*
X175524463Y-98989494D01*
X175603815Y-99086185D01*
X175653812Y-99127217D01*
X175564488Y-99236058D01*
X175483577Y-99387433D01*
X175433752Y-99551684D01*
X175432145Y-99568000D01*
X174449743Y-99568000D01*
X174411099Y-99542179D01*
X174249312Y-99475164D01*
X174077559Y-99441000D01*
X173902441Y-99441000D01*
X173730688Y-99475164D01*
X173568901Y-99542179D01*
X173423296Y-99639469D01*
X173299469Y-99763296D01*
X173202179Y-99908901D01*
X173135164Y-100070688D01*
X173101000Y-100242441D01*
X173101000Y-100417559D01*
X173135164Y-100589312D01*
X173202179Y-100751099D01*
X173299469Y-100896704D01*
X173423296Y-101020531D01*
X173568901Y-101117821D01*
X173730688Y-101184836D01*
X173902441Y-101219000D01*
X174077559Y-101219000D01*
X174249312Y-101184836D01*
X174411099Y-101117821D01*
X174449743Y-101092000D01*
X176135077Y-101092000D01*
X176172500Y-101095686D01*
X176209923Y-101092000D01*
X176209926Y-101092000D01*
X176220388Y-101090970D01*
X176292500Y-101098072D01*
X176767500Y-101098072D01*
X176938316Y-101081248D01*
X177102567Y-101031423D01*
X177253942Y-100950512D01*
X177386623Y-100841623D01*
X177474537Y-100734500D01*
X178125463Y-100734500D01*
X178213377Y-100841623D01*
X178346058Y-100950512D01*
X178497433Y-101031423D01*
X178661684Y-101081248D01*
X178832500Y-101098072D01*
X179307500Y-101098072D01*
X179478316Y-101081248D01*
X179642567Y-101031423D01*
X179793942Y-100950512D01*
X179926623Y-100841623D01*
X180035512Y-100708942D01*
X180116423Y-100557567D01*
X180166248Y-100393316D01*
X180183072Y-100222500D01*
X180183072Y-99722500D01*
X180166248Y-99551684D01*
X180116423Y-99387433D01*
X180035512Y-99236058D01*
X179926623Y-99103377D01*
X179873768Y-99060000D01*
X179926623Y-99016623D01*
X180035512Y-98883942D01*
X180116423Y-98732567D01*
X180166248Y-98568316D01*
X180183072Y-98397500D01*
X180183072Y-97897500D01*
X180166248Y-97726684D01*
X180116423Y-97562433D01*
X180035512Y-97411058D01*
X179926623Y-97278377D01*
X179832000Y-97200722D01*
X179832000Y-96835630D01*
X180655631Y-96012000D01*
X181935463Y-96012000D01*
X182023377Y-96119123D01*
X182076232Y-96162500D01*
X182023377Y-96205877D01*
X181914488Y-96338558D01*
X181833577Y-96489933D01*
X181783752Y-96654184D01*
X181766928Y-96825000D01*
X181766928Y-97325000D01*
X181783752Y-97495816D01*
X181833577Y-97660067D01*
X181914488Y-97811442D01*
X182023377Y-97944123D01*
X182118000Y-98021779D01*
X182118001Y-98865721D01*
X182023377Y-98943377D01*
X181914488Y-99076058D01*
X181833577Y-99227433D01*
X181783752Y-99391684D01*
X181766928Y-99562500D01*
X181766928Y-100137500D01*
X181783752Y-100308316D01*
X181833577Y-100472567D01*
X181914488Y-100623942D01*
X181934099Y-100647839D01*
X181874463Y-100720506D01*
X181815498Y-100830820D01*
X181779188Y-100950518D01*
X181766928Y-101075000D01*
X181770000Y-101314250D01*
X181928750Y-101473000D01*
X182753000Y-101473000D01*
X182753000Y-101453000D01*
X183007000Y-101453000D01*
X183007000Y-101473000D01*
X183831250Y-101473000D01*
X183990000Y-101314250D01*
X183993072Y-101075000D01*
X183980812Y-100950518D01*
X183944502Y-100830820D01*
X183885537Y-100720506D01*
X183825901Y-100647839D01*
X183845512Y-100623942D01*
X183926423Y-100472567D01*
X183976248Y-100308316D01*
X183993072Y-100137500D01*
X183993072Y-99562500D01*
X183976248Y-99391684D01*
X183926423Y-99227433D01*
X183845512Y-99076058D01*
X183736623Y-98943377D01*
X183642000Y-98865722D01*
X183642000Y-98021778D01*
X183736623Y-97944123D01*
X183845512Y-97811442D01*
X183926423Y-97660067D01*
X183976248Y-97495816D01*
X183993072Y-97325000D01*
X183993072Y-96825000D01*
X183976248Y-96654184D01*
X183926423Y-96489933D01*
X183845512Y-96338558D01*
X183736623Y-96205877D01*
X183683768Y-96162500D01*
X183736623Y-96119123D01*
X183845512Y-95986442D01*
X183926423Y-95835067D01*
X183976248Y-95670816D01*
X183982544Y-95606890D01*
X191598524Y-95606890D01*
X191643175Y-95754099D01*
X191768359Y-96016920D01*
X191942412Y-96250269D01*
X192158645Y-96445178D01*
X192408748Y-96594157D01*
X192683109Y-96691481D01*
X192913000Y-96570814D01*
X192913000Y-95377000D01*
X193167000Y-95377000D01*
X193167000Y-96570814D01*
X193396891Y-96691481D01*
X193671252Y-96594157D01*
X193921355Y-96445178D01*
X194137588Y-96250269D01*
X194311641Y-96016920D01*
X194436825Y-95754099D01*
X194481476Y-95606890D01*
X194360155Y-95377000D01*
X193167000Y-95377000D01*
X192913000Y-95377000D01*
X191719845Y-95377000D01*
X191598524Y-95606890D01*
X183982544Y-95606890D01*
X183993072Y-95500000D01*
X183993072Y-95214558D01*
X185481631Y-93726000D01*
X191576782Y-93726000D01*
X191600498Y-93804180D01*
X191659463Y-93914494D01*
X191738815Y-94011185D01*
X191835506Y-94090537D01*
X191945820Y-94149502D01*
X192026466Y-94173966D01*
X191942412Y-94249731D01*
X191768359Y-94483080D01*
X191643175Y-94745901D01*
X191598524Y-94893110D01*
X191719845Y-95123000D01*
X192913000Y-95123000D01*
X192913000Y-95103000D01*
X193167000Y-95103000D01*
X193167000Y-95123000D01*
X194360155Y-95123000D01*
X194481476Y-94893110D01*
X194436825Y-94745901D01*
X194311641Y-94483080D01*
X194137588Y-94249731D01*
X194053534Y-94173966D01*
X194134180Y-94149502D01*
X194244494Y-94090537D01*
X194341185Y-94011185D01*
X194420537Y-93914494D01*
X194479502Y-93804180D01*
X194515812Y-93684482D01*
X194528072Y-93560000D01*
X194528072Y-91860000D01*
X194515812Y-91735518D01*
X194479502Y-91615820D01*
X194420537Y-91505506D01*
X194341185Y-91408815D01*
X194244494Y-91329463D01*
X194134180Y-91270498D01*
X194014482Y-91234188D01*
X193890000Y-91221928D01*
X192190000Y-91221928D01*
X192065518Y-91234188D01*
X191945820Y-91270498D01*
X191835506Y-91329463D01*
X191738815Y-91408815D01*
X191659463Y-91505506D01*
X191600498Y-91615820D01*
X191576782Y-91694000D01*
X185840841Y-91694000D01*
X182363712Y-88216872D01*
X182331896Y-88178104D01*
X182177190Y-88051140D01*
X182000687Y-87956798D01*
X181809171Y-87898702D01*
X181659902Y-87884000D01*
X181610000Y-87879085D01*
X181560098Y-87884000D01*
X179348072Y-87884000D01*
X179348072Y-86800000D01*
X179335812Y-86675518D01*
X179299502Y-86555820D01*
X179240537Y-86445506D01*
X179161185Y-86348815D01*
X179064494Y-86269463D01*
X178954180Y-86210498D01*
X178834482Y-86174188D01*
X178710000Y-86161928D01*
X178526000Y-86161928D01*
X178526000Y-86119902D01*
X178530915Y-86070000D01*
X178511298Y-85870829D01*
X178453202Y-85679313D01*
X178358860Y-85502810D01*
X178263706Y-85386865D01*
X178231896Y-85348104D01*
X178193133Y-85316292D01*
X176013712Y-83136872D01*
X175981896Y-83098104D01*
X175827190Y-82971140D01*
X175650687Y-82876798D01*
X175459171Y-82818702D01*
X175309902Y-82804000D01*
X175260000Y-82799085D01*
X175210098Y-82804000D01*
X170984329Y-82804000D01*
X170912962Y-82717038D01*
X170778386Y-82606595D01*
X170624850Y-82524528D01*
X170458254Y-82473992D01*
X170285000Y-82456928D01*
X169610000Y-82456928D01*
X169436746Y-82473992D01*
X169270150Y-82524528D01*
X169116614Y-82606595D01*
X168982038Y-82717038D01*
X168910000Y-82804817D01*
X168837962Y-82717038D01*
X168703386Y-82606595D01*
X168549850Y-82524528D01*
X168383254Y-82473992D01*
X168210000Y-82456928D01*
X167535000Y-82456928D01*
X167361746Y-82473992D01*
X167195150Y-82524528D01*
X167041614Y-82606595D01*
X166907038Y-82717038D01*
X166835671Y-82804000D01*
X166459902Y-82804000D01*
X166410000Y-82799085D01*
X166210829Y-82818702D01*
X166019312Y-82876798D01*
X165957832Y-82909660D01*
X165842810Y-82971140D01*
X165688104Y-83098104D01*
X165656292Y-83136867D01*
X161431232Y-87361928D01*
X159580000Y-87361928D01*
X159455518Y-87374188D01*
X159335820Y-87410498D01*
X159225506Y-87469463D01*
X159128815Y-87548815D01*
X159049463Y-87645506D01*
X158990498Y-87755820D01*
X158954188Y-87875518D01*
X158941928Y-88000000D01*
X158941928Y-89800000D01*
X158946521Y-89846638D01*
X158233040Y-90560120D01*
X158248072Y-90407500D01*
X158248072Y-89932500D01*
X158231248Y-89761684D01*
X158181423Y-89597433D01*
X158100512Y-89446058D01*
X157991623Y-89313377D01*
X157858942Y-89204488D01*
X157834500Y-89191424D01*
X157834500Y-88445407D01*
X157901099Y-88417821D01*
X158046704Y-88320531D01*
X158170531Y-88196704D01*
X158267821Y-88051099D01*
X158334836Y-87889312D01*
X158369000Y-87717559D01*
X158369000Y-87542441D01*
X158334836Y-87370688D01*
X158267821Y-87208901D01*
X158170531Y-87063296D01*
X158046704Y-86939469D01*
X157901099Y-86842179D01*
X157739312Y-86775164D01*
X157567559Y-86741000D01*
X157392441Y-86741000D01*
X157220688Y-86775164D01*
X157058901Y-86842179D01*
X156913296Y-86939469D01*
X156789469Y-87063296D01*
X156692179Y-87208901D01*
X156625164Y-87370688D01*
X156616096Y-87416274D01*
X156560149Y-87472221D01*
X156531079Y-87496078D01*
X156507222Y-87525148D01*
X156507221Y-87525149D01*
X156435855Y-87612108D01*
X156365099Y-87744485D01*
X156321527Y-87888122D01*
X156306814Y-88037500D01*
X156310501Y-88074933D01*
X156310500Y-89191423D01*
X156286058Y-89204488D01*
X156210000Y-89266907D01*
X156133942Y-89204488D01*
X155982567Y-89123577D01*
X155818316Y-89073752D01*
X155647500Y-89056928D01*
X155047500Y-89056928D01*
X154876684Y-89073752D01*
X154712433Y-89123577D01*
X154561058Y-89204488D01*
X154428377Y-89313377D01*
X154319488Y-89446058D01*
X154238577Y-89597433D01*
X154188752Y-89761684D01*
X154171928Y-89932500D01*
X154171928Y-90407500D01*
X154188752Y-90578316D01*
X154238577Y-90742567D01*
X154319488Y-90893942D01*
X154428377Y-91026623D01*
X154561058Y-91135512D01*
X154585500Y-91148577D01*
X154585501Y-92380067D01*
X154581814Y-92417500D01*
X154596527Y-92566878D01*
X154640099Y-92710515D01*
X154710855Y-92842892D01*
X154733908Y-92870982D01*
X154721916Y-92893418D01*
X154677071Y-93041255D01*
X154661928Y-93195000D01*
X154661928Y-93495000D01*
X154666308Y-93539467D01*
X152956389Y-91829549D01*
X152960537Y-91824494D01*
X153019502Y-91714180D01*
X153055812Y-91594482D01*
X153068072Y-91470000D01*
X153068072Y-88870000D01*
X153055812Y-88745518D01*
X153019502Y-88625820D01*
X152960537Y-88515506D01*
X152881185Y-88418815D01*
X152784494Y-88339463D01*
X152674180Y-88280498D01*
X152554482Y-88244188D01*
X152430000Y-88231928D01*
X149830000Y-88231928D01*
X149705518Y-88244188D01*
X149585820Y-88280498D01*
X149475506Y-88339463D01*
X149378815Y-88418815D01*
X149299463Y-88515506D01*
X149240498Y-88625820D01*
X149204188Y-88745518D01*
X149191928Y-88870000D01*
X149191928Y-91470000D01*
X149204188Y-91594482D01*
X149240498Y-91714180D01*
X149299463Y-91824494D01*
X149378815Y-91921185D01*
X149475506Y-92000537D01*
X149585820Y-92059502D01*
X149705518Y-92095812D01*
X149830000Y-92108072D01*
X150363933Y-92108072D01*
X150408105Y-92161896D01*
X150446868Y-92193708D01*
X152868159Y-94615000D01*
X151051414Y-96431746D01*
X151002500Y-96426928D01*
X150327500Y-96426928D01*
X150154246Y-96443992D01*
X149987650Y-96494528D01*
X149834114Y-96576595D01*
X149699538Y-96687038D01*
X149694158Y-96693594D01*
X149628685Y-96613815D01*
X149531994Y-96534463D01*
X149421680Y-96475498D01*
X149301982Y-96439188D01*
X149205519Y-96429688D01*
X149299619Y-96219224D01*
X148130000Y-95049605D01*
X146960381Y-96219224D01*
X141630000Y-96219224D01*
X141630000Y-94920729D01*
X146186299Y-94920729D01*
X146233543Y-95298951D01*
X146353667Y-95660690D01*
X146485688Y-95907683D01*
X146780776Y-96039619D01*
X147950395Y-94870000D01*
X148309605Y-94870000D01*
X149479224Y-96039619D01*
X149774312Y-95907683D01*
X149945159Y-95566955D01*
X150046250Y-95199443D01*
X150073701Y-94819271D01*
X150026457Y-94441049D01*
X149906333Y-94079310D01*
X149774312Y-93832317D01*
X149479224Y-93700381D01*
X148309605Y-94870000D01*
X147950395Y-94870000D01*
X146780776Y-93700381D01*
X146485688Y-93832317D01*
X146314841Y-94173045D01*
X146213750Y-94540557D01*
X146186299Y-94920729D01*
X141630000Y-94920729D01*
X141630000Y-93520776D01*
X146960381Y-93520776D01*
X148130000Y-94690395D01*
X149299619Y-93520776D01*
X149167683Y-93225688D01*
X148826955Y-93054841D01*
X148459443Y-92953750D01*
X148079271Y-92926299D01*
X147701049Y-92973543D01*
X147339310Y-93093667D01*
X147092317Y-93225688D01*
X146960381Y-93520776D01*
X141630000Y-93520776D01*
X141630000Y-91519224D01*
X143960381Y-91519224D01*
X144092317Y-91814312D01*
X144433045Y-91985159D01*
X144800557Y-92086250D01*
X145180729Y-92113701D01*
X145558951Y-92066457D01*
X145920690Y-91946333D01*
X146167683Y-91814312D01*
X146299619Y-91519224D01*
X145130000Y-90349605D01*
X143960381Y-91519224D01*
X141630000Y-91519224D01*
X141630000Y-90220729D01*
X143186299Y-90220729D01*
X143233543Y-90598951D01*
X143353667Y-90960690D01*
X143485688Y-91207683D01*
X143780776Y-91339619D01*
X144950395Y-90170000D01*
X145309605Y-90170000D01*
X146479224Y-91339619D01*
X146774312Y-91207683D01*
X146945159Y-90866955D01*
X147046250Y-90499443D01*
X147073701Y-90119271D01*
X147026457Y-89741049D01*
X146906333Y-89379310D01*
X146774312Y-89132317D01*
X146479224Y-89000381D01*
X145309605Y-90170000D01*
X144950395Y-90170000D01*
X143780776Y-89000381D01*
X143485688Y-89132317D01*
X143314841Y-89473045D01*
X143213750Y-89840557D01*
X143186299Y-90220729D01*
X141630000Y-90220729D01*
X141630000Y-88820776D01*
X143960381Y-88820776D01*
X145130000Y-89990395D01*
X146299619Y-88820776D01*
X146167683Y-88525688D01*
X145826955Y-88354841D01*
X145459443Y-88253750D01*
X145079271Y-88226299D01*
X144701049Y-88273543D01*
X144339310Y-88393667D01*
X144092317Y-88525688D01*
X143960381Y-88820776D01*
X141630000Y-88820776D01*
X141630000Y-82582279D01*
X141660543Y-82270777D01*
X141945000Y-82270777D01*
X141945000Y-82829223D01*
X142053948Y-83376939D01*
X142267656Y-83892876D01*
X142577912Y-84357207D01*
X142972793Y-84752088D01*
X143437124Y-85062344D01*
X143953061Y-85276052D01*
X144500777Y-85385000D01*
X145059223Y-85385000D01*
X145606939Y-85276052D01*
X146122876Y-85062344D01*
X146587207Y-84752088D01*
X146982088Y-84357207D01*
X147292344Y-83892876D01*
X147506052Y-83376939D01*
X147615000Y-82829223D01*
X147615000Y-82270777D01*
X188935000Y-82270777D01*
X188935000Y-82829223D01*
X189043948Y-83376939D01*
X189257656Y-83892876D01*
X189567912Y-84357207D01*
X189962793Y-84752088D01*
X190427124Y-85062344D01*
X190943061Y-85276052D01*
X191490777Y-85385000D01*
X192049223Y-85385000D01*
X192596939Y-85276052D01*
X193112876Y-85062344D01*
X193577207Y-84752088D01*
X193972088Y-84357207D01*
X194282344Y-83892876D01*
X194496052Y-83376939D01*
X194605000Y-82829223D01*
X194605000Y-82270777D01*
X194496052Y-81723061D01*
X194282344Y-81207124D01*
X193972088Y-80742793D01*
X193577207Y-80347912D01*
X193112876Y-80037656D01*
X192596939Y-79823948D01*
X192049223Y-79715000D01*
X191490777Y-79715000D01*
X190943061Y-79823948D01*
X190427124Y-80037656D01*
X189962793Y-80347912D01*
X189567912Y-80742793D01*
X189257656Y-81207124D01*
X189043948Y-81723061D01*
X188935000Y-82270777D01*
X147615000Y-82270777D01*
X147506052Y-81723061D01*
X147292344Y-81207124D01*
X146982088Y-80742793D01*
X146587207Y-80347912D01*
X146122876Y-80037656D01*
X145606939Y-79823948D01*
X145059223Y-79715000D01*
X144500777Y-79715000D01*
X143953061Y-79823948D01*
X143437124Y-80037656D01*
X142972793Y-80347912D01*
X142577912Y-80742793D01*
X142267656Y-81207124D01*
X142053948Y-81723061D01*
X141945000Y-82270777D01*
X141660543Y-82270777D01*
X141693096Y-81938778D01*
X141870606Y-81350836D01*
X142158937Y-80808564D01*
X142547094Y-80332636D01*
X143020314Y-79941155D01*
X143560552Y-79649049D01*
X144147244Y-79467437D01*
X144788879Y-79400000D01*
X191737721Y-79400000D01*
X192381222Y-79463096D01*
G37*
%TD.AperFunction*%
%TD*%
M02*
