%TF.GenerationSoftware,KiCad,Pcbnew,(5.1.12)-1*%
%TF.CreationDate,2021-11-13T04:14:35-08:00*%
%TF.ProjectId,techdemo,74656368-6465-46d6-9f2e-6b696361645f,rev?*%
%TF.SameCoordinates,Original*%
%TF.FileFunction,Legend,Top*%
%TF.FilePolarity,Positive*%
%FSLAX46Y46*%
G04 Gerber Fmt 4.6, Leading zero omitted, Abs format (unit mm)*
G04 Created by KiCad (PCBNEW (5.1.12)-1) date 2021-11-13 04:14:35*
%MOMM*%
%LPD*%
G01*
G04 APERTURE LIST*
%ADD10C,0.150000*%
%ADD11C,0.120000*%
G04 APERTURE END LIST*
D10*
X188468095Y-94750000D02*
X188372857Y-94702380D01*
X188230000Y-94702380D01*
X188087142Y-94750000D01*
X187991904Y-94845238D01*
X187944285Y-94940476D01*
X187896666Y-95130952D01*
X187896666Y-95273809D01*
X187944285Y-95464285D01*
X187991904Y-95559523D01*
X188087142Y-95654761D01*
X188230000Y-95702380D01*
X188325238Y-95702380D01*
X188468095Y-95654761D01*
X188515714Y-95607142D01*
X188515714Y-95273809D01*
X188325238Y-95273809D01*
X188944285Y-95702380D02*
X188944285Y-94702380D01*
X189515714Y-95702380D01*
X189515714Y-94702380D01*
X189991904Y-95702380D02*
X189991904Y-94702380D01*
X190230000Y-94702380D01*
X190372857Y-94750000D01*
X190468095Y-94845238D01*
X190515714Y-94940476D01*
X190563333Y-95130952D01*
X190563333Y-95273809D01*
X190515714Y-95464285D01*
X190468095Y-95559523D01*
X190372857Y-95654761D01*
X190230000Y-95702380D01*
X189991904Y-95702380D01*
X189039523Y-92162380D02*
X188563333Y-92162380D01*
X188515714Y-92638571D01*
X188563333Y-92590952D01*
X188658571Y-92543333D01*
X188896666Y-92543333D01*
X188991904Y-92590952D01*
X189039523Y-92638571D01*
X189087142Y-92733809D01*
X189087142Y-92971904D01*
X189039523Y-93067142D01*
X188991904Y-93114761D01*
X188896666Y-93162380D01*
X188658571Y-93162380D01*
X188563333Y-93114761D01*
X188515714Y-93067142D01*
X189372857Y-92162380D02*
X189706190Y-93162380D01*
X190039523Y-92162380D01*
D11*
%TO.C,C2*%
X156356267Y-89660000D02*
X156063733Y-89660000D01*
X156356267Y-90680000D02*
X156063733Y-90680000D01*
%TO.C,L1*%
X171810000Y-91450000D02*
X178710000Y-91450000D01*
X171810000Y-86350000D02*
X178710000Y-86350000D01*
%TO.C,U1*%
X158750000Y-92690000D02*
X155300000Y-92690000D01*
X158750000Y-92690000D02*
X160700000Y-92690000D01*
X158750000Y-97810000D02*
X156800000Y-97810000D01*
X158750000Y-97810000D02*
X160700000Y-97810000D01*
%TO.C,R6*%
X182357500Y-95907776D02*
X182357500Y-96417224D01*
X183402500Y-95907776D02*
X183402500Y-96417224D01*
%TO.C,R5*%
X177052500Y-99314724D02*
X177052500Y-98805276D01*
X176007500Y-99314724D02*
X176007500Y-98805276D01*
%TO.C,R4*%
X178547500Y-98805276D02*
X178547500Y-99314724D01*
X179592500Y-98805276D02*
X179592500Y-99314724D01*
%TO.C,R3*%
X163727224Y-103617500D02*
X163217776Y-103617500D01*
X163727224Y-104662500D02*
X163217776Y-104662500D01*
%TO.C,R2*%
X152297224Y-103617500D02*
X151787776Y-103617500D01*
X152297224Y-104662500D02*
X151787776Y-104662500D01*
%TO.C,R1*%
X151787776Y-102122500D02*
X152297224Y-102122500D01*
X151787776Y-101077500D02*
X152297224Y-101077500D01*
%TO.C,J2*%
X191710000Y-91380000D02*
X193040000Y-91380000D01*
X191710000Y-92710000D02*
X191710000Y-91380000D01*
X191710000Y-93980000D02*
X194370000Y-93980000D01*
X194370000Y-93980000D02*
X194370000Y-96580000D01*
X191710000Y-93980000D02*
X191710000Y-96580000D01*
X191710000Y-96580000D02*
X194370000Y-96580000D01*
%TO.C,J1*%
X152170000Y-85330000D02*
X152170000Y-87070000D01*
X150430000Y-85330000D02*
X152170000Y-85330000D01*
X151930000Y-94770000D02*
X149930000Y-94770000D01*
X151930000Y-91970000D02*
X151930000Y-94770000D01*
X151930000Y-85570000D02*
X151930000Y-88370000D01*
X137330000Y-85570000D02*
X151930000Y-85570000D01*
X137330000Y-94770000D02*
X137330000Y-85570000D01*
X146330000Y-94770000D02*
X137330000Y-94770000D01*
%TO.C,D2*%
X183615000Y-102385000D02*
X183615000Y-99925000D01*
X182145000Y-102385000D02*
X183615000Y-102385000D01*
X182145000Y-99925000D02*
X182145000Y-102385000D01*
%TO.C,D1*%
X168230000Y-90550000D02*
X161330000Y-90550000D01*
X168230000Y-87250000D02*
X161330000Y-87250000D01*
X168230000Y-90550000D02*
X168230000Y-87250000D01*
%TO.C,C6*%
X169171252Y-83085000D02*
X168648748Y-83085000D01*
X169171252Y-84555000D02*
X168648748Y-84555000D01*
%TO.C,C5*%
X168356233Y-97030000D02*
X168648767Y-97030000D01*
X168356233Y-96010000D02*
X168648767Y-96010000D01*
%TO.C,C4*%
X168356233Y-99570000D02*
X168648767Y-99570000D01*
X168356233Y-98550000D02*
X168648767Y-98550000D01*
%TO.C,C3*%
X163568767Y-101090000D02*
X163276233Y-101090000D01*
X163568767Y-102110000D02*
X163276233Y-102110000D01*
%TO.C,C1*%
X149888752Y-97055000D02*
X149366248Y-97055000D01*
X149888752Y-98525000D02*
X149366248Y-98525000D01*
%TO.C,C2*%
D10*
X156043333Y-91957142D02*
X155995714Y-92004761D01*
X155852857Y-92052380D01*
X155757619Y-92052380D01*
X155614761Y-92004761D01*
X155519523Y-91909523D01*
X155471904Y-91814285D01*
X155424285Y-91623809D01*
X155424285Y-91480952D01*
X155471904Y-91290476D01*
X155519523Y-91195238D01*
X155614761Y-91100000D01*
X155757619Y-91052380D01*
X155852857Y-91052380D01*
X155995714Y-91100000D01*
X156043333Y-91147619D01*
X156424285Y-91147619D02*
X156471904Y-91100000D01*
X156567142Y-91052380D01*
X156805238Y-91052380D01*
X156900476Y-91100000D01*
X156948095Y-91147619D01*
X156995714Y-91242857D01*
X156995714Y-91338095D01*
X156948095Y-91480952D01*
X156376666Y-92052380D01*
X156995714Y-92052380D01*
%TO.C,L1*%
X175093333Y-85902380D02*
X174617142Y-85902380D01*
X174617142Y-84902380D01*
X175950476Y-85902380D02*
X175379047Y-85902380D01*
X175664761Y-85902380D02*
X175664761Y-84902380D01*
X175569523Y-85045238D01*
X175474285Y-85140476D01*
X175379047Y-85188095D01*
%TO.C,U1*%
X157988095Y-91302380D02*
X157988095Y-92111904D01*
X158035714Y-92207142D01*
X158083333Y-92254761D01*
X158178571Y-92302380D01*
X158369047Y-92302380D01*
X158464285Y-92254761D01*
X158511904Y-92207142D01*
X158559523Y-92111904D01*
X158559523Y-91302380D01*
X159559523Y-92302380D02*
X158988095Y-92302380D01*
X159273809Y-92302380D02*
X159273809Y-91302380D01*
X159178571Y-91445238D01*
X159083333Y-91540476D01*
X158988095Y-91588095D01*
%TO.C,R6*%
X184762380Y-96329166D02*
X184286190Y-96662500D01*
X184762380Y-96900595D02*
X183762380Y-96900595D01*
X183762380Y-96519642D01*
X183810000Y-96424404D01*
X183857619Y-96376785D01*
X183952857Y-96329166D01*
X184095714Y-96329166D01*
X184190952Y-96376785D01*
X184238571Y-96424404D01*
X184286190Y-96519642D01*
X184286190Y-96900595D01*
X183762380Y-95472023D02*
X183762380Y-95662500D01*
X183810000Y-95757738D01*
X183857619Y-95805357D01*
X184000476Y-95900595D01*
X184190952Y-95948214D01*
X184571904Y-95948214D01*
X184667142Y-95900595D01*
X184714761Y-95852976D01*
X184762380Y-95757738D01*
X184762380Y-95567261D01*
X184714761Y-95472023D01*
X184667142Y-95424404D01*
X184571904Y-95376785D01*
X184333809Y-95376785D01*
X184238571Y-95424404D01*
X184190952Y-95472023D01*
X184143333Y-95567261D01*
X184143333Y-95757738D01*
X184190952Y-95852976D01*
X184238571Y-95900595D01*
X184333809Y-95948214D01*
%TO.C,R5*%
X176982380Y-95416666D02*
X176506190Y-95750000D01*
X176982380Y-95988095D02*
X175982380Y-95988095D01*
X175982380Y-95607142D01*
X176030000Y-95511904D01*
X176077619Y-95464285D01*
X176172857Y-95416666D01*
X176315714Y-95416666D01*
X176410952Y-95464285D01*
X176458571Y-95511904D01*
X176506190Y-95607142D01*
X176506190Y-95988095D01*
X175982380Y-94511904D02*
X175982380Y-94988095D01*
X176458571Y-95035714D01*
X176410952Y-94988095D01*
X176363333Y-94892857D01*
X176363333Y-94654761D01*
X176410952Y-94559523D01*
X176458571Y-94511904D01*
X176553809Y-94464285D01*
X176791904Y-94464285D01*
X176887142Y-94511904D01*
X176934761Y-94559523D01*
X176982380Y-94654761D01*
X176982380Y-94892857D01*
X176934761Y-94988095D01*
X176887142Y-95035714D01*
%TO.C,R4*%
X179522380Y-95416666D02*
X179046190Y-95750000D01*
X179522380Y-95988095D02*
X178522380Y-95988095D01*
X178522380Y-95607142D01*
X178570000Y-95511904D01*
X178617619Y-95464285D01*
X178712857Y-95416666D01*
X178855714Y-95416666D01*
X178950952Y-95464285D01*
X178998571Y-95511904D01*
X179046190Y-95607142D01*
X179046190Y-95988095D01*
X178855714Y-94559523D02*
X179522380Y-94559523D01*
X178474761Y-94797619D02*
X179189047Y-95035714D01*
X179189047Y-94416666D01*
%TO.C,R3*%
X159853333Y-104592380D02*
X159520000Y-104116190D01*
X159281904Y-104592380D02*
X159281904Y-103592380D01*
X159662857Y-103592380D01*
X159758095Y-103640000D01*
X159805714Y-103687619D01*
X159853333Y-103782857D01*
X159853333Y-103925714D01*
X159805714Y-104020952D01*
X159758095Y-104068571D01*
X159662857Y-104116190D01*
X159281904Y-104116190D01*
X160186666Y-103592380D02*
X160805714Y-103592380D01*
X160472380Y-103973333D01*
X160615238Y-103973333D01*
X160710476Y-104020952D01*
X160758095Y-104068571D01*
X160805714Y-104163809D01*
X160805714Y-104401904D01*
X160758095Y-104497142D01*
X160710476Y-104544761D01*
X160615238Y-104592380D01*
X160329523Y-104592380D01*
X160234285Y-104544761D01*
X160186666Y-104497142D01*
%TO.C,R2*%
X148423333Y-104592380D02*
X148090000Y-104116190D01*
X147851904Y-104592380D02*
X147851904Y-103592380D01*
X148232857Y-103592380D01*
X148328095Y-103640000D01*
X148375714Y-103687619D01*
X148423333Y-103782857D01*
X148423333Y-103925714D01*
X148375714Y-104020952D01*
X148328095Y-104068571D01*
X148232857Y-104116190D01*
X147851904Y-104116190D01*
X148804285Y-103687619D02*
X148851904Y-103640000D01*
X148947142Y-103592380D01*
X149185238Y-103592380D01*
X149280476Y-103640000D01*
X149328095Y-103687619D01*
X149375714Y-103782857D01*
X149375714Y-103878095D01*
X149328095Y-104020952D01*
X148756666Y-104592380D01*
X149375714Y-104592380D01*
%TO.C,R1*%
X148423333Y-102052380D02*
X148090000Y-101576190D01*
X147851904Y-102052380D02*
X147851904Y-101052380D01*
X148232857Y-101052380D01*
X148328095Y-101100000D01*
X148375714Y-101147619D01*
X148423333Y-101242857D01*
X148423333Y-101385714D01*
X148375714Y-101480952D01*
X148328095Y-101528571D01*
X148232857Y-101576190D01*
X147851904Y-101576190D01*
X149375714Y-102052380D02*
X148804285Y-102052380D01*
X149090000Y-102052380D02*
X149090000Y-101052380D01*
X148994761Y-101195238D01*
X148899523Y-101290476D01*
X148804285Y-101338095D01*
%TO.C,J2*%
X192706666Y-89832380D02*
X192706666Y-90546666D01*
X192659047Y-90689523D01*
X192563809Y-90784761D01*
X192420952Y-90832380D01*
X192325714Y-90832380D01*
X193135238Y-89927619D02*
X193182857Y-89880000D01*
X193278095Y-89832380D01*
X193516190Y-89832380D01*
X193611428Y-89880000D01*
X193659047Y-89927619D01*
X193706666Y-90022857D01*
X193706666Y-90118095D01*
X193659047Y-90260952D01*
X193087619Y-90832380D01*
X193706666Y-90832380D01*
%TO.C,J1*%
X142346666Y-95372380D02*
X142346666Y-96086666D01*
X142299047Y-96229523D01*
X142203809Y-96324761D01*
X142060952Y-96372380D01*
X141965714Y-96372380D01*
X143346666Y-96372380D02*
X142775238Y-96372380D01*
X143060952Y-96372380D02*
X143060952Y-95372380D01*
X142965714Y-95515238D01*
X142870476Y-95610476D01*
X142775238Y-95658095D01*
%TO.C,D2*%
X181902380Y-101463095D02*
X180902380Y-101463095D01*
X180902380Y-101225000D01*
X180950000Y-101082142D01*
X181045238Y-100986904D01*
X181140476Y-100939285D01*
X181330952Y-100891666D01*
X181473809Y-100891666D01*
X181664285Y-100939285D01*
X181759523Y-100986904D01*
X181854761Y-101082142D01*
X181902380Y-101225000D01*
X181902380Y-101463095D01*
X180997619Y-100510714D02*
X180950000Y-100463095D01*
X180902380Y-100367857D01*
X180902380Y-100129761D01*
X180950000Y-100034523D01*
X180997619Y-99986904D01*
X181092857Y-99939285D01*
X181188095Y-99939285D01*
X181330952Y-99986904D01*
X181902380Y-100558333D01*
X181902380Y-99939285D01*
%TO.C,D1*%
X163091904Y-91852380D02*
X163091904Y-90852380D01*
X163330000Y-90852380D01*
X163472857Y-90900000D01*
X163568095Y-90995238D01*
X163615714Y-91090476D01*
X163663333Y-91280952D01*
X163663333Y-91423809D01*
X163615714Y-91614285D01*
X163568095Y-91709523D01*
X163472857Y-91804761D01*
X163330000Y-91852380D01*
X163091904Y-91852380D01*
X164615714Y-91852380D02*
X164044285Y-91852380D01*
X164330000Y-91852380D02*
X164330000Y-90852380D01*
X164234761Y-90995238D01*
X164139523Y-91090476D01*
X164044285Y-91138095D01*
%TO.C,C6*%
X168743333Y-85857142D02*
X168695714Y-85904761D01*
X168552857Y-85952380D01*
X168457619Y-85952380D01*
X168314761Y-85904761D01*
X168219523Y-85809523D01*
X168171904Y-85714285D01*
X168124285Y-85523809D01*
X168124285Y-85380952D01*
X168171904Y-85190476D01*
X168219523Y-85095238D01*
X168314761Y-85000000D01*
X168457619Y-84952380D01*
X168552857Y-84952380D01*
X168695714Y-85000000D01*
X168743333Y-85047619D01*
X169600476Y-84952380D02*
X169410000Y-84952380D01*
X169314761Y-85000000D01*
X169267142Y-85047619D01*
X169171904Y-85190476D01*
X169124285Y-85380952D01*
X169124285Y-85761904D01*
X169171904Y-85857142D01*
X169219523Y-85904761D01*
X169314761Y-85952380D01*
X169505238Y-85952380D01*
X169600476Y-85904761D01*
X169648095Y-85857142D01*
X169695714Y-85761904D01*
X169695714Y-85523809D01*
X169648095Y-85428571D01*
X169600476Y-85380952D01*
X169505238Y-85333333D01*
X169314761Y-85333333D01*
X169219523Y-85380952D01*
X169171904Y-85428571D01*
X169124285Y-85523809D01*
%TO.C,C5*%
X164933333Y-96877142D02*
X164885714Y-96924761D01*
X164742857Y-96972380D01*
X164647619Y-96972380D01*
X164504761Y-96924761D01*
X164409523Y-96829523D01*
X164361904Y-96734285D01*
X164314285Y-96543809D01*
X164314285Y-96400952D01*
X164361904Y-96210476D01*
X164409523Y-96115238D01*
X164504761Y-96020000D01*
X164647619Y-95972380D01*
X164742857Y-95972380D01*
X164885714Y-96020000D01*
X164933333Y-96067619D01*
X165838095Y-95972380D02*
X165361904Y-95972380D01*
X165314285Y-96448571D01*
X165361904Y-96400952D01*
X165457142Y-96353333D01*
X165695238Y-96353333D01*
X165790476Y-96400952D01*
X165838095Y-96448571D01*
X165885714Y-96543809D01*
X165885714Y-96781904D01*
X165838095Y-96877142D01*
X165790476Y-96924761D01*
X165695238Y-96972380D01*
X165457142Y-96972380D01*
X165361904Y-96924761D01*
X165314285Y-96877142D01*
%TO.C,C4*%
X164933333Y-99417142D02*
X164885714Y-99464761D01*
X164742857Y-99512380D01*
X164647619Y-99512380D01*
X164504761Y-99464761D01*
X164409523Y-99369523D01*
X164361904Y-99274285D01*
X164314285Y-99083809D01*
X164314285Y-98940952D01*
X164361904Y-98750476D01*
X164409523Y-98655238D01*
X164504761Y-98560000D01*
X164647619Y-98512380D01*
X164742857Y-98512380D01*
X164885714Y-98560000D01*
X164933333Y-98607619D01*
X165790476Y-98845714D02*
X165790476Y-99512380D01*
X165552380Y-98464761D02*
X165314285Y-99179047D01*
X165933333Y-99179047D01*
%TO.C,C3*%
X159853333Y-101957142D02*
X159805714Y-102004761D01*
X159662857Y-102052380D01*
X159567619Y-102052380D01*
X159424761Y-102004761D01*
X159329523Y-101909523D01*
X159281904Y-101814285D01*
X159234285Y-101623809D01*
X159234285Y-101480952D01*
X159281904Y-101290476D01*
X159329523Y-101195238D01*
X159424761Y-101100000D01*
X159567619Y-101052380D01*
X159662857Y-101052380D01*
X159805714Y-101100000D01*
X159853333Y-101147619D01*
X160186666Y-101052380D02*
X160805714Y-101052380D01*
X160472380Y-101433333D01*
X160615238Y-101433333D01*
X160710476Y-101480952D01*
X160758095Y-101528571D01*
X160805714Y-101623809D01*
X160805714Y-101861904D01*
X160758095Y-101957142D01*
X160710476Y-102004761D01*
X160615238Y-102052380D01*
X160329523Y-102052380D01*
X160234285Y-102004761D01*
X160186666Y-101957142D01*
%TO.C,C1*%
X149460833Y-99827142D02*
X149413214Y-99874761D01*
X149270357Y-99922380D01*
X149175119Y-99922380D01*
X149032261Y-99874761D01*
X148937023Y-99779523D01*
X148889404Y-99684285D01*
X148841785Y-99493809D01*
X148841785Y-99350952D01*
X148889404Y-99160476D01*
X148937023Y-99065238D01*
X149032261Y-98970000D01*
X149175119Y-98922380D01*
X149270357Y-98922380D01*
X149413214Y-98970000D01*
X149460833Y-99017619D01*
X150413214Y-99922380D02*
X149841785Y-99922380D01*
X150127500Y-99922380D02*
X150127500Y-98922380D01*
X150032261Y-99065238D01*
X149937023Y-99160476D01*
X149841785Y-99208095D01*
%TD*%
M02*
